M48
;DRILL file {KiCad (5.0.1)-3} date 2019/04/04 15:31:02
;FORMAT={-:-/ absolute / inch / decimal}
FMAT,2
INCH,TZ
T1C0.0394
T2C0.0472
T3C0.0669
T4C0.0748
T5C0.0866
T6C0.1200
T7C0.1570
T8C0.1575
T9C0.1890
%
G90
G05
M72
T1
X0.1518Y3.0089
X0.5628Y3.0089
X0.9018Y3.0089
X1.3128Y3.0089
X1.6518Y3.5714
X2.0628Y3.5714
X2.4018Y3.7589
X2.8128Y3.7589
X3.1518Y3.5714
X3.5628Y3.5714
X3.9018Y3.3839
X4.3128Y3.3839
X0.1518Y2.2589
X0.5628Y2.2589
X0.9018Y2.2589
X1.3128Y2.2589
X1.6518Y2.8214
X2.0628Y2.8214
X2.4018Y3.0089
X2.8128Y3.0089
X3.1518Y2.8214
X3.5628Y2.8214
X3.9018Y2.6339
X4.3128Y2.6339
X0.9018Y1.5089
X1.3128Y1.5089
X1.6518Y2.0714
X2.0628Y2.0714
X2.4018Y2.2589
X2.8128Y2.2589
X3.1518Y2.0714
X3.5628Y2.0714
X3.9018Y1.8839
X4.3128Y1.8839
X0.1518Y0.7589
X0.5628Y0.7589
X0.9018Y0.7589
X1.3128Y0.7589
X1.6518Y1.3214
X2.0628Y1.3214
X2.4018Y1.5089
X2.8128Y1.5089
X3.1518Y1.3214
X3.5628Y1.3214
X5.2098Y-0.5254
X5.4153Y-0.1695
X0.1518Y1.5089
X0.5628Y1.5089
X3.9018Y1.1339
X4.3128Y1.1339
X2.9643Y0.5714
X3.3753Y0.5714
X3.7143Y0.3839
X4.1253Y0.3839
X4.3731Y-0.4762
X4.5786Y-0.1202
X4.7472Y0.1734
X4.9527Y0.5294
T2
X5.7411Y0.7805
X5.7411Y0.7116
X6.0167Y0.7805
X6.0167Y0.7116
T3
X0.1573Y2.8435
X0.5573Y2.8435
X0.9073Y2.8435
X1.3073Y2.8435
X1.6573Y3.406
X2.0573Y3.406
X2.4073Y3.5935
X2.8073Y3.5935
X3.1573Y3.406
X3.5573Y3.406
X3.9073Y3.2185
X4.3073Y3.2185
X0.1573Y2.0935
X0.5573Y2.0935
X0.9073Y2.0935
X1.3073Y2.0935
X1.6573Y2.656
X2.0573Y2.656
X2.4073Y2.8435
X2.8073Y2.8435
X3.1573Y2.656
X3.5573Y2.656
X3.9073Y2.4685
X4.3073Y2.4685
X0.9073Y1.3435
X1.3073Y1.3435
X1.6573Y1.906
X2.0573Y1.906
X2.4073Y2.0935
X2.8073Y2.0935
X3.1573Y1.906
X3.5573Y1.906
X3.9073Y1.7185
X4.3073Y1.7185
X0.1573Y0.5935
X0.5573Y0.5935
X0.9073Y0.5935
X1.3073Y0.5935
X1.6573Y1.156
X2.0573Y1.156
X2.4073Y1.3435
X2.8073Y1.3435
X3.1573Y1.156
X3.5573Y1.156
X5.3557Y-0.6033
X5.5557Y-0.2569
X0.1573Y1.3435
X0.5573Y1.3435
X3.9073Y0.9685
X4.3073Y0.9685
X2.9698Y0.406
X3.3698Y0.406
X3.7198Y0.2185
X4.1198Y0.2185
X4.5191Y-0.5541
X4.7191Y-0.2077
X4.8931Y0.0955
X5.0931Y0.4419
T4
X0.1407Y2.8435
X0.5738Y2.8435
X0.8907Y2.8435
X1.3238Y2.8435
X1.6407Y3.406
X2.0738Y3.406
X2.3907Y3.5935
X2.8238Y3.5935
X3.1407Y3.406
X3.5738Y3.406
X3.8907Y3.2185
X4.3238Y3.2185
X0.1407Y2.0935
X0.5738Y2.0935
X0.8907Y2.0935
X1.3238Y2.0935
X1.6407Y2.656
X2.0738Y2.656
X2.3907Y2.8435
X2.8238Y2.8435
X3.1407Y2.656
X3.5738Y2.656
X3.8907Y2.4685
X4.3238Y2.4685
X0.8907Y1.3435
X1.3238Y1.3435
X1.6407Y1.906
X2.0738Y1.906
X2.3907Y2.0935
X2.8238Y2.0935
X3.1407Y1.906
X3.5738Y1.906
X3.8907Y1.7185
X4.3238Y1.7185
X0.1407Y0.5935
X0.5738Y0.5935
X0.8907Y0.5935
X1.3238Y0.5935
X1.6407Y1.156
X2.0738Y1.156
X2.3907Y1.3435
X2.8238Y1.3435
X3.1407Y1.156
X3.5738Y1.156
X5.3474Y-0.6176
X5.564Y-0.2426
X0.1407Y1.3435
X0.5738Y1.3435
X3.8907Y0.9685
X4.3238Y0.9685
X2.9532Y0.406
X3.3863Y0.406
X3.7032Y0.2185
X4.1363Y0.2185
X4.5108Y-0.5684
X4.7274Y-0.1934
X4.8848Y0.0812
X5.1014Y0.4562
T5
X5.9961Y0.2982
X4.6122Y1.0886
T6
X5.4589Y-0.9747
X5.9289Y-0.1606
T7
X4.9393Y-0.6747
X5.4093Y0.1394
T8
X0.3573Y2.8435
X1.1073Y2.8435
X1.8573Y3.406
X2.6073Y3.5935
X3.3573Y3.406
X4.1073Y3.2185
X0.3573Y2.0935
X1.1073Y2.0935
X1.8573Y2.656
X2.6073Y2.8435
X3.3573Y2.656
X4.1073Y2.4685
X1.1073Y1.3435
X1.8573Y1.906
X2.6073Y2.0935
X3.3573Y1.906
X4.1073Y1.7185
X0.3573Y0.5935
X1.1073Y0.5935
X1.8573Y1.156
X2.6073Y1.3435
X3.3573Y1.156
X5.4557Y-0.4301
X0.3573Y1.3435
X4.1073Y0.9685
X3.1698Y0.406
X3.9198Y0.2185
X4.6191Y-0.3809
X4.9931Y0.2687
T9
X0.7323Y0.9675
X0.7323Y2.4685
X3.6939Y3.0344
X3.6388Y0.688
X5.0748Y-0.2146
T0
M30
