M48
;DRILL file {KiCad (5.0.2)-1} date 2019/02/11 21:15:29
;FORMAT={-:-/ absolute / metric / decimal}
FMAT,2
METRIC,TZ
T1C0.400
T2C0.813
T3C1.000
T4C1.200
T5C1.300
T6C1.500
%
G90
G05
T1
X3.025Y36.9
X3.75Y58.8
X4.325Y23.325
X4.68Y37.475
X4.725Y74.525
X4.85Y77.862
X4.85Y43.45
X5.05Y36.
X5.1Y57.962
X5.175Y19.675
X5.625Y55.15
X6.17Y79.23
X6.942Y60.965
X12.941Y76.946
X13.005Y38.645
X13.045Y57.965
X13.1Y19.85
X13.175Y82.85
X13.637Y59.675
X13.8Y21.05
X14.275Y24.675
X15.926Y77.895
X16.225Y39.761
X18.45Y78.3
X19.975Y72.425
X19.975Y72.425
X19.975Y72.425
X22.7Y36.5
X23.825Y39.762
X23.825Y21.25
X24.1Y19.825
X24.125Y74.525
X24.207Y76.645
X24.25Y57.875
X30.725Y81.517
X31.015Y61.9
X31.075Y63.825
X31.801Y76.997
X31.995Y38.895
X32.095Y57.825
X32.125Y19.725
X32.75Y41.688
X32.975Y22.038
X33.225Y46.85
X33.439Y75.112
X33.65Y81.2
X34.175Y58.775
X35.75Y58.775
X36.4Y44.625
X37.35Y49.2
X39.25Y70.3
X39.525Y37.65
X39.6Y41.7
X39.675Y93.525
X39.675Y88.175
X41.125Y53.8
X41.175Y93.525
X41.175Y59.8
X41.275Y73.05
X41.575Y37.625
X42.85Y54.05
X43.075Y36.089
X43.2Y92.15
X43.275Y72.15
X43.275Y34.175
X43.7Y39.075
X51.015Y72.125
X51.175Y91.165
X51.325Y33.95
X51.445Y54.05
X51.9Y73.15
X52.4Y56.65
X52.4Y51.175
X52.935Y92.735
X53.325Y54.65
X53.345Y34.975
X54.187Y20.687
X57.6Y58.275
X60.175Y56.
X60.725Y41.1
X62.2Y38.575
X62.205Y94.77
X62.285Y56.572
X62.3Y76.975
X62.425Y75.
X70.135Y96.055
X70.205Y76.965
X70.225Y57.062
X70.225Y38.575
X70.825Y77.875
X71.275Y40.05
X71.45Y65.175
X71.45Y58.776
X71.575Y20.575
X72.325Y4.825
X72.325Y2.575
X72.805Y96.912
X73.575Y93.3
X75.407Y80.467
X76.15Y16.45
X76.365Y14.985
X77.125Y69.9
X77.3Y50.475
X77.645Y75.625
X79.425Y76.35
X79.675Y73.05
X80.875Y54.05
X80.975Y35.525
X81.375Y72.25
X81.4Y34.1
X81.445Y92.53
X82.075Y88.575
X84.365Y15.025
X86.595Y15.945
X87.975Y74.6
X88.075Y50.75
X88.215Y88.785
X89.052Y52.966
X89.325Y91.225
X89.325Y72.7
X89.35Y33.95
X89.975Y34.975
X93.645Y91.055
X94.2Y8.
X95.725Y10.375
X98.325Y90.445
X100.05Y65.45
X100.075Y51.6
X100.205Y29.385
X100.25Y67.425
X100.455Y85.638
X100.512Y47.175
X103.615Y10.365
X105.275Y11.195
X107.6Y82.85
X108.205Y48.438
X108.3Y67.125
X108.335Y86.335
X108.555Y29.345
X109.425Y-10.45
X109.685Y49.287
X110.155Y26.195
X110.225Y68.705
X110.375Y30.095
X110.979Y-10.544
X111.195Y87.388
X111.825Y54.497
X111.835Y76.145
X112.275Y61.455
X112.325Y32.825
X112.825Y21.425
X113.055Y76.115
X113.123Y72.847
X113.175Y49.335
X113.7Y68.85
X114.315Y53.315
X114.865Y-1.545
X115.165Y-3.755
X115.415Y4.205
X115.675Y52.275
X117.835Y76.485
X119.325Y6.15
X120.065Y73.685
X120.885Y5.933
X121.325Y28.35
X121.575Y45.575
X121.575Y38.063
X122.025Y40.375
X122.344Y43.423
X122.709Y75.909
X123.6Y45.187
X123.975Y28.325
X124.365Y14.635
X124.565Y12.885
X125.204Y75.954
X125.428Y45.204
X126.698Y57.635
X126.698Y55.935
X127.437Y75.937
X127.739Y60.739
X127.968Y45.224
X128.75Y-10.675
X129.949Y60.154
X130.244Y75.994
X130.325Y14.996
X130.483Y16.943
X130.494Y45.244
X130.9Y19.025
X131.626Y60.575
X132.785Y-12.045
X132.865Y75.889
X133.Y45.277
X134.318Y60.575
X135.312Y45.312
X135.409Y75.909
X135.825Y59.625
X136.38Y19.195
X136.425Y-3.235
X136.485Y-4.705
X137.685Y-2.385
X137.929Y75.929
X137.944Y60.694
X138.054Y45.304
X138.853Y31.919
X140.187Y75.937
X140.325Y45.325
X142.575Y59.72
X146.575Y75.55
X147.7Y44.175
X149.075Y45.325
X149.709Y27.111
X150.346Y45.346
X150.529Y76.029
X150.672Y28.925
T2
X133.825Y54.075
X136.365Y54.075
X138.905Y54.075
X141.445Y54.075
X93.325Y31.385
X93.325Y23.765
X58.075Y94.385
X58.075Y86.765
X58.325Y56.135
X58.325Y48.515
X142.575Y24.325
X133.825Y56.825
X136.365Y56.825
X138.905Y56.825
X141.445Y56.825
X88.575Y10.135
X88.575Y2.515
X96.325Y88.635
X96.325Y81.015
X96.325Y50.635
X96.325Y43.015
X134.285Y16.075
X139.365Y16.075
X143.525Y5.98
X150.125Y2.17
X118.238Y-0.882
X124.837Y-4.692
X20.075Y57.135
X20.075Y49.515
X20.075Y19.135
X20.075Y11.515
X55.075Y75.385
X55.075Y67.765
X17.075Y38.135
X17.075Y30.515
X93.325Y69.635
X93.325Y62.015
X118.575Y44.315
X118.575Y41.775
X118.575Y39.235
X118.575Y36.695
X58.075Y37.135
X58.075Y29.515
X55.075Y94.385
X55.075Y86.765
X55.075Y56.135
X55.075Y48.515
X118.575Y59.325
X118.575Y56.785
X118.575Y54.245
X118.575Y51.705
X96.325Y31.385
X96.325Y23.765
X93.325Y88.635
X93.325Y81.015
X93.325Y50.635
X93.325Y43.015
X153.075Y24.325
X58.075Y75.385
X58.075Y67.765
X118.575Y74.575
X118.575Y72.035
X118.575Y69.495
X118.575Y66.955
X122.343Y78.965
X122.343Y63.725
X123.613Y77.639
X123.613Y62.419
X124.883Y78.965
X124.883Y63.725
X126.153Y77.639
X126.153Y62.419
X127.423Y78.965
X127.423Y63.725
X128.693Y77.639
X128.693Y62.419
X129.963Y78.965
X129.963Y63.725
X131.233Y77.639
X131.233Y62.419
X132.503Y78.965
X132.503Y63.725
X133.773Y77.639
X133.773Y62.419
X135.043Y78.965
X135.043Y63.725
X136.313Y77.639
X136.313Y62.419
X137.583Y78.965
X137.583Y63.725
X138.853Y77.639
X138.853Y62.419
X140.123Y78.965
X140.123Y63.725
X141.393Y77.639
X141.393Y62.419
X142.663Y78.965
X142.663Y63.725
X143.933Y77.639
X143.933Y62.419
X145.203Y78.965
X145.203Y63.725
X146.473Y77.639
X146.473Y62.419
X147.743Y78.965
X147.743Y63.725
X149.013Y77.639
X149.013Y62.419
X150.283Y78.965
X150.283Y63.725
X151.553Y77.639
X151.553Y62.419
X152.823Y78.965
X152.823Y78.965
X152.823Y63.725
X152.823Y63.725
X154.093Y77.639
X154.093Y77.639
X154.093Y62.419
X154.093Y62.419
X91.575Y10.135
X91.575Y2.515
X122.343Y48.465
X122.343Y33.225
X123.613Y47.139
X123.613Y31.919
X124.883Y48.465
X124.883Y33.225
X126.153Y47.139
X126.153Y31.919
X127.423Y48.465
X127.423Y33.225
X128.693Y47.139
X128.693Y31.919
X129.963Y48.465
X129.963Y33.225
X131.233Y47.139
X131.233Y31.919
X132.503Y48.465
X132.503Y33.225
X133.773Y47.139
X133.773Y31.919
X135.043Y48.465
X135.043Y33.225
X136.313Y47.139
X136.313Y31.919
X137.583Y48.465
X137.583Y33.225
X138.853Y47.139
X138.853Y31.919
X140.123Y48.465
X140.123Y33.225
X141.393Y47.139
X141.393Y31.919
X142.663Y48.465
X142.663Y33.225
X143.933Y47.139
X143.933Y31.919
X145.203Y48.465
X145.203Y33.225
X146.473Y47.139
X146.473Y31.919
X147.743Y48.465
X147.743Y33.225
X149.013Y47.139
X149.013Y31.919
X150.283Y48.465
X150.283Y33.225
X151.553Y47.139
X151.553Y31.919
X152.823Y48.465
X152.823Y48.465
X152.823Y33.225
X152.823Y33.225
X154.093Y47.139
X154.093Y47.139
X154.093Y31.919
X154.093Y31.919
X17.075Y57.135
X17.075Y49.515
X17.075Y19.135
X17.075Y11.515
X134.285Y18.575
X139.365Y18.575
X96.325Y69.635
X96.325Y62.015
X17.075Y76.385
X17.075Y68.765
X119.525Y1.73
X126.125Y-2.08
X55.075Y37.135
X55.075Y29.515
X20.075Y76.385
X20.075Y68.765
X20.075Y38.135
X20.075Y30.515
T4
X80.175Y82.612
X85.275Y80.612
X90.375Y82.612
X61.125Y30.225
X66.225Y28.225
X71.325Y30.225
X42.075Y44.512
X47.175Y42.512
X52.275Y44.512
X3.975Y49.275
X9.075Y47.275
X14.175Y49.275
X99.225Y20.7
X104.325Y18.7
X109.425Y20.7
X80.175Y44.512
X85.275Y42.512
X90.375Y44.512
X42.075Y63.562
X47.175Y61.562
X52.275Y63.562
X23.025Y68.325
X28.125Y66.325
X33.225Y68.325
X94.462Y1.65
X99.562Y-0.35
X104.662Y1.65
X3.975Y11.175
X9.075Y9.175
X14.175Y11.175
X80.175Y63.562
X85.275Y61.562
X90.375Y63.562
X61.125Y87.375
X66.225Y85.375
X71.325Y87.375
X127.652Y0.458
X131.935Y3.875
X132.752Y9.292
X42.075Y25.462
X47.175Y23.462
X52.275Y25.462
X23.025Y30.225
X28.125Y28.225
X33.225Y30.225
X99.225Y77.85
X104.325Y75.85
X109.425Y77.85
X3.975Y30.225
X9.075Y28.225
X14.175Y30.225
X80.175Y25.462
X85.275Y23.462
X90.375Y25.462
X61.125Y49.275
X66.225Y47.275
X71.325Y49.275
X23.025Y49.275
X28.125Y47.275
X33.225Y49.275
X3.975Y68.325
X9.075Y66.325
X14.175Y68.325
X75.412Y6.412
X80.513Y4.412
X85.612Y6.412
X99.225Y39.75
X104.325Y37.75
X109.425Y39.75
X139.402Y-17.292
X143.685Y-13.875
X144.502Y-8.458
X61.125Y68.325
X66.225Y66.325
X71.325Y68.325
X42.075Y82.612
X47.175Y80.612
X52.275Y82.612
X118.152Y-16.042
X122.435Y-12.625
X123.252Y-7.208
X23.025Y11.175
X28.125Y9.175
X33.225Y11.175
X99.225Y58.8
X104.325Y56.8
X109.425Y58.8
T5
X147.075Y12.075
X153.575Y12.075
T6
X76.703Y7.772
X77.972Y6.312
X77.972Y5.812
X77.972Y5.232
X83.052Y6.312
X83.052Y5.812
X83.052Y5.232
X84.322Y7.772
X100.515Y41.11
X101.785Y39.65
X101.785Y39.15
X101.785Y38.57
X106.865Y39.65
X106.865Y39.15
X106.865Y38.57
X108.135Y41.11
X138.87Y-15.495
X140.769Y-15.125
X141.202Y-15.375
X141.704Y-15.665
X142.68Y-8.895
X143.309Y-10.725
X143.742Y-10.975
X144.244Y-11.265
X62.415Y69.685
X63.685Y68.225
X63.685Y67.725
X63.685Y67.145
X68.765Y68.225
X68.765Y67.725
X68.765Y67.145
X70.035Y69.685
X43.365Y83.972
X44.635Y82.513
X44.635Y82.013
X44.635Y81.432
X49.715Y82.513
X49.715Y82.013
X49.715Y81.432
X50.985Y83.972
X117.62Y-14.245
X119.519Y-13.875
X119.952Y-14.125
X120.454Y-14.415
X121.43Y-7.645
X122.059Y-9.475
X122.492Y-9.725
X122.994Y-10.015
X24.315Y12.535
X25.585Y11.075
X25.585Y10.575
X25.585Y9.995
X30.665Y11.075
X30.665Y10.575
X30.665Y9.995
X31.935Y12.535
X100.515Y60.16
X101.785Y58.7
X101.785Y58.2
X101.785Y57.62
X106.865Y58.7
X106.865Y58.2
X106.865Y57.62
X108.135Y60.16
X81.465Y83.972
X82.735Y82.513
X82.735Y82.013
X82.735Y81.432
X87.815Y82.513
X87.815Y82.013
X87.815Y81.432
X89.085Y83.972
X62.415Y31.585
X63.685Y30.125
X63.685Y29.625
X63.685Y29.045
X68.765Y30.125
X68.765Y29.625
X68.765Y29.045
X70.035Y31.585
X43.365Y45.872
X44.635Y44.413
X44.635Y43.913
X44.635Y43.332
X49.715Y44.413
X49.715Y43.913
X49.715Y43.332
X50.985Y45.872
X5.265Y50.635
X6.535Y49.175
X6.535Y48.675
X6.535Y48.095
X11.615Y49.175
X11.615Y48.675
X11.615Y48.095
X12.885Y50.635
X100.515Y22.06
X101.785Y20.6
X101.785Y20.1
X101.785Y19.52
X106.865Y20.6
X106.865Y20.1
X106.865Y19.52
X108.135Y22.06
X81.465Y45.872
X82.735Y44.413
X82.735Y43.913
X82.735Y43.332
X87.815Y44.413
X87.815Y43.913
X87.815Y43.332
X89.085Y45.872
X43.365Y64.922
X44.635Y63.462
X44.635Y62.962
X44.635Y62.383
X49.715Y63.462
X49.715Y62.962
X49.715Y62.383
X50.985Y64.922
X24.315Y69.685
X25.585Y68.225
X25.585Y67.725
X25.585Y67.145
X30.665Y68.225
X30.665Y67.725
X30.665Y67.145
X31.935Y69.685
X95.752Y3.01
X97.022Y1.55
X97.022Y1.05
X97.022Y0.47
X102.102Y1.55
X102.102Y1.05
X102.102Y0.47
X103.373Y3.01
X5.265Y12.535
X6.535Y11.075
X6.535Y10.575
X6.535Y9.995
X11.615Y11.075
X11.615Y10.575
X11.615Y9.995
X12.885Y12.535
X81.465Y64.922
X82.735Y63.462
X82.735Y62.962
X82.735Y62.383
X87.815Y63.462
X87.815Y62.962
X87.815Y62.383
X89.085Y64.922
X62.415Y88.735
X63.685Y87.275
X63.685Y86.775
X63.685Y86.195
X68.765Y87.275
X68.765Y86.775
X68.765Y86.195
X70.035Y88.735
X127.12Y2.255
X129.019Y2.625
X129.452Y2.375
X129.954Y2.085
X130.93Y8.855
X131.559Y7.025
X131.992Y6.775
X132.494Y6.485
X43.365Y26.822
X44.635Y25.362
X44.635Y24.862
X44.635Y24.282
X49.715Y25.362
X49.715Y24.862
X49.715Y24.282
X50.985Y26.822
X24.315Y31.585
X25.585Y30.125
X25.585Y29.625
X25.585Y29.045
X30.665Y30.125
X30.665Y29.625
X30.665Y29.045
X31.935Y31.585
X100.515Y79.21
X101.785Y77.75
X101.785Y77.25
X101.785Y76.67
X106.865Y77.75
X106.865Y77.25
X106.865Y76.67
X108.135Y79.21
X5.265Y31.585
X6.535Y30.125
X6.535Y29.625
X6.535Y29.045
X11.615Y30.125
X11.615Y29.625
X11.615Y29.045
X12.885Y31.585
X81.465Y26.822
X82.735Y25.362
X82.735Y24.862
X82.735Y24.282
X87.815Y25.362
X87.815Y24.862
X87.815Y24.282
X89.085Y26.822
X62.415Y50.635
X63.685Y49.175
X63.685Y48.675
X63.685Y48.095
X68.765Y49.175
X68.765Y48.675
X68.765Y48.095
X70.035Y50.635
X24.315Y50.635
X25.585Y49.175
X25.585Y48.675
X25.585Y48.095
X30.665Y49.175
X30.665Y48.675
X30.665Y48.095
X31.935Y50.635
X5.265Y69.685
X6.535Y68.225
X6.535Y67.725
X6.535Y67.145
X11.615Y68.225
X11.615Y67.725
X11.615Y67.145
X12.885Y69.685
T3
X142.775Y20.175G85X142.275Y20.175
G05
X142.775Y17.725G85X142.275Y17.725
G05
X144.275Y21.925G85X143.775Y21.925
G05
X144.275Y15.975G85X143.775Y15.975
G05
X148.275Y21.925G85X147.775Y21.925
G05
X148.275Y15.975G85X147.775Y15.975
G05
X151.275Y21.925G85X150.775Y21.925
G05
X151.275Y15.975G85X150.775Y15.975
G05
T0
M30
