G04 #@! TF.GenerationSoftware,KiCad,Pcbnew,(5.0.1)-3*
G04 #@! TF.CreationDate,2019-04-04T15:30:50+09:00*
G04 #@! TF.ProjectId,yosino58,796F73696E6F35382E6B696361645F70,rev?*
G04 #@! TF.SameCoordinates,PX2781868PY76cdd18*
G04 #@! TF.FileFunction,Profile,NP*
%FSLAX46Y46*%
G04 Gerber Fmt 4.6, Leading zero omitted, Abs format (unit mm)*
G04 Created by KiCad (PCBNEW (5.0.1)-3) date 2019/04/04 15:30:50*
%MOMM*%
%LPD*%
G01*
G04 APERTURE LIST*
%ADD10C,0.200000*%
%ADD11C,0.150000*%
G04 #@! TA.AperFunction,NonConductor*
%ADD12C,0.150000*%
G04 #@! TD*
G04 APERTURE END LIST*
D10*
X108729Y-1268735D02*
X130289Y-1293901D01*
X87168Y-1243569D02*
X108729Y-1268735D01*
X65608Y-1218403D02*
X87168Y-1243569D01*
X44048Y-1193237D02*
X65608Y-1218403D01*
X22487Y-1168071D02*
X44048Y-1193237D01*
X927Y-1142905D02*
X22487Y-1168071D01*
X-20633Y-1117739D02*
X927Y-1142905D01*
X-42194Y-1092573D02*
X-20633Y-1117739D01*
X-63754Y-1067407D02*
X-42194Y-1092573D01*
X-85315Y-1042241D02*
X-63754Y-1067407D01*
X-106875Y-1017075D02*
X-85315Y-1042241D01*
X-128435Y-991909D02*
X-106875Y-1017075D01*
X-149996Y-966743D02*
X-128435Y-991909D01*
X-171556Y-941577D02*
X-149996Y-966743D01*
X-193116Y-916411D02*
X-171556Y-941577D01*
X-214677Y-891245D02*
X-193116Y-916411D01*
X-236237Y-866079D02*
X-214677Y-891245D01*
X-257797Y-840913D02*
X-236237Y-866079D01*
X-279358Y-815747D02*
X-257797Y-840913D01*
X-300918Y-790581D02*
X-279358Y-815747D01*
X-322479Y-765415D02*
X-300918Y-790581D01*
X-344039Y-740249D02*
X-322479Y-765415D01*
X-365599Y-715082D02*
X-344039Y-740249D01*
X-387160Y-689916D02*
X-365599Y-715082D01*
X-408720Y-664750D02*
X-387160Y-689916D01*
X-430280Y-639584D02*
X-408720Y-664750D01*
X-444913Y-612050D02*
X-430280Y-639584D01*
X-459545Y-584516D02*
X-444913Y-612050D01*
X-474177Y-556982D02*
X-459545Y-584516D01*
X-488809Y-529449D02*
X-474177Y-556982D01*
X-503441Y-501915D02*
X-488809Y-529449D01*
X-518074Y-474381D02*
X-503441Y-501915D01*
X-532706Y-446847D02*
X-518074Y-474381D01*
X-547338Y-419313D02*
X-532706Y-446847D01*
X-561970Y-391779D02*
X-547338Y-419313D01*
X-576602Y-364245D02*
X-561970Y-391779D01*
X-591234Y-336711D02*
X-576602Y-364245D01*
X-605867Y-309177D02*
X-591234Y-336711D01*
X-620499Y-281643D02*
X-605867Y-309177D01*
X-635131Y-254109D02*
X-620499Y-281643D01*
X-649763Y-226575D02*
X-635131Y-254109D01*
X-664395Y-199041D02*
X-649763Y-226575D01*
X-679028Y-171507D02*
X-664395Y-199041D01*
X-693660Y-143973D02*
X-679028Y-171507D01*
X-708292Y-116439D02*
X-693660Y-143973D01*
X-722924Y-88905D02*
X-708292Y-116439D01*
X-737556Y-61371D02*
X-722924Y-88905D01*
X-752189Y-33837D02*
X-737556Y-61371D01*
X-766821Y-6303D02*
X-752189Y-33837D01*
X-781453Y21231D02*
X-766821Y-6303D01*
X-796085Y48765D02*
X-781453Y21231D01*
X-810717Y76299D02*
X-796085Y48765D01*
X-825350Y103833D02*
X-810717Y76299D01*
X-839982Y131367D02*
X-825350Y103833D01*
X-854614Y158901D02*
X-839982Y131367D01*
X-869246Y186435D02*
X-854614Y158901D01*
X-883878Y213969D02*
X-869246Y186435D01*
X-898511Y241503D02*
X-883878Y213969D01*
X-907442Y266832D02*
X-898511Y241503D01*
X-916374Y292161D02*
X-907442Y266832D01*
X-925306Y317490D02*
X-916374Y292161D01*
X-934237Y342819D02*
X-925306Y317490D01*
X-943169Y368148D02*
X-934237Y342819D01*
X-952100Y393477D02*
X-943169Y368148D01*
X-961032Y418805D02*
X-952100Y393477D01*
X-969964Y444134D02*
X-961032Y418805D01*
X-978895Y469463D02*
X-969964Y444134D01*
X-987827Y494792D02*
X-978895Y469463D01*
X-996759Y520121D02*
X-987827Y494792D01*
X-1005690Y545450D02*
X-996759Y520121D01*
X-1014622Y570779D02*
X-1005690Y545450D01*
X-1023554Y596108D02*
X-1014622Y570779D01*
X-1032485Y621437D02*
X-1023554Y596108D01*
X-1041417Y646766D02*
X-1032485Y621437D01*
X-1050349Y672095D02*
X-1041417Y646766D01*
X-1059280Y697424D02*
X-1050349Y672095D01*
X-1068212Y722753D02*
X-1059280Y697424D01*
X-1077144Y748082D02*
X-1068212Y722753D01*
X-1086075Y773411D02*
X-1077144Y748082D01*
X-1095007Y798740D02*
X-1086075Y773411D01*
X-1103938Y824069D02*
X-1095007Y798740D01*
X-1112870Y849397D02*
X-1103938Y824069D01*
X-1121802Y874726D02*
X-1112870Y849397D01*
X-1130733Y900055D02*
X-1121802Y874726D01*
X-1139665Y925384D02*
X-1130733Y900055D01*
X-1148597Y950713D02*
X-1139665Y925384D01*
X-1157528Y976042D02*
X-1148597Y950713D01*
X-1166460Y1001371D02*
X-1157528Y976042D01*
X-1175392Y1026700D02*
X-1166460Y1001371D01*
X-1184323Y1052029D02*
X-1175392Y1026700D01*
X-1188782Y1070580D02*
X-1184323Y1052029D01*
X-1193241Y1089131D02*
X-1188782Y1070580D01*
X-1197700Y1107682D02*
X-1193241Y1089131D01*
X-1202158Y1126233D02*
X-1197700Y1107682D01*
X-1206617Y1144783D02*
X-1202158Y1126233D01*
X-1211076Y1163334D02*
X-1206617Y1144783D01*
X-1215534Y1181885D02*
X-1211076Y1163334D01*
X-1219993Y1200436D02*
X-1215534Y1181885D01*
X-1224452Y1218987D02*
X-1219993Y1200436D01*
X-1228911Y1237538D02*
X-1224452Y1218987D01*
X-1233369Y1256089D02*
X-1228911Y1237538D01*
X-1237828Y1274640D02*
X-1233369Y1256089D01*
X-1242287Y1293191D02*
X-1237828Y1274640D01*
X-1246746Y1311742D02*
X-1242287Y1293191D01*
X-1251204Y1330292D02*
X-1246746Y1311742D01*
X-1255663Y1348843D02*
X-1251204Y1330292D01*
X-1260122Y1367394D02*
X-1255663Y1348843D01*
X-1264580Y1385945D02*
X-1260122Y1367394D01*
X-1269039Y1404496D02*
X-1264580Y1385945D01*
X-1273498Y1423047D02*
X-1269039Y1404496D01*
X-1277957Y1441598D02*
X-1273498Y1423047D01*
X-1282415Y1460149D02*
X-1277957Y1441598D01*
X-1286874Y1478700D02*
X-1282415Y1460149D01*
X-1291333Y1497251D02*
X-1286874Y1478700D01*
X-1295792Y1515801D02*
X-1291333Y1497251D01*
X-1300250Y1534352D02*
X-1295792Y1515801D01*
X-1304709Y1552903D02*
X-1300250Y1534352D01*
X-1309168Y1571454D02*
X-1304709Y1552903D01*
X-1313627Y1590005D02*
X-1309168Y1571454D01*
X-1318085Y1608556D02*
X-1313627Y1590005D01*
X-1322544Y1627107D02*
X-1318085Y1608556D01*
X-1327003Y1645658D02*
X-1322544Y1627107D01*
X-1328216Y1652858D02*
X-1327003Y1645658D01*
X-1329430Y1660057D02*
X-1328216Y1652858D01*
X-1330643Y1667257D02*
X-1329430Y1660057D01*
X-1331856Y1674457D02*
X-1330643Y1667257D01*
X-1333070Y1681657D02*
X-1331856Y1674457D01*
X-1334283Y1688857D02*
X-1333070Y1681657D01*
X-1335497Y1696057D02*
X-1334283Y1688857D01*
X-1336710Y1703257D02*
X-1335497Y1696057D01*
X-1337924Y1710456D02*
X-1336710Y1703257D01*
X-1339137Y1717656D02*
X-1337924Y1710456D01*
X-1340351Y1724856D02*
X-1339137Y1717656D01*
X-1341564Y1732056D02*
X-1340351Y1724856D01*
X-1342777Y1739256D02*
X-1341564Y1732056D01*
X-1343991Y1746456D02*
X-1342777Y1739256D01*
X-1345204Y1753656D02*
X-1343991Y1746456D01*
X-1346418Y1760855D02*
X-1345204Y1753656D01*
X-1347631Y1768055D02*
X-1346418Y1760855D01*
X-1348845Y1775255D02*
X-1347631Y1768055D01*
X-1350058Y1782455D02*
X-1348845Y1775255D01*
X-1351271Y1789655D02*
X-1350058Y1782455D01*
X-1352485Y1796855D02*
X-1351271Y1789655D01*
X-1353698Y1804055D02*
X-1352485Y1796855D01*
X-1354912Y1811254D02*
X-1353698Y1804055D01*
X-1356125Y1818454D02*
X-1354912Y1811254D01*
X-1357339Y1825654D02*
X-1356125Y1818454D01*
X-1358552Y1832854D02*
X-1357339Y1825654D01*
X-1359766Y1840054D02*
X-1358552Y1832854D01*
X-1360979Y1847254D02*
X-1359766Y1840054D01*
X-1362192Y1854454D02*
X-1360979Y1847254D01*
X-1363406Y1861653D02*
X-1362192Y1854454D01*
X-1364619Y1868853D02*
X-1363406Y1861653D01*
X-1365833Y1876053D02*
X-1364619Y1868853D01*
X-1365833Y1907885D02*
X-1365833Y1893005D01*
X-1365833Y1922765D02*
X-1365833Y1907885D01*
X-1365833Y1937645D02*
X-1365833Y1922765D01*
X-1365833Y1952525D02*
X-1365833Y1937645D01*
X-1365833Y1967406D02*
X-1365833Y1952525D01*
X-1365833Y1982286D02*
X-1365833Y1967406D01*
X-1365833Y1997166D02*
X-1365833Y1982286D01*
X-1365833Y2012046D02*
X-1365833Y1997166D01*
X-1365833Y2026926D02*
X-1365833Y2012046D01*
X-1365833Y2041806D02*
X-1365833Y2026926D01*
X-1365833Y2056687D02*
X-1365833Y2041806D01*
X-1365833Y2071567D02*
X-1365833Y2056687D01*
X-1365833Y2086447D02*
X-1365833Y2071567D01*
X-1365833Y2101327D02*
X-1365833Y2086447D01*
X-1365833Y2116207D02*
X-1365833Y2101327D01*
X-1365833Y2131087D02*
X-1365833Y2116207D01*
X-1365833Y2145968D02*
X-1365833Y2131087D01*
X-1365833Y2160848D02*
X-1365833Y2145968D01*
X-1365833Y2175728D02*
X-1365833Y2160848D01*
X-1365833Y2190608D02*
X-1365833Y2175728D01*
X-1365833Y2205488D02*
X-1365833Y2190608D01*
X-1365833Y2220368D02*
X-1365833Y2205488D01*
X-1365833Y2235249D02*
X-1365833Y2220368D01*
X-1365833Y2250129D02*
X-1365833Y2235249D01*
X-1365833Y2265009D02*
X-1365833Y2250129D01*
X-1365833Y2279889D02*
X-1365833Y2265009D01*
X-1365833Y2294769D02*
X-1365833Y2279889D01*
X-1365833Y2309649D02*
X-1365833Y2294769D01*
X-1365833Y2324530D02*
X-1365833Y2309649D01*
X-1365833Y2339410D02*
X-1365833Y2324530D01*
X-1365833Y2354290D02*
X-1365833Y2339410D01*
X-1365833Y2369170D02*
X-1365833Y2354290D01*
X-1365833Y2384343D02*
X-1365833Y2369170D01*
X-1365833Y2399517D02*
X-1365833Y2384343D01*
X-1365833Y2414690D02*
X-1365833Y2399517D01*
X-1365833Y2429863D02*
X-1365833Y2414690D01*
X-1365833Y2445037D02*
X-1365833Y2429863D01*
X-1365833Y2460210D02*
X-1365833Y2445037D01*
X-1365833Y2475383D02*
X-1365833Y2460210D01*
X-1365833Y2490556D02*
X-1365833Y2475383D01*
X-1365833Y2505730D02*
X-1365833Y2490556D01*
X-1365833Y2520903D02*
X-1365833Y2505730D01*
X-1365833Y2536076D02*
X-1365833Y2520903D01*
X-1365833Y2551249D02*
X-1365833Y2536076D01*
X-1365833Y2566423D02*
X-1365833Y2551249D01*
X-1365833Y2581596D02*
X-1365833Y2566423D01*
X-1365833Y2596769D02*
X-1365833Y2581596D01*
X-1365833Y2611943D02*
X-1365833Y2596769D01*
X-1365833Y2627116D02*
X-1365833Y2611943D01*
X-1365833Y2642289D02*
X-1365833Y2627116D01*
X-1365833Y2657462D02*
X-1365833Y2642289D01*
X-1365833Y2672636D02*
X-1365833Y2657462D01*
X-1365833Y2687809D02*
X-1365833Y2672636D01*
X-1365833Y2702982D02*
X-1365833Y2687809D01*
X-1365833Y2718156D02*
X-1365833Y2702982D01*
X-1365833Y2733329D02*
X-1365833Y2718156D01*
X-1365833Y2748502D02*
X-1365833Y2733329D01*
X-1365833Y2763675D02*
X-1365833Y2748502D01*
X-1365833Y2778849D02*
X-1365833Y2763675D01*
X-1365833Y2794022D02*
X-1365833Y2778849D01*
X-1365833Y2809195D02*
X-1365833Y2794022D01*
X-1365833Y2824368D02*
X-1365833Y2809195D01*
X-1365833Y2839542D02*
X-1365833Y2824368D01*
X-1365833Y2854715D02*
X-1365833Y2839542D01*
X-1365833Y2867909D02*
X-1365833Y2854715D01*
X-1365833Y2881103D02*
X-1365833Y2867909D01*
X-1365833Y2894297D02*
X-1365833Y2881103D01*
X-1365833Y2907491D02*
X-1365833Y2894297D01*
X-1365833Y2920685D02*
X-1365833Y2907491D01*
X-1365833Y2933880D02*
X-1365833Y2920685D01*
X-1365833Y2947074D02*
X-1365833Y2933880D01*
X-1365833Y2960268D02*
X-1365833Y2947074D01*
X-1365833Y2973462D02*
X-1365833Y2960268D01*
X-1365833Y2986656D02*
X-1365833Y2973462D01*
X-1365833Y2999850D02*
X-1365833Y2986656D01*
X-1365833Y3013044D02*
X-1365833Y2999850D01*
X-1365833Y3026238D02*
X-1365833Y3013044D01*
X-1365833Y3039432D02*
X-1365833Y3026238D01*
X-1365833Y3052626D02*
X-1365833Y3039432D01*
X-1365833Y3065820D02*
X-1365833Y3052626D01*
X-1365833Y3079015D02*
X-1365833Y3065820D01*
X-1365833Y3092209D02*
X-1365833Y3079015D01*
X-1365833Y3105403D02*
X-1365833Y3092209D01*
X-1365833Y3118597D02*
X-1365833Y3105403D01*
X-1365833Y3131791D02*
X-1365833Y3118597D01*
X-1365833Y3144985D02*
X-1365833Y3131791D01*
X-1365833Y3158179D02*
X-1365833Y3144985D01*
X-1365833Y3171373D02*
X-1365833Y3158179D01*
X-1365833Y3184567D02*
X-1365833Y3171373D01*
X-1365833Y3197761D02*
X-1365833Y3184567D01*
X-1365833Y3210956D02*
X-1365833Y3197761D01*
X-1365833Y3224150D02*
X-1365833Y3210956D01*
X-1365833Y3237344D02*
X-1365833Y3224150D01*
X-1365833Y3250538D02*
X-1365833Y3237344D01*
X-1365833Y3263732D02*
X-1365833Y3250538D01*
X-1365833Y3276926D02*
X-1365833Y3263732D01*
X-1365833Y3285869D02*
X-1365833Y3276926D01*
X-1365833Y3294811D02*
X-1365833Y3285869D01*
X-1365833Y3303754D02*
X-1365833Y3294811D01*
X-1365833Y3312696D02*
X-1365833Y3303754D01*
X-1365833Y3321639D02*
X-1365833Y3312696D01*
X-1365833Y3330582D02*
X-1365833Y3321639D01*
X-1365833Y3339524D02*
X-1365833Y3330582D01*
X-1365833Y3348467D02*
X-1365833Y3339524D01*
X-1365833Y3357409D02*
X-1365833Y3348467D01*
X-1365833Y3366352D02*
X-1365833Y3357409D01*
X-1365833Y3375295D02*
X-1365833Y3366352D01*
X-1365833Y3384237D02*
X-1365833Y3375295D01*
X-1365833Y3393180D02*
X-1365833Y3384237D01*
X-1365833Y3402123D02*
X-1365833Y3393180D01*
X-1365833Y3411065D02*
X-1365833Y3402123D01*
X-1365833Y3420008D02*
X-1365833Y3411065D01*
X-1365833Y3428950D02*
X-1365833Y3420008D01*
X-1365833Y3437893D02*
X-1365833Y3428950D01*
X-1365833Y3446836D02*
X-1365833Y3437893D01*
X-1365833Y3455778D02*
X-1365833Y3446836D01*
X-1365833Y3464721D02*
X-1365833Y3455778D01*
X-1365833Y3473663D02*
X-1365833Y3464721D01*
X-1365833Y3482606D02*
X-1365833Y3473663D01*
X-1365833Y3491549D02*
X-1365833Y3482606D01*
X-1365833Y3500491D02*
X-1365833Y3491549D01*
X-1365833Y3509434D02*
X-1365833Y3500491D01*
X-1365833Y3518377D02*
X-1365833Y3509434D01*
X-1365833Y3527319D02*
X-1365833Y3518377D01*
X-1365833Y3536262D02*
X-1365833Y3527319D01*
X-1365833Y3545204D02*
X-1365833Y3536262D01*
X-1365833Y3554147D02*
X-1365833Y3545204D01*
X-1365833Y3563090D02*
X-1365833Y3554147D01*
X-1365833Y3565508D02*
X-1365833Y3563090D01*
X-1365833Y3567927D02*
X-1365833Y3565508D01*
X-1365833Y3570346D02*
X-1365833Y3567927D01*
X-1365833Y3572765D02*
X-1365833Y3570346D01*
X-1365833Y3575184D02*
X-1365833Y3572765D01*
X-1365833Y3577603D02*
X-1365833Y3575184D01*
X-1365833Y3580022D02*
X-1365833Y3577603D01*
X-1365833Y3582440D02*
X-1365833Y3580022D01*
X-1365833Y3584859D02*
X-1365833Y3582440D01*
X-1365833Y3587278D02*
X-1365833Y3584859D01*
X-1365833Y3589697D02*
X-1365833Y3587278D01*
X-1365833Y3592116D02*
X-1365833Y3589697D01*
X-1365833Y3594535D02*
X-1365833Y3592116D01*
X-1365833Y3596953D02*
X-1365833Y3594535D01*
X-1365833Y3599372D02*
X-1365833Y3596953D01*
X-1365833Y3601791D02*
X-1365833Y3599372D01*
X-1365833Y3604210D02*
X-1365833Y3601791D01*
X-1365833Y3606629D02*
X-1365833Y3604210D01*
X-1365833Y3609048D02*
X-1365833Y3606629D01*
X-1365833Y3611467D02*
X-1365833Y3609048D01*
X-1365833Y3613885D02*
X-1365833Y3611467D01*
X-1365833Y3616304D02*
X-1365833Y3613885D01*
X-1365833Y3618723D02*
X-1365833Y3616304D01*
X-1365833Y3621142D02*
X-1365833Y3618723D01*
X-1365833Y3623561D02*
X-1365833Y3621142D01*
X-1365833Y3625980D02*
X-1365833Y3623561D01*
X-1365833Y3628398D02*
X-1365833Y3625980D01*
X-1365833Y3630817D02*
X-1365833Y3628398D01*
X-1365833Y3633236D02*
X-1365833Y3630817D01*
X-1365833Y3635655D02*
X-1365833Y3633236D01*
X-1365833Y3638074D02*
X-1365833Y3635655D01*
X-1365833Y3640493D02*
X-1365833Y3638074D01*
X-1365833Y3634115D02*
X-1365833Y3640493D01*
X-1365833Y3627738D02*
X-1365833Y3634115D01*
X-1365833Y3621361D02*
X-1365833Y3627738D01*
X-1365833Y3614984D02*
X-1365833Y3621361D01*
X-1365833Y3608607D02*
X-1365833Y3614984D01*
X-1365833Y3602229D02*
X-1365833Y3608607D01*
X-1365833Y3595852D02*
X-1365833Y3602229D01*
X-1365833Y3589475D02*
X-1365833Y3595852D01*
X-1365833Y3583098D02*
X-1365833Y3589475D01*
X-1365833Y3576721D02*
X-1365833Y3583098D01*
X-1365833Y3570343D02*
X-1365833Y3576721D01*
X-1365833Y3563966D02*
X-1365833Y3570343D01*
X-1365833Y3557589D02*
X-1365833Y3563966D01*
X-1365833Y3551212D02*
X-1365833Y3557589D01*
X-1365833Y3544834D02*
X-1365833Y3551212D01*
X-1365833Y3538457D02*
X-1365833Y3544834D01*
X-1365833Y3532080D02*
X-1365833Y3538457D01*
X-1365833Y3525703D02*
X-1365833Y3532080D01*
X-1365833Y3519326D02*
X-1365833Y3525703D01*
X-1365833Y3512948D02*
X-1365833Y3519326D01*
X-1365833Y3506571D02*
X-1365833Y3512948D01*
X-1365833Y3500194D02*
X-1365833Y3506571D01*
X-1365833Y3493817D02*
X-1365833Y3500194D01*
X-1365833Y3487439D02*
X-1365833Y3493817D01*
X-1365833Y3481062D02*
X-1365833Y3487439D01*
X-1365833Y3474685D02*
X-1365833Y3481062D01*
X-1365833Y3468308D02*
X-1365833Y3474685D01*
X-1365833Y3461931D02*
X-1365833Y3468308D01*
X-1365833Y3455553D02*
X-1365833Y3461931D01*
X-1365833Y3449176D02*
X-1365833Y3455553D01*
X-1365833Y3442799D02*
X-1365833Y3449176D01*
X-1365833Y3436422D02*
X-1365833Y3442799D01*
X-1365833Y3418976D02*
X-1365833Y3436422D01*
X-1365833Y3401531D02*
X-1365833Y3418976D01*
X-1365833Y3384085D02*
X-1365833Y3401531D01*
X-1365833Y3366639D02*
X-1365833Y3384085D01*
X-1365833Y3349194D02*
X-1365833Y3366639D01*
X-1365833Y3331748D02*
X-1365833Y3349194D01*
X-1365833Y3314303D02*
X-1365833Y3331748D01*
X-1365833Y3296857D02*
X-1365833Y3314303D01*
X-1365833Y3279412D02*
X-1365833Y3296857D01*
X-1365833Y3261966D02*
X-1365833Y3279412D01*
X-1365833Y3244521D02*
X-1365833Y3261966D01*
X-1365833Y3227075D02*
X-1365833Y3244521D01*
X-1365833Y3209629D02*
X-1365833Y3227075D01*
X-1365833Y3192184D02*
X-1365833Y3209629D01*
X-1365833Y3174738D02*
X-1365833Y3192184D01*
X-1365833Y3157293D02*
X-1365833Y3174738D01*
X-1365833Y3139847D02*
X-1365833Y3157293D01*
X-1365833Y3122402D02*
X-1365833Y3139847D01*
X-1365833Y3104956D02*
X-1365833Y3122402D01*
X-1365833Y3087510D02*
X-1365833Y3104956D01*
X-1365833Y3070065D02*
X-1365833Y3087510D01*
X-1365833Y3052619D02*
X-1365833Y3070065D01*
X-1365833Y3035174D02*
X-1365833Y3052619D01*
X-1365833Y3017728D02*
X-1365833Y3035174D01*
X-1365833Y3000283D02*
X-1365833Y3017728D01*
X-1365833Y2982837D02*
X-1365833Y3000283D01*
X-1365833Y2965391D02*
X-1365833Y2982837D01*
X-1365833Y2947946D02*
X-1365833Y2965391D01*
X-1365833Y2930500D02*
X-1365833Y2947946D01*
X-1365833Y2913055D02*
X-1365833Y2930500D01*
X-1365833Y2895609D02*
X-1365833Y2913055D01*
X-1365833Y2878164D02*
X-1365833Y2895609D01*
X-1365833Y2847377D02*
X-1365833Y2878164D01*
X-1365833Y2816591D02*
X-1365833Y2847377D01*
X-1365833Y2785805D02*
X-1365833Y2816591D01*
X-1365833Y2755019D02*
X-1365833Y2785805D01*
X-1365833Y2724232D02*
X-1365833Y2755019D01*
X-1365833Y2693446D02*
X-1365833Y2724232D01*
X-1365833Y2662660D02*
X-1365833Y2693446D01*
X-1365833Y2631874D02*
X-1365833Y2662660D01*
X-1365833Y2601088D02*
X-1365833Y2631874D01*
X-1365833Y2570301D02*
X-1365833Y2601088D01*
X-1365833Y2539515D02*
X-1365833Y2570301D01*
X-1365833Y2508729D02*
X-1365833Y2539515D01*
X-1365833Y2477943D02*
X-1365833Y2508729D01*
X-1365833Y2447157D02*
X-1365833Y2477943D01*
X-1365833Y2416370D02*
X-1365833Y2447157D01*
X-1365833Y2385584D02*
X-1365833Y2416370D01*
X-1365833Y2354798D02*
X-1365833Y2385584D01*
X-1365833Y2324012D02*
X-1365833Y2354798D01*
X-1365833Y2293226D02*
X-1365833Y2324012D01*
X-1365833Y2262439D02*
X-1365833Y2293226D01*
X-1365833Y2231653D02*
X-1365833Y2262439D01*
X-1365833Y2200867D02*
X-1365833Y2231653D01*
X-1365833Y2170081D02*
X-1365833Y2200867D01*
X-1365833Y2139294D02*
X-1365833Y2170081D01*
X-1365833Y2108508D02*
X-1365833Y2139294D01*
X-1365833Y2077722D02*
X-1365833Y2108508D01*
X-1365833Y2046936D02*
X-1365833Y2077722D01*
X-1365833Y2016150D02*
X-1365833Y2046936D01*
X-1365833Y1985363D02*
X-1365833Y2016150D01*
X-1365833Y1954577D02*
X-1365833Y1985363D01*
X-1365833Y1923791D02*
X-1365833Y1954577D01*
X-1365833Y1893005D02*
X-1365833Y1923791D01*
X-1365833Y77232375D02*
X-1365833Y77232375D01*
X-1365833Y2187299D02*
X-1365833Y1893005D01*
X-1365833Y2481594D02*
X-1365833Y2187299D01*
X-1365833Y2775888D02*
X-1365833Y2481594D01*
X-1365833Y3070182D02*
X-1365833Y2775888D01*
X-1365833Y3364477D02*
X-1365833Y3070182D01*
X-1365833Y3658771D02*
X-1365833Y3364477D01*
X-1365833Y3953066D02*
X-1365833Y3658771D01*
X-1365833Y4247360D02*
X-1365833Y3953066D01*
X-1365833Y4541654D02*
X-1365833Y4247360D01*
X-1365833Y4835949D02*
X-1365833Y4541654D01*
X-1365833Y5130243D02*
X-1365833Y4835949D01*
X-1365833Y5424538D02*
X-1365833Y5130243D01*
X-1365833Y5718832D02*
X-1365833Y5424538D01*
X-1365833Y6013127D02*
X-1365833Y5718832D01*
X-1365833Y6307421D02*
X-1365833Y6013127D01*
X-1365833Y6601715D02*
X-1365833Y6307421D01*
X-1365833Y6896010D02*
X-1365833Y6601715D01*
X-1365833Y7190304D02*
X-1365833Y6896010D01*
X-1365833Y7484599D02*
X-1365833Y7190304D01*
X-1365833Y7778893D02*
X-1365833Y7484599D01*
X-1365833Y8073187D02*
X-1365833Y7778893D01*
X-1365833Y8367482D02*
X-1365833Y8073187D01*
X-1365833Y8661776D02*
X-1365833Y8367482D01*
X-1365833Y8956071D02*
X-1365833Y8661776D01*
X-1365833Y9250365D02*
X-1365833Y8956071D01*
X-1365833Y9544660D02*
X-1365833Y9250365D01*
X-1365833Y9838954D02*
X-1365833Y9544660D01*
X-1365833Y10133248D02*
X-1365833Y9838954D01*
X-1365833Y10427543D02*
X-1365833Y10133248D01*
X-1365833Y10721837D02*
X-1365833Y10427543D01*
X-1365833Y11016132D02*
X-1365833Y10721837D01*
X-1365833Y11310426D02*
X-1365833Y11016132D01*
X-1365833Y11604720D02*
X-1365833Y11310426D01*
X-1365833Y11899015D02*
X-1365833Y11604720D01*
X-1365833Y12193309D02*
X-1365833Y11899015D01*
X-1365833Y12487604D02*
X-1365833Y12193309D01*
X-1365833Y12781898D02*
X-1365833Y12487604D01*
X-1365833Y13076193D02*
X-1365833Y12781898D01*
X-1365833Y13370487D02*
X-1365833Y13076193D01*
X-1365833Y13664781D02*
X-1365833Y13370487D01*
X-1365833Y13959076D02*
X-1365833Y13664781D01*
X-1365833Y14253370D02*
X-1365833Y13959076D01*
X-1365833Y14547665D02*
X-1365833Y14253370D01*
X-1365833Y14841959D02*
X-1365833Y14547665D01*
X-1365833Y15136253D02*
X-1365833Y14841959D01*
X-1365833Y15430548D02*
X-1365833Y15136253D01*
X-1365833Y15724842D02*
X-1365833Y15430548D01*
X-1365833Y16019137D02*
X-1365833Y15724842D01*
X-1365833Y16313431D02*
X-1365833Y16019137D01*
X-1365833Y16607725D02*
X-1365833Y16313431D01*
X-1365833Y16902020D02*
X-1365833Y16607725D01*
X-1365833Y17196314D02*
X-1365833Y16902020D01*
X-1365833Y17490609D02*
X-1365833Y17196314D01*
X-1365833Y17784903D02*
X-1365833Y17490609D01*
X-1365833Y18079198D02*
X-1365833Y17784903D01*
X-1365833Y18373492D02*
X-1365833Y18079198D01*
X-1365833Y18667786D02*
X-1365833Y18373492D01*
X-1365833Y18962081D02*
X-1365833Y18667786D01*
X-1365833Y19256375D02*
X-1365833Y18962081D01*
X-1365833Y19550670D02*
X-1365833Y19256375D01*
X-1365833Y19844964D02*
X-1365833Y19550670D01*
X-1365833Y20139258D02*
X-1365833Y19844964D01*
X-1365833Y20433553D02*
X-1365833Y20139258D01*
X-1365833Y20727847D02*
X-1365833Y20433553D01*
X-1365833Y21022142D02*
X-1365833Y20727847D01*
X-1365833Y21316436D02*
X-1365833Y21022142D01*
X-1365833Y21610731D02*
X-1365833Y21316436D01*
X-1365833Y21905025D02*
X-1365833Y21610731D01*
X-1365833Y22199319D02*
X-1365833Y21905025D01*
X-1365833Y22493614D02*
X-1365833Y22199319D01*
X-1365833Y22787908D02*
X-1365833Y22493614D01*
X-1365833Y23082203D02*
X-1365833Y22787908D01*
X-1365833Y23376497D02*
X-1365833Y23082203D01*
X-1365833Y23670791D02*
X-1365833Y23376497D01*
X-1365833Y23965086D02*
X-1365833Y23670791D01*
X-1365833Y24259380D02*
X-1365833Y23965086D01*
X-1365833Y24553675D02*
X-1365833Y24259380D01*
X-1365833Y24847969D02*
X-1365833Y24553675D01*
X-1365833Y25142264D02*
X-1365833Y24847969D01*
X-1365833Y25436558D02*
X-1365833Y25142264D01*
X-1365833Y25730852D02*
X-1365833Y25436558D01*
X-1365833Y26025147D02*
X-1365833Y25730852D01*
X-1365833Y26319441D02*
X-1365833Y26025147D01*
X-1365833Y26613736D02*
X-1365833Y26319441D01*
X-1365833Y26908030D02*
X-1365833Y26613736D01*
X-1365833Y27202324D02*
X-1365833Y26908030D01*
X-1365833Y27496619D02*
X-1365833Y27202324D01*
X-1365833Y27790913D02*
X-1365833Y27496619D01*
X-1365833Y28085208D02*
X-1365833Y27790913D01*
X-1365833Y28379502D02*
X-1365833Y28085208D01*
X-1365833Y28673797D02*
X-1365833Y28379502D01*
X-1365833Y28968091D02*
X-1365833Y28673797D01*
X-1365833Y29262385D02*
X-1365833Y28968091D01*
X-1365833Y29556680D02*
X-1365833Y29262385D01*
X-1365833Y29850974D02*
X-1365833Y29556680D01*
X-1365833Y30145269D02*
X-1365833Y29850974D01*
X-1365833Y30439563D02*
X-1365833Y30145269D01*
X-1365833Y30733857D02*
X-1365833Y30439563D01*
X-1365833Y31028152D02*
X-1365833Y30733857D01*
X-1365833Y31322446D02*
X-1365833Y31028152D01*
X-1365833Y31616741D02*
X-1365833Y31322446D01*
X-1365833Y31911035D02*
X-1365833Y31616741D01*
X-1365833Y32205330D02*
X-1365833Y31911035D01*
X-1365833Y32499624D02*
X-1365833Y32205330D01*
X-1365833Y32793918D02*
X-1365833Y32499624D01*
X-1365833Y33088213D02*
X-1365833Y32793918D01*
X-1365833Y33382507D02*
X-1365833Y33088213D01*
X-1365833Y33676802D02*
X-1365833Y33382507D01*
X-1365833Y33971096D02*
X-1365833Y33676802D01*
X-1365833Y34265390D02*
X-1365833Y33971096D01*
X-1365833Y34559685D02*
X-1365833Y34265390D01*
X-1365833Y34853979D02*
X-1365833Y34559685D01*
X-1365833Y35148274D02*
X-1365833Y34853979D01*
X-1365833Y35442568D02*
X-1365833Y35148274D01*
X-1365833Y35736862D02*
X-1365833Y35442568D01*
X-1365833Y36031157D02*
X-1365833Y35736862D01*
X-1365833Y36325451D02*
X-1365833Y36031157D01*
X-1365833Y36619746D02*
X-1365833Y36325451D01*
X-1365833Y36914040D02*
X-1365833Y36619746D01*
X-1365833Y37208335D02*
X-1365833Y36914040D01*
X-1365833Y37502629D02*
X-1365833Y37208335D01*
X-1365833Y37796923D02*
X-1365833Y37502629D01*
X-1365833Y38091218D02*
X-1365833Y37796923D01*
X-1365833Y38385512D02*
X-1365833Y38091218D01*
X-1365833Y38679807D02*
X-1365833Y38385512D01*
X-1365833Y38974101D02*
X-1365833Y38679807D01*
X-1365833Y39268395D02*
X-1365833Y38974101D01*
X-1365833Y39562690D02*
X-1365833Y39268395D01*
X-1365833Y39856984D02*
X-1365833Y39562690D01*
X-1365833Y40151279D02*
X-1365833Y39856984D01*
X-1365833Y40445573D02*
X-1365833Y40151279D01*
X-1365833Y40739868D02*
X-1365833Y40445573D01*
X-1365833Y41034162D02*
X-1365833Y40739868D01*
X-1365833Y41328456D02*
X-1365833Y41034162D01*
X-1365833Y41622751D02*
X-1365833Y41328456D01*
X-1365833Y41917045D02*
X-1365833Y41622751D01*
X-1365833Y42211340D02*
X-1365833Y41917045D01*
X-1365833Y42505634D02*
X-1365833Y42211340D01*
X-1365833Y42799928D02*
X-1365833Y42505634D01*
X-1365833Y43094223D02*
X-1365833Y42799928D01*
X-1365833Y43388517D02*
X-1365833Y43094223D01*
X-1365833Y43682812D02*
X-1365833Y43388517D01*
X-1365833Y43977106D02*
X-1365833Y43682812D01*
X-1365833Y44271401D02*
X-1365833Y43977106D01*
X-1365833Y44565695D02*
X-1365833Y44271401D01*
X-1365833Y44859989D02*
X-1365833Y44565695D01*
X-1365833Y45154284D02*
X-1365833Y44859989D01*
X-1365833Y45448578D02*
X-1365833Y45154284D01*
X-1365833Y45742873D02*
X-1365833Y45448578D01*
X-1365833Y46037167D02*
X-1365833Y45742873D01*
X-1365833Y46331461D02*
X-1365833Y46037167D01*
X-1365833Y46625756D02*
X-1365833Y46331461D01*
X-1365833Y46920050D02*
X-1365833Y46625756D01*
X-1365833Y47214345D02*
X-1365833Y46920050D01*
X-1365833Y47508639D02*
X-1365833Y47214345D01*
X-1365833Y47802934D02*
X-1365833Y47508639D01*
X-1365833Y48097228D02*
X-1365833Y47802934D01*
X-1365833Y48391522D02*
X-1365833Y48097228D01*
X-1365833Y48685817D02*
X-1365833Y48391522D01*
X-1365833Y48980111D02*
X-1365833Y48685817D01*
X-1365833Y49274406D02*
X-1365833Y48980111D01*
X-1365833Y49568700D02*
X-1365833Y49274406D01*
X-1365833Y49862994D02*
X-1365833Y49568700D01*
X-1365833Y50157289D02*
X-1365833Y49862994D01*
X-1365833Y50451583D02*
X-1365833Y50157289D01*
X-1365833Y50745878D02*
X-1365833Y50451583D01*
X-1365833Y51040172D02*
X-1365833Y50745878D01*
X-1365833Y51334466D02*
X-1365833Y51040172D01*
X-1365833Y51628761D02*
X-1365833Y51334466D01*
X-1365833Y51923055D02*
X-1365833Y51628761D01*
X-1365833Y52217350D02*
X-1365833Y51923055D01*
X-1365833Y52511644D02*
X-1365833Y52217350D01*
X-1365833Y52805939D02*
X-1365833Y52511644D01*
X-1365833Y53100233D02*
X-1365833Y52805939D01*
X-1365833Y53394527D02*
X-1365833Y53100233D01*
X-1365833Y53688822D02*
X-1365833Y53394527D01*
X-1365833Y53983116D02*
X-1365833Y53688822D01*
X-1365833Y54277411D02*
X-1365833Y53983116D01*
X-1365833Y54571705D02*
X-1365833Y54277411D01*
X-1365833Y54865999D02*
X-1365833Y54571705D01*
X-1365833Y55160294D02*
X-1365833Y54865999D01*
X-1365833Y55454588D02*
X-1365833Y55160294D01*
X-1365833Y55748883D02*
X-1365833Y55454588D01*
X-1365833Y56043177D02*
X-1365833Y55748883D01*
X-1365833Y56337472D02*
X-1365833Y56043177D01*
X-1365833Y56631766D02*
X-1365833Y56337472D01*
X-1365833Y56926060D02*
X-1365833Y56631766D01*
X-1365833Y57220355D02*
X-1365833Y56926060D01*
X-1365833Y57514649D02*
X-1365833Y57220355D01*
X-1365833Y57808944D02*
X-1365833Y57514649D01*
X-1365833Y58103238D02*
X-1365833Y57808944D01*
X-1365833Y58397532D02*
X-1365833Y58103238D01*
X-1365833Y58691827D02*
X-1365833Y58397532D01*
X-1365833Y58986121D02*
X-1365833Y58691827D01*
X-1365833Y59280416D02*
X-1365833Y58986121D01*
X-1365833Y59574710D02*
X-1365833Y59280416D01*
X-1365833Y59869005D02*
X-1365833Y59574710D01*
X-1365833Y60163299D02*
X-1365833Y59869005D01*
X-1365833Y60457593D02*
X-1365833Y60163299D01*
X-1365833Y60751888D02*
X-1365833Y60457593D01*
X-1365833Y61046182D02*
X-1365833Y60751888D01*
X-1365833Y61340477D02*
X-1365833Y61046182D01*
X-1365833Y61634771D02*
X-1365833Y61340477D01*
X-1365833Y61929065D02*
X-1365833Y61634771D01*
X-1365833Y62223360D02*
X-1365833Y61929065D01*
X-1365833Y62517654D02*
X-1365833Y62223360D01*
X-1365833Y62811949D02*
X-1365833Y62517654D01*
X-1365833Y63106243D02*
X-1365833Y62811949D01*
X-1365833Y63400538D02*
X-1365833Y63106243D01*
X-1365833Y63694832D02*
X-1365833Y63400538D01*
X-1365833Y63989126D02*
X-1365833Y63694832D01*
X-1365833Y64283421D02*
X-1365833Y63989126D01*
X-1365833Y64577715D02*
X-1365833Y64283421D01*
X-1365833Y64872010D02*
X-1365833Y64577715D01*
X-1365833Y65166304D02*
X-1365833Y64872010D01*
X-1365833Y65460598D02*
X-1365833Y65166304D01*
X-1365833Y65754893D02*
X-1365833Y65460598D01*
X-1365833Y66049187D02*
X-1365833Y65754893D01*
X-1365833Y66343482D02*
X-1365833Y66049187D01*
X-1365833Y66637776D02*
X-1365833Y66343482D01*
X-1365833Y66932070D02*
X-1365833Y66637776D01*
X-1365833Y67226365D02*
X-1365833Y66932070D01*
X-1365833Y67520659D02*
X-1365833Y67226365D01*
X-1365833Y67814954D02*
X-1365833Y67520659D01*
X-1365833Y68109248D02*
X-1365833Y67814954D01*
X-1365833Y68403543D02*
X-1365833Y68109248D01*
X-1365833Y68697837D02*
X-1365833Y68403543D01*
X-1365833Y68992131D02*
X-1365833Y68697837D01*
X-1365833Y69286426D02*
X-1365833Y68992131D01*
X-1365833Y69580720D02*
X-1365833Y69286426D01*
X-1365833Y69875015D02*
X-1365833Y69580720D01*
X-1365833Y70169309D02*
X-1365833Y69875015D01*
X-1365833Y70463603D02*
X-1365833Y70169309D01*
X-1365833Y70757898D02*
X-1365833Y70463603D01*
X-1365833Y71052192D02*
X-1365833Y70757898D01*
X-1365833Y71346487D02*
X-1365833Y71052192D01*
X-1365833Y71640781D02*
X-1365833Y71346487D01*
X-1365833Y71935076D02*
X-1365833Y71640781D01*
X-1365833Y72229370D02*
X-1365833Y71935076D01*
X-1365833Y72523664D02*
X-1365833Y72229370D01*
X-1365833Y72817959D02*
X-1365833Y72523664D01*
X-1365833Y73112253D02*
X-1365833Y72817959D01*
X-1365833Y73406548D02*
X-1365833Y73112253D01*
X-1365833Y73700842D02*
X-1365833Y73406548D01*
X-1365833Y73995136D02*
X-1365833Y73700842D01*
X-1365833Y74289431D02*
X-1365833Y73995136D01*
X-1365833Y74583725D02*
X-1365833Y74289431D01*
X-1365833Y74878020D02*
X-1365833Y74583725D01*
X-1365833Y75172314D02*
X-1365833Y74878020D01*
X-1365833Y75466609D02*
X-1365833Y75172314D01*
X-1365833Y75760903D02*
X-1365833Y75466609D01*
X-1365833Y76055197D02*
X-1365833Y75760903D01*
X-1365833Y76349492D02*
X-1365833Y76055197D01*
X-1365833Y76643786D02*
X-1365833Y76349492D01*
X-1365833Y76938081D02*
X-1365833Y76643786D01*
X-1365833Y77232375D02*
X-1365833Y76938081D01*
X155426606Y78365539D02*
X155428725Y78353996D01*
X155424488Y78377082D02*
X155426606Y78365539D01*
X155422369Y78388625D02*
X155424488Y78377082D01*
X155420251Y78400168D02*
X155422369Y78388625D01*
X155418132Y78411711D02*
X155420251Y78400168D01*
X155416014Y78423254D02*
X155418132Y78411711D01*
X155413896Y78434796D02*
X155416014Y78423254D01*
X155411777Y78446339D02*
X155413896Y78434796D01*
X155409659Y78457882D02*
X155411777Y78446339D01*
X155407540Y78469425D02*
X155409659Y78457882D01*
X155405422Y78480968D02*
X155407540Y78469425D01*
X155403303Y78492511D02*
X155405422Y78480968D01*
X155401185Y78504054D02*
X155403303Y78492511D01*
X155399066Y78515597D02*
X155401185Y78504054D01*
X155396948Y78527139D02*
X155399066Y78515597D01*
X155394829Y78538682D02*
X155396948Y78527139D01*
X155392711Y78550225D02*
X155394829Y78538682D01*
X155390592Y78561768D02*
X155392711Y78550225D01*
X155388474Y78573311D02*
X155390592Y78561768D01*
X155386356Y78584854D02*
X155388474Y78573311D01*
X155384237Y78596397D02*
X155386356Y78584854D01*
X155382119Y78607939D02*
X155384237Y78596397D01*
X155380000Y78619482D02*
X155382119Y78607939D01*
X155377882Y78631025D02*
X155380000Y78619482D01*
X155375763Y78642568D02*
X155377882Y78631025D01*
X155373645Y78654111D02*
X155375763Y78642568D01*
X155369077Y78668232D02*
X155373645Y78654111D01*
X155364509Y78682352D02*
X155369077Y78668232D01*
X155359942Y78696473D02*
X155364509Y78682352D01*
X155355374Y78710593D02*
X155359942Y78696473D01*
X155350806Y78724714D02*
X155355374Y78710593D01*
X155346238Y78738834D02*
X155350806Y78724714D01*
X155341671Y78752955D02*
X155346238Y78738834D01*
X155337103Y78767076D02*
X155341671Y78752955D01*
X155332535Y78781196D02*
X155337103Y78767076D01*
X155327967Y78795317D02*
X155332535Y78781196D01*
X155323400Y78809437D02*
X155327967Y78795317D01*
X155318832Y78823558D02*
X155323400Y78809437D01*
X155314264Y78837678D02*
X155318832Y78823558D01*
X155309697Y78851799D02*
X155314264Y78837678D01*
X155305129Y78865920D02*
X155309697Y78851799D01*
X155300561Y78880040D02*
X155305129Y78865920D01*
X155295993Y78894161D02*
X155300561Y78880040D01*
X155291426Y78908281D02*
X155295993Y78894161D01*
X155286858Y78922402D02*
X155291426Y78908281D01*
X155282290Y78936522D02*
X155286858Y78922402D01*
X155277722Y78950643D02*
X155282290Y78936522D01*
X155273155Y78964764D02*
X155277722Y78950643D01*
X155268587Y78978884D02*
X155273155Y78964764D01*
X155264019Y78993005D02*
X155268587Y78978884D01*
X155259451Y79007125D02*
X155264019Y78993005D01*
X155254884Y79021246D02*
X155259451Y79007125D01*
X155250316Y79035366D02*
X155254884Y79021246D01*
X155245748Y79049487D02*
X155250316Y79035366D01*
X155241181Y79063608D02*
X155245748Y79049487D01*
X155236613Y79077728D02*
X155241181Y79063608D01*
X155232045Y79091849D02*
X155236613Y79077728D01*
X155227477Y79105969D02*
X155232045Y79091849D01*
X155219536Y79121491D02*
X155227477Y79105969D01*
X155211595Y79137013D02*
X155219536Y79121491D01*
X155203654Y79152534D02*
X155211595Y79137013D01*
X155195713Y79168056D02*
X155203654Y79152534D01*
X155187771Y79183578D02*
X155195713Y79168056D01*
X155179830Y79199099D02*
X155187771Y79183578D01*
X155171889Y79214621D02*
X155179830Y79199099D01*
X155163948Y79230143D02*
X155171889Y79214621D01*
X155156007Y79245664D02*
X155163948Y79230143D01*
X155148066Y79261186D02*
X155156007Y79245664D01*
X155140124Y79276708D02*
X155148066Y79261186D01*
X155132183Y79292229D02*
X155140124Y79276708D01*
X155124242Y79307751D02*
X155132183Y79292229D01*
X155116301Y79323273D02*
X155124242Y79307751D01*
X155108360Y79338794D02*
X155116301Y79323273D01*
X155100419Y79354316D02*
X155108360Y79338794D01*
X155092477Y79369838D02*
X155100419Y79354316D01*
X155084536Y79385359D02*
X155092477Y79369838D01*
X155076595Y79400881D02*
X155084536Y79385359D01*
X155068654Y79416403D02*
X155076595Y79400881D01*
X155060713Y79431924D02*
X155068654Y79416403D01*
X155052772Y79447446D02*
X155060713Y79431924D01*
X155044830Y79462968D02*
X155052772Y79447446D01*
X155036889Y79478489D02*
X155044830Y79462968D01*
X155028948Y79494011D02*
X155036889Y79478489D01*
X155021007Y79509533D02*
X155028948Y79494011D01*
X155013066Y79525054D02*
X155021007Y79509533D01*
X155005124Y79540576D02*
X155013066Y79525054D01*
X154997183Y79556098D02*
X155005124Y79540576D01*
X154989242Y79571619D02*
X154997183Y79556098D01*
X154981301Y79587141D02*
X154989242Y79571619D01*
X154973360Y79602663D02*
X154981301Y79587141D01*
X154961121Y79618409D02*
X154973360Y79602663D01*
X154948882Y79634155D02*
X154961121Y79618409D01*
X154936643Y79649901D02*
X154948882Y79634155D01*
X154924405Y79665647D02*
X154936643Y79649901D01*
X154912166Y79681393D02*
X154924405Y79665647D01*
X154899927Y79697140D02*
X154912166Y79681393D01*
X154887688Y79712886D02*
X154899927Y79697140D01*
X154875450Y79728632D02*
X154887688Y79712886D01*
X154863211Y79744378D02*
X154875450Y79728632D01*
X154850972Y79760124D02*
X154863211Y79744378D01*
X154838733Y79775870D02*
X154850972Y79760124D01*
X154826494Y79791617D02*
X154838733Y79775870D01*
X154814256Y79807363D02*
X154826494Y79791617D01*
X154802017Y79823109D02*
X154814256Y79807363D01*
X154789778Y79838855D02*
X154802017Y79823109D01*
X154777539Y79854601D02*
X154789778Y79838855D01*
X154765301Y79870347D02*
X154777539Y79854601D01*
X154753062Y79886094D02*
X154765301Y79870347D01*
X154740823Y79901840D02*
X154753062Y79886094D01*
X154728584Y79917586D02*
X154740823Y79901840D01*
X154716345Y79933332D02*
X154728584Y79917586D01*
X154704107Y79949078D02*
X154716345Y79933332D01*
X154691868Y79964824D02*
X154704107Y79949078D01*
X154679629Y79980571D02*
X154691868Y79964824D01*
X154667390Y79996317D02*
X154679629Y79980571D01*
X154655152Y80012063D02*
X154667390Y79996317D01*
X154642913Y80027809D02*
X154655152Y80012063D01*
X154630674Y80043555D02*
X154642913Y80027809D01*
X154618435Y80059301D02*
X154630674Y80043555D01*
X154606196Y80075047D02*
X154618435Y80059301D01*
X154593958Y80090794D02*
X154606196Y80075047D01*
X154581719Y80106540D02*
X154593958Y80090794D01*
X154564258Y80121334D02*
X154581719Y80106540D01*
X154546798Y80136128D02*
X154564258Y80121334D01*
X154529337Y80150922D02*
X154546798Y80136128D01*
X154511877Y80165716D02*
X154529337Y80150922D01*
X154494416Y80180510D02*
X154511877Y80165716D01*
X154476956Y80195304D02*
X154494416Y80180510D01*
X154459495Y80210098D02*
X154476956Y80195304D01*
X154442034Y80224892D02*
X154459495Y80210098D01*
X154424574Y80239686D02*
X154442034Y80224892D01*
X154407113Y80254480D02*
X154424574Y80239686D01*
X154389653Y80269274D02*
X154407113Y80254480D01*
X154372192Y80284068D02*
X154389653Y80269274D01*
X154354732Y80298862D02*
X154372192Y80284068D01*
X154337271Y80313657D02*
X154354732Y80298862D01*
X154319811Y80328451D02*
X154337271Y80313657D01*
X154302350Y80343245D02*
X154319811Y80328451D01*
X154284889Y80358039D02*
X154302350Y80343245D01*
X154267429Y80372833D02*
X154284889Y80358039D01*
X154249968Y80387627D02*
X154267429Y80372833D01*
X154232508Y80402421D02*
X154249968Y80387627D01*
X154215047Y80417215D02*
X154232508Y80402421D01*
X154197587Y80432009D02*
X154215047Y80417215D01*
X154180126Y80446803D02*
X154197587Y80432009D01*
X154162666Y80461597D02*
X154180126Y80446803D01*
X154145205Y80476391D02*
X154162666Y80461597D01*
X154127744Y80491185D02*
X154145205Y80476391D01*
X154110284Y80505979D02*
X154127744Y80491185D01*
X154092823Y80520773D02*
X154110284Y80505979D01*
X154075363Y80535567D02*
X154092823Y80520773D01*
X154057902Y80550361D02*
X154075363Y80535567D01*
X154040442Y80565155D02*
X154057902Y80550361D01*
X154022981Y80579949D02*
X154040442Y80565155D01*
X153999375Y80592615D02*
X154022981Y80579949D01*
X153975768Y80605280D02*
X153999375Y80592615D01*
X153952162Y80617945D02*
X153975768Y80605280D01*
X153928555Y80630611D02*
X153952162Y80617945D01*
X153904949Y80643276D02*
X153928555Y80630611D01*
X153881342Y80655941D02*
X153904949Y80643276D01*
X153857736Y80668607D02*
X153881342Y80655941D01*
X153834129Y80681272D02*
X153857736Y80668607D01*
X153810523Y80693937D02*
X153834129Y80681272D01*
X153786916Y80706603D02*
X153810523Y80693937D01*
X153763310Y80719268D02*
X153786916Y80706603D01*
X153739703Y80731933D02*
X153763310Y80719268D01*
X153716097Y80744599D02*
X153739703Y80731933D01*
X153692490Y80757264D02*
X153716097Y80744599D01*
X153668884Y80769930D02*
X153692490Y80757264D01*
X153645277Y80782595D02*
X153668884Y80769930D01*
X153621671Y80795260D02*
X153645277Y80782595D01*
X153598064Y80807926D02*
X153621671Y80795260D01*
X153574458Y80820591D02*
X153598064Y80807926D01*
X153550851Y80833256D02*
X153574458Y80820591D01*
X153527245Y80845922D02*
X153550851Y80833256D01*
X153503638Y80858587D02*
X153527245Y80845922D01*
X153480032Y80871252D02*
X153503638Y80858587D01*
X153456425Y80883918D02*
X153480032Y80871252D01*
X153432819Y80896583D02*
X153456425Y80883918D01*
X153409212Y80909248D02*
X153432819Y80896583D01*
X153385606Y80921914D02*
X153409212Y80909248D01*
X153361999Y80934579D02*
X153385606Y80921914D01*
X153338393Y80947244D02*
X153361999Y80934579D01*
X153314786Y80959910D02*
X153338393Y80947244D01*
X153291180Y80972575D02*
X153314786Y80959910D01*
X153267573Y80985240D02*
X153291180Y80972575D01*
X135210427Y87204424D02*
X153267573Y80985240D01*
X118261307Y93429602D02*
X135210427Y87204424D01*
X102423630Y97831280D02*
X118261307Y93429602D01*
X87705914Y100616092D02*
X102423630Y97831280D01*
X74116675Y101990670D02*
X87705914Y100616092D01*
X61664428Y102161648D02*
X74116675Y101990670D01*
X50357692Y101335656D02*
X61664428Y102161648D01*
X40204981Y99719329D02*
X50357692Y101335656D01*
X31214812Y97519299D02*
X40204981Y99719329D01*
X23395702Y94942198D02*
X31214812Y97519299D01*
X16756166Y92194659D02*
X23395702Y94942198D01*
X11304721Y89483314D02*
X16756166Y92194659D01*
X7049884Y87014797D02*
X11304721Y89483314D01*
X4000171Y84995740D02*
X7049884Y87014797D01*
X2164098Y83632775D02*
X4000171Y84995740D01*
X1550181Y83132535D02*
X2164098Y83632775D01*
X994208Y82741459D02*
X1550181Y83132535D01*
X513311Y82383323D02*
X994208Y82741459D01*
X102078Y82057061D02*
X513311Y82383323D01*
X-244900Y81761611D02*
X102078Y82057061D01*
X-533032Y81495909D02*
X-244900Y81761611D01*
X-767728Y81258892D02*
X-533032Y81495909D01*
X-954398Y81049495D02*
X-767728Y81258892D01*
X-1098451Y80866656D02*
X-954398Y81049495D01*
X-1205297Y80709311D02*
X-1098451Y80866656D01*
X-1280346Y80576395D02*
X-1205297Y80709311D01*
X-1329007Y80466846D02*
X-1280346Y80576395D01*
X-1356690Y80379600D02*
X-1329007Y80466846D01*
X-1368804Y80313594D02*
X-1356690Y80379600D01*
X-1370760Y80267763D02*
X-1368804Y80313594D01*
X-1367966Y80241045D02*
X-1370760Y80267763D01*
X-1365833Y80232375D02*
X-1367966Y80241045D01*
X-1365833Y80044875D02*
X-1365833Y80232375D01*
X-1365833Y79857375D02*
X-1365833Y80044875D01*
X-1365833Y79669875D02*
X-1365833Y79857375D01*
X-1365833Y79482375D02*
X-1365833Y79669875D01*
X-1365833Y79294875D02*
X-1365833Y79482375D01*
X-1365833Y79107375D02*
X-1365833Y79294875D01*
X-1365833Y78919875D02*
X-1365833Y79107375D01*
X-1365833Y78732375D02*
X-1365833Y78919875D01*
X-1365833Y78544875D02*
X-1365833Y78732375D01*
X-1365833Y78357375D02*
X-1365833Y78544875D01*
X-1365833Y78169875D02*
X-1365833Y78357375D01*
X-1365833Y77982375D02*
X-1365833Y78169875D01*
X-1365833Y77794875D02*
X-1365833Y77982375D01*
X-1365833Y77607375D02*
X-1365833Y77794875D01*
X-1365833Y77419875D02*
X-1365833Y77607375D01*
X-1365833Y77232375D02*
X-1365833Y77419875D01*
X155455083Y454691D02*
X155455083Y158796D01*
X155455083Y750586D02*
X155455083Y454691D01*
X155455083Y1046482D02*
X155455083Y750586D01*
X155455083Y1342377D02*
X155455083Y1046482D01*
X155455083Y1638272D02*
X155455083Y1342377D01*
X155455083Y1934167D02*
X155455083Y1638272D01*
X155455083Y2230062D02*
X155455083Y1934167D01*
X155455083Y2525957D02*
X155455083Y2230062D01*
X155455083Y2821852D02*
X155455083Y2525957D01*
X155455083Y3117747D02*
X155455083Y2821852D01*
X155455083Y3413642D02*
X155455083Y3117747D01*
X155455083Y3709537D02*
X155455083Y3413642D01*
X155455083Y4005432D02*
X155455083Y3709537D01*
X155455083Y4301327D02*
X155455083Y4005432D01*
X155455083Y4597222D02*
X155455083Y4301327D01*
X155455083Y4893117D02*
X155455083Y4597222D01*
X155455083Y5189013D02*
X155455083Y4893117D01*
X155455083Y5484908D02*
X155455083Y5189013D01*
X155455083Y5780803D02*
X155455083Y5484908D01*
X155455083Y6076698D02*
X155455083Y5780803D01*
X155455083Y6372593D02*
X155455083Y6076698D01*
X155455083Y6668488D02*
X155455083Y6372593D01*
X155455083Y6964383D02*
X155455083Y6668488D01*
X155455083Y7260278D02*
X155455083Y6964383D01*
X155455083Y7556173D02*
X155455083Y7260278D01*
X155455083Y7852068D02*
X155455083Y7556173D01*
X155455083Y8147963D02*
X155455083Y7852068D01*
X155455083Y8443858D02*
X155455083Y8147963D01*
X155455083Y8739753D02*
X155455083Y8443858D01*
X155455083Y9035649D02*
X155455083Y8739753D01*
X155455083Y9331544D02*
X155455083Y9035649D01*
X155455083Y9627439D02*
X155455083Y9331544D01*
X155455083Y9923334D02*
X155455083Y9627439D01*
X155455083Y10219229D02*
X155455083Y9923334D01*
X155455083Y10515124D02*
X155455083Y10219229D01*
X155455083Y10811019D02*
X155455083Y10515124D01*
X155455083Y11106914D02*
X155455083Y10811019D01*
X155455083Y11402809D02*
X155455083Y11106914D01*
X155455083Y11698704D02*
X155455083Y11402809D01*
X155455083Y11994599D02*
X155455083Y11698704D01*
X155455083Y12290494D02*
X155455083Y11994599D01*
X155455083Y12586389D02*
X155455083Y12290494D01*
X155455083Y12882284D02*
X155455083Y12586389D01*
X155455083Y13178180D02*
X155455083Y12882284D01*
X155455083Y13474075D02*
X155455083Y13178180D01*
X155455083Y13769970D02*
X155455083Y13474075D01*
X155455083Y14065865D02*
X155455083Y13769970D01*
X155455083Y14361760D02*
X155455083Y14065865D01*
X155455083Y14657655D02*
X155455083Y14361760D01*
X155455083Y14953550D02*
X155455083Y14657655D01*
X155455083Y15249445D02*
X155455083Y14953550D01*
X155455083Y15545340D02*
X155455083Y15249445D01*
X155455083Y15841235D02*
X155455083Y15545340D01*
X155455083Y16137130D02*
X155455083Y15841235D01*
X155455083Y16433025D02*
X155455083Y16137130D01*
X155455083Y16728920D02*
X155455083Y16433025D01*
X155455083Y17024815D02*
X155455083Y16728920D01*
X155455083Y17320711D02*
X155455083Y17024815D01*
X155455083Y17616606D02*
X155455083Y17320711D01*
X155455083Y17912501D02*
X155455083Y17616606D01*
X155455083Y18208396D02*
X155455083Y17912501D01*
X155455083Y18504291D02*
X155455083Y18208396D01*
X155455083Y18800186D02*
X155455083Y18504291D01*
X155455083Y19096081D02*
X155455083Y18800186D01*
X155455083Y19391976D02*
X155455083Y19096081D01*
X155455083Y19687871D02*
X155455083Y19391976D01*
X155455083Y19983766D02*
X155455083Y19687871D01*
X155455083Y20279661D02*
X155455083Y19983766D01*
X155455083Y20575556D02*
X155455083Y20279661D01*
X155455083Y20871451D02*
X155455083Y20575556D01*
X155455083Y21167347D02*
X155455083Y20871451D01*
X155455083Y21463242D02*
X155455083Y21167347D01*
X155455083Y21759137D02*
X155455083Y21463242D01*
X155455083Y22055032D02*
X155455083Y21759137D01*
X155455083Y22350927D02*
X155455083Y22055032D01*
X155455083Y22646822D02*
X155455083Y22350927D01*
X155455083Y22942717D02*
X155455083Y22646822D01*
X155455083Y23238612D02*
X155455083Y22942717D01*
X155455083Y23534507D02*
X155455083Y23238612D01*
X155455083Y23830402D02*
X155455083Y23534507D01*
X155455083Y24126297D02*
X155455083Y23830402D01*
X155455083Y24422192D02*
X155455083Y24126297D01*
X155455083Y24718087D02*
X155455083Y24422192D01*
X155455083Y25013982D02*
X155455083Y24718087D01*
X155455083Y25309878D02*
X155455083Y25013982D01*
X155455083Y25605773D02*
X155455083Y25309878D01*
X155455083Y25901668D02*
X155455083Y25605773D01*
X155455083Y26197563D02*
X155455083Y25901668D01*
X155455083Y26493458D02*
X155455083Y26197563D01*
X155455083Y26789353D02*
X155455083Y26493458D01*
X155455083Y27085248D02*
X155455083Y26789353D01*
X155455083Y27381143D02*
X155455083Y27085248D01*
X155455083Y27677038D02*
X155455083Y27381143D01*
X155455083Y27972933D02*
X155455083Y27677038D01*
X155455083Y28268828D02*
X155455083Y27972933D01*
X155455083Y28564723D02*
X155455083Y28268828D01*
X155455083Y28860618D02*
X155455083Y28564723D01*
X155455083Y29156513D02*
X155455083Y28860618D01*
X155455083Y29452409D02*
X155455083Y29156513D01*
X155455083Y29748304D02*
X155455083Y29452409D01*
X155455083Y30044199D02*
X155455083Y29748304D01*
X155455083Y30340094D02*
X155455083Y30044199D01*
X155455083Y30635989D02*
X155455083Y30340094D01*
X155455083Y30931884D02*
X155455083Y30635989D01*
X155455083Y31227779D02*
X155455083Y30931884D01*
X155455083Y31523674D02*
X155455083Y31227779D01*
X155455083Y31819569D02*
X155455083Y31523674D01*
X155455083Y32115464D02*
X155455083Y31819569D01*
X155455083Y32411359D02*
X155455083Y32115464D01*
X155455083Y32707254D02*
X155455083Y32411359D01*
X155455083Y33003149D02*
X155455083Y32707254D01*
X155455083Y33299045D02*
X155455083Y33003149D01*
X155455083Y33594940D02*
X155455083Y33299045D01*
X155455083Y33890835D02*
X155455083Y33594940D01*
X155455083Y34186730D02*
X155455083Y33890835D01*
X155455083Y34482625D02*
X155455083Y34186730D01*
X155455083Y34778520D02*
X155455083Y34482625D01*
X155455083Y35074415D02*
X155455083Y34778520D01*
X155455083Y35370310D02*
X155455083Y35074415D01*
X155455083Y35666205D02*
X155455083Y35370310D01*
X155455083Y35962100D02*
X155455083Y35666205D01*
X155455083Y36257995D02*
X155455083Y35962100D01*
X155455083Y36553890D02*
X155455083Y36257995D01*
X155455083Y36849785D02*
X155455083Y36553890D01*
X155455083Y37145680D02*
X155455083Y36849785D01*
X155455083Y37441576D02*
X155455083Y37145680D01*
X155455083Y37737471D02*
X155455083Y37441576D01*
X155455083Y38033366D02*
X155455083Y37737471D01*
X155455083Y38329261D02*
X155455083Y38033366D01*
X155455083Y38625156D02*
X155455083Y38329261D01*
X155455083Y38921051D02*
X155455083Y38625156D01*
X155455083Y39216946D02*
X155455083Y38921051D01*
X155455083Y39512841D02*
X155455083Y39216946D01*
X155455083Y39808736D02*
X155455083Y39512841D01*
X155455083Y40104631D02*
X155455083Y39808736D01*
X155455083Y40400526D02*
X155455083Y40104631D01*
X155455083Y40696421D02*
X155455083Y40400526D01*
X155455083Y40992316D02*
X155455083Y40696421D01*
X155455083Y41288211D02*
X155455083Y40992316D01*
X155455083Y41584107D02*
X155455083Y41288211D01*
X155455083Y41880002D02*
X155455083Y41584107D01*
X155455083Y42175897D02*
X155455083Y41880002D01*
X155455083Y42471792D02*
X155455083Y42175897D01*
X155455083Y42767687D02*
X155455083Y42471792D01*
X155455083Y43063582D02*
X155455083Y42767687D01*
X155455083Y43359477D02*
X155455083Y43063582D01*
X155455083Y43655372D02*
X155455083Y43359477D01*
X155455083Y43951267D02*
X155455083Y43655372D01*
X155455083Y44247162D02*
X155455083Y43951267D01*
X155455083Y44543057D02*
X155455083Y44247162D01*
X155455083Y44838952D02*
X155455083Y44543057D01*
X155455083Y45134847D02*
X155455083Y44838952D01*
X155455083Y45430743D02*
X155455083Y45134847D01*
X155455083Y45726638D02*
X155455083Y45430743D01*
X155455083Y46022533D02*
X155455083Y45726638D01*
X155455083Y46318428D02*
X155455083Y46022533D01*
X155455083Y46614323D02*
X155455083Y46318428D01*
X155455083Y46910218D02*
X155455083Y46614323D01*
X155455083Y47206113D02*
X155455083Y46910218D01*
X155455083Y47502008D02*
X155455083Y47206113D01*
X155455083Y47797903D02*
X155455083Y47502008D01*
X155455083Y48093798D02*
X155455083Y47797903D01*
X155455083Y48389693D02*
X155455083Y48093798D01*
X155455083Y48685588D02*
X155455083Y48389693D01*
X155455083Y48981483D02*
X155455083Y48685588D01*
X155455083Y49277378D02*
X155455083Y48981483D01*
X155455083Y49573274D02*
X155455083Y49277378D01*
X155455083Y49869169D02*
X155455083Y49573274D01*
X155455083Y50165064D02*
X155455083Y49869169D01*
X155455083Y50460959D02*
X155455083Y50165064D01*
X155455083Y50756854D02*
X155455083Y50460959D01*
X155455083Y51052749D02*
X155455083Y50756854D01*
X155455083Y51348644D02*
X155455083Y51052749D01*
X155455083Y51644539D02*
X155455083Y51348644D01*
X155455083Y51940434D02*
X155455083Y51644539D01*
X155455083Y52236329D02*
X155455083Y51940434D01*
X155455083Y52532224D02*
X155455083Y52236329D01*
X155455083Y52828119D02*
X155455083Y52532224D01*
X155455083Y53124014D02*
X155455083Y52828119D01*
X155455083Y53419909D02*
X155455083Y53124014D01*
X155455083Y53715805D02*
X155455083Y53419909D01*
X155455083Y54011700D02*
X155455083Y53715805D01*
X155455083Y54307595D02*
X155455083Y54011700D01*
X155455083Y54603490D02*
X155455083Y54307595D01*
X155455083Y54899385D02*
X155455083Y54603490D01*
X155455083Y55195280D02*
X155455083Y54899385D01*
X155455083Y55491175D02*
X155455083Y55195280D01*
X155455083Y55787070D02*
X155455083Y55491175D01*
X155455083Y56082965D02*
X155455083Y55787070D01*
X155455083Y56378860D02*
X155455083Y56082965D01*
X155455083Y56674755D02*
X155455083Y56378860D01*
X155455083Y56970650D02*
X155455083Y56674755D01*
X155455083Y57266545D02*
X155455083Y56970650D01*
X155455083Y57562441D02*
X155455083Y57266545D01*
X155455083Y57858336D02*
X155455083Y57562441D01*
X155455083Y58154231D02*
X155455083Y57858336D01*
X155455083Y58450126D02*
X155455083Y58154231D01*
X155455083Y58746021D02*
X155455083Y58450126D01*
X155455083Y59041916D02*
X155455083Y58746021D01*
X155455083Y59337811D02*
X155455083Y59041916D01*
X155455083Y59633706D02*
X155455083Y59337811D01*
X155455083Y59929601D02*
X155455083Y59633706D01*
X155455083Y60225496D02*
X155455083Y59929601D01*
X155455083Y60521391D02*
X155455083Y60225496D01*
X155455083Y60817286D02*
X155455083Y60521391D01*
X155455083Y61113181D02*
X155455083Y60817286D01*
X155455083Y61409076D02*
X155455083Y61113181D01*
X155455083Y61704972D02*
X155455083Y61409076D01*
X155455083Y62000867D02*
X155455083Y61704972D01*
X155455083Y62296762D02*
X155455083Y62000867D01*
X155455083Y62592657D02*
X155455083Y62296762D01*
X155455083Y62888552D02*
X155455083Y62592657D01*
X155455083Y63184447D02*
X155455083Y62888552D01*
X155455083Y63480342D02*
X155455083Y63184447D01*
X155455083Y63776237D02*
X155455083Y63480342D01*
X155455083Y64072132D02*
X155455083Y63776237D01*
X155455083Y64368027D02*
X155455083Y64072132D01*
X155455083Y64663922D02*
X155455083Y64368027D01*
X155455083Y64959817D02*
X155455083Y64663922D01*
X155455083Y65255712D02*
X155455083Y64959817D01*
X155455083Y65551607D02*
X155455083Y65255712D01*
X155455083Y65847503D02*
X155455083Y65551607D01*
X155455083Y66143398D02*
X155455083Y65847503D01*
X155455083Y66439293D02*
X155455083Y66143398D01*
X155455083Y66735188D02*
X155455083Y66439293D01*
X155455083Y67031083D02*
X155455083Y66735188D01*
X155455083Y67326978D02*
X155455083Y67031083D01*
X155455083Y67622873D02*
X155455083Y67326978D01*
X155455083Y67918768D02*
X155455083Y67622873D01*
X155455083Y68214663D02*
X155455083Y67918768D01*
X155455083Y68510558D02*
X155455083Y68214663D01*
X155455083Y68806453D02*
X155455083Y68510558D01*
X155455083Y69102348D02*
X155455083Y68806453D01*
X155455083Y69398243D02*
X155455083Y69102348D01*
X155455083Y69694139D02*
X155455083Y69398243D01*
X155455083Y69990034D02*
X155455083Y69694139D01*
X155455083Y70285929D02*
X155455083Y69990034D01*
X155455083Y70581824D02*
X155455083Y70285929D01*
X155455083Y70877719D02*
X155455083Y70581824D01*
X155455083Y71173614D02*
X155455083Y70877719D01*
X155455083Y71469509D02*
X155455083Y71173614D01*
X155455083Y71765404D02*
X155455083Y71469509D01*
X155455083Y72061299D02*
X155455083Y71765404D01*
X155455083Y72357194D02*
X155455083Y72061299D01*
X155455083Y72653089D02*
X155455083Y72357194D01*
X155455083Y72948984D02*
X155455083Y72653089D01*
X155455083Y73244879D02*
X155455083Y72948984D01*
X155455083Y73540774D02*
X155455083Y73244879D01*
X155455083Y73836670D02*
X155455083Y73540774D01*
X155455083Y74132565D02*
X155455083Y73836670D01*
X155455083Y74428460D02*
X155455083Y74132565D01*
X155455083Y74724355D02*
X155455083Y74428460D01*
X155455083Y75020250D02*
X155455083Y74724355D01*
X155455083Y75316145D02*
X155455083Y75020250D01*
X155455083Y75612040D02*
X155455083Y75316145D01*
X155455083Y75907935D02*
X155455083Y75612040D01*
X155382450Y32992D02*
X155455083Y158796D01*
X155309816Y-92812D02*
X155382450Y32992D01*
X155237183Y-218617D02*
X155309816Y-92812D01*
X155164550Y-344421D02*
X155237183Y-218617D01*
X155091917Y-470225D02*
X155164550Y-344421D01*
X155019284Y-596029D02*
X155091917Y-470225D01*
X154946651Y-721834D02*
X155019284Y-596029D01*
X154874018Y-847638D02*
X154946651Y-721834D01*
X154801384Y-973442D02*
X154874018Y-847638D01*
X154728751Y-1099246D02*
X154801384Y-973442D01*
X154656118Y-1225051D02*
X154728751Y-1099246D01*
X154583485Y-1350855D02*
X154656118Y-1225051D01*
X154510852Y-1476659D02*
X154583485Y-1350855D01*
X154438219Y-1602464D02*
X154510852Y-1476659D01*
X154365586Y-1728268D02*
X154438219Y-1602464D01*
X154292953Y-1854072D02*
X154365586Y-1728268D01*
X154220319Y-1979876D02*
X154292953Y-1854072D01*
X154147686Y-2105681D02*
X154220319Y-1979876D01*
X154075053Y-2231485D02*
X154147686Y-2105681D01*
X154002420Y-2357289D02*
X154075053Y-2231485D01*
X153929787Y-2483094D02*
X154002420Y-2357289D01*
X153857154Y-2608898D02*
X153929787Y-2483094D01*
X153784521Y-2734702D02*
X153857154Y-2608898D01*
X153711887Y-2860506D02*
X153784521Y-2734702D01*
X153639254Y-2986311D02*
X153711887Y-2860506D01*
X153566621Y-3112115D02*
X153639254Y-2986311D01*
X153493988Y-3237919D02*
X153566621Y-3112115D01*
X153421355Y-3363723D02*
X153493988Y-3237919D01*
X153348722Y-3489528D02*
X153421355Y-3363723D01*
X153276089Y-3615332D02*
X153348722Y-3489528D01*
X153203456Y-3741136D02*
X153276089Y-3615332D01*
X153130822Y-3866941D02*
X153203456Y-3741136D01*
X153058189Y-3992745D02*
X153130822Y-3866941D01*
X152985556Y-4118549D02*
X153058189Y-3992745D01*
X152912923Y-4244353D02*
X152985556Y-4118549D01*
X152840290Y-4370158D02*
X152912923Y-4244353D01*
X152767657Y-4495962D02*
X152840290Y-4370158D01*
X152695024Y-4621766D02*
X152767657Y-4495962D01*
X152622390Y-4747570D02*
X152695024Y-4621766D01*
X152549757Y-4873375D02*
X152622390Y-4747570D01*
X152477124Y-4999179D02*
X152549757Y-4873375D01*
X152404491Y-5124983D02*
X152477124Y-4999179D01*
X152331858Y-5250788D02*
X152404491Y-5124983D01*
X152259225Y-5376592D02*
X152331858Y-5250788D01*
X152186592Y-5502396D02*
X152259225Y-5376592D01*
X152113959Y-5628200D02*
X152186592Y-5502396D01*
X152041325Y-5754005D02*
X152113959Y-5628200D01*
X151968692Y-5879809D02*
X152041325Y-5754005D01*
X151896059Y-6005613D02*
X151968692Y-5879809D01*
X151823426Y-6131418D02*
X151896059Y-6005613D01*
X151750793Y-6257222D02*
X151823426Y-6131418D01*
X151678160Y-6383026D02*
X151750793Y-6257222D01*
X151605527Y-6508830D02*
X151678160Y-6383026D01*
X151532893Y-6634635D02*
X151605527Y-6508830D01*
X151460260Y-6760439D02*
X151532893Y-6634635D01*
X151387627Y-6886243D02*
X151460260Y-6760439D01*
X151314994Y-7012047D02*
X151387627Y-6886243D01*
X151242361Y-7137852D02*
X151314994Y-7012047D01*
X151169728Y-7263656D02*
X151242361Y-7137852D01*
X151097095Y-7389460D02*
X151169728Y-7263656D01*
X151024462Y-7515265D02*
X151097095Y-7389460D01*
X150951828Y-7641069D02*
X151024462Y-7515265D01*
X150879195Y-7766873D02*
X150951828Y-7641069D01*
X150806562Y-7892677D02*
X150879195Y-7766873D01*
X150733929Y-8018482D02*
X150806562Y-7892677D01*
X150661296Y-8144286D02*
X150733929Y-8018482D01*
X150588663Y-8270090D02*
X150661296Y-8144286D01*
X150516030Y-8395895D02*
X150588663Y-8270090D01*
X150443396Y-8521699D02*
X150516030Y-8395895D01*
X150370763Y-8647503D02*
X150443396Y-8521699D01*
X150298130Y-8773307D02*
X150370763Y-8647503D01*
X150225497Y-8899112D02*
X150298130Y-8773307D01*
X150152864Y-9024916D02*
X150225497Y-8899112D01*
X150080231Y-9150720D02*
X150152864Y-9024916D01*
X150007598Y-9276524D02*
X150080231Y-9150720D01*
X149934965Y-9402329D02*
X150007598Y-9276524D01*
X149862331Y-9528133D02*
X149934965Y-9402329D01*
X149789698Y-9653937D02*
X149862331Y-9528133D01*
X149717065Y-9779742D02*
X149789698Y-9653937D01*
X149644432Y-9905546D02*
X149717065Y-9779742D01*
X149571799Y-10031350D02*
X149644432Y-9905546D01*
X149499166Y-10157154D02*
X149571799Y-10031350D01*
X149426533Y-10282959D02*
X149499166Y-10157154D01*
X149353899Y-10408763D02*
X149426533Y-10282959D01*
X149281266Y-10534567D02*
X149353899Y-10408763D01*
X149208633Y-10660371D02*
X149281266Y-10534567D01*
X149136000Y-10786176D02*
X149208633Y-10660371D01*
X149063367Y-10911980D02*
X149136000Y-10786176D01*
X148990734Y-11037784D02*
X149063367Y-10911980D01*
X148918101Y-11163589D02*
X148990734Y-11037784D01*
X148845468Y-11289393D02*
X148918101Y-11163589D01*
X148772834Y-11415197D02*
X148845468Y-11289393D01*
X148700201Y-11541001D02*
X148772834Y-11415197D01*
X148627568Y-11666806D02*
X148700201Y-11541001D01*
X148554935Y-11792610D02*
X148627568Y-11666806D01*
X148482302Y-11918414D02*
X148554935Y-11792610D01*
X148409669Y-12044219D02*
X148482302Y-11918414D01*
X148337036Y-12170023D02*
X148409669Y-12044219D01*
X148264403Y-12295827D02*
X148337036Y-12170023D01*
X148191769Y-12421631D02*
X148264403Y-12295827D01*
X148119136Y-12547436D02*
X148191769Y-12421631D01*
X148046503Y-12673240D02*
X148119136Y-12547436D01*
X147973870Y-12799044D02*
X148046503Y-12673240D01*
X147901237Y-12924848D02*
X147973870Y-12799044D01*
X147828604Y-13050653D02*
X147901237Y-12924848D01*
X147755971Y-13176457D02*
X147828604Y-13050653D01*
X147683337Y-13302261D02*
X147755971Y-13176457D01*
X147610704Y-13428066D02*
X147683337Y-13302261D01*
X147538071Y-13553870D02*
X147610704Y-13428066D01*
X147465438Y-13679674D02*
X147538071Y-13553870D01*
X147392805Y-13805478D02*
X147465438Y-13679674D01*
X147320172Y-13931283D02*
X147392805Y-13805478D01*
X147247539Y-14057087D02*
X147320172Y-13931283D01*
X147174906Y-14182891D02*
X147247539Y-14057087D01*
X147102272Y-14308696D02*
X147174906Y-14182891D01*
X147029639Y-14434500D02*
X147102272Y-14308696D01*
X146957006Y-14560304D02*
X147029639Y-14434500D01*
X146884373Y-14686108D02*
X146957006Y-14560304D01*
X146811740Y-14811913D02*
X146884373Y-14686108D01*
X146739107Y-14937717D02*
X146811740Y-14811913D01*
X146666474Y-15063521D02*
X146739107Y-14937717D01*
X146593840Y-15189325D02*
X146666474Y-15063521D01*
X146521207Y-15315130D02*
X146593840Y-15189325D01*
X146448574Y-15440934D02*
X146521207Y-15315130D01*
X146375941Y-15566738D02*
X146448574Y-15440934D01*
X146303308Y-15692543D02*
X146375941Y-15566738D01*
X146230675Y-15818347D02*
X146303308Y-15692543D01*
X146158042Y-15944151D02*
X146230675Y-15818347D01*
X146085409Y-16069955D02*
X146158042Y-15944151D01*
X146012775Y-16195760D02*
X146085409Y-16069955D01*
X145940142Y-16321564D02*
X146012775Y-16195760D01*
X145867509Y-16447368D02*
X145940142Y-16321564D01*
X145794876Y-16573173D02*
X145867509Y-16447368D01*
X145722243Y-16698977D02*
X145794876Y-16573173D01*
X145649610Y-16824781D02*
X145722243Y-16698977D01*
X145576977Y-16950585D02*
X145649610Y-16824781D01*
X145504343Y-17076390D02*
X145576977Y-16950585D01*
X145431710Y-17202194D02*
X145504343Y-17076390D01*
X145359077Y-17327998D02*
X145431710Y-17202194D01*
X145286444Y-17453802D02*
X145359077Y-17327998D01*
X145213811Y-17579607D02*
X145286444Y-17453802D01*
X145141178Y-17705411D02*
X145213811Y-17579607D01*
X145068545Y-17831215D02*
X145141178Y-17705411D01*
X144995912Y-17957020D02*
X145068545Y-17831215D01*
X144923278Y-18082824D02*
X144995912Y-17957020D01*
X144850645Y-18208628D02*
X144923278Y-18082824D01*
X144778012Y-18334432D02*
X144850645Y-18208628D01*
X144705379Y-18460237D02*
X144778012Y-18334432D01*
X144632746Y-18586041D02*
X144705379Y-18460237D01*
X144560113Y-18711845D02*
X144632746Y-18586041D01*
X144487480Y-18837649D02*
X144560113Y-18711845D01*
X144414846Y-18963454D02*
X144487480Y-18837649D01*
X144342213Y-19089258D02*
X144414846Y-18963454D01*
X144269580Y-19215062D02*
X144342213Y-19089258D01*
X144196947Y-19340867D02*
X144269580Y-19215062D01*
X144124314Y-19466671D02*
X144196947Y-19340867D01*
X144051681Y-19592475D02*
X144124314Y-19466671D01*
X143979048Y-19718279D02*
X144051681Y-19592475D01*
X143906415Y-19844084D02*
X143979048Y-19718279D01*
X143833781Y-19969888D02*
X143906415Y-19844084D01*
X143761148Y-20095692D02*
X143833781Y-19969888D01*
X143688515Y-20221497D02*
X143761148Y-20095692D01*
X143615882Y-20347301D02*
X143688515Y-20221497D01*
X143543249Y-20473105D02*
X143615882Y-20347301D01*
X143470616Y-20598909D02*
X143543249Y-20473105D01*
X143397983Y-20724714D02*
X143470616Y-20598909D01*
X143325349Y-20850518D02*
X143397983Y-20724714D01*
X143252716Y-20976322D02*
X143325349Y-20850518D01*
X143180083Y-21102126D02*
X143252716Y-20976322D01*
X143107450Y-21227931D02*
X143180083Y-21102126D01*
X143034817Y-21353735D02*
X143107450Y-21227931D01*
X142962184Y-21479539D02*
X143034817Y-21353735D01*
X142889551Y-21605344D02*
X142962184Y-21479539D01*
X142816918Y-21731148D02*
X142889551Y-21605344D01*
X142744284Y-21856952D02*
X142816918Y-21731148D01*
X142671651Y-21982756D02*
X142744284Y-21856952D01*
X142599018Y-22108561D02*
X142671651Y-21982756D01*
X142526385Y-22234365D02*
X142599018Y-22108561D01*
X142453752Y-22360169D02*
X142526385Y-22234365D01*
X142381119Y-22485974D02*
X142453752Y-22360169D01*
X142308486Y-22611778D02*
X142381119Y-22485974D01*
X142235852Y-22737582D02*
X142308486Y-22611778D01*
X142163219Y-22863386D02*
X142235852Y-22737582D01*
X142090586Y-22989191D02*
X142163219Y-22863386D01*
X142017953Y-23114995D02*
X142090586Y-22989191D01*
X141945320Y-23240799D02*
X142017953Y-23114995D01*
X141872687Y-23366603D02*
X141945320Y-23240799D01*
X141800054Y-23492408D02*
X141872687Y-23366603D01*
X141727421Y-23618212D02*
X141800054Y-23492408D01*
X141654787Y-23744016D02*
X141727421Y-23618212D01*
X141582154Y-23869821D02*
X141654787Y-23744016D01*
X141509521Y-23995625D02*
X141582154Y-23869821D01*
X141436888Y-24121429D02*
X141509521Y-23995625D01*
X141364255Y-24247233D02*
X141436888Y-24121429D01*
X141291622Y-24373038D02*
X141364255Y-24247233D01*
X141218989Y-24498842D02*
X141291622Y-24373038D01*
X141146355Y-24624646D02*
X141218989Y-24498842D01*
X141073722Y-24750450D02*
X141146355Y-24624646D01*
X141001089Y-24876255D02*
X141073722Y-24750450D01*
X140928456Y-25002059D02*
X141001089Y-24876255D01*
X140855823Y-25127863D02*
X140928456Y-25002059D01*
X140783190Y-25253668D02*
X140855823Y-25127863D01*
X140710557Y-25379472D02*
X140783190Y-25253668D01*
X140637924Y-25505276D02*
X140710557Y-25379472D01*
X140565290Y-25631080D02*
X140637924Y-25505276D01*
X140492657Y-25756885D02*
X140565290Y-25631080D01*
X140420024Y-25882689D02*
X140492657Y-25756885D01*
X140347391Y-26008493D02*
X140420024Y-25882689D01*
X140274758Y-26134298D02*
X140347391Y-26008493D01*
X140202125Y-26260102D02*
X140274758Y-26134298D01*
X140129492Y-26385906D02*
X140202125Y-26260102D01*
X140056858Y-26511710D02*
X140129492Y-26385906D01*
X139984225Y-26637515D02*
X140056858Y-26511710D01*
X139911592Y-26763319D02*
X139984225Y-26637515D01*
X139838959Y-26889123D02*
X139911592Y-26763319D01*
X139766326Y-27014927D02*
X139838959Y-26889123D01*
X139693693Y-27140732D02*
X139766326Y-27014927D01*
X139621060Y-27266536D02*
X139693693Y-27140732D01*
X139548427Y-27392340D02*
X139621060Y-27266536D01*
X139475793Y-27518145D02*
X139548427Y-27392340D01*
X139403160Y-27643949D02*
X139475793Y-27518145D01*
X139330527Y-27769753D02*
X139403160Y-27643949D01*
X139257894Y-27895557D02*
X139330527Y-27769753D01*
X139185261Y-28021362D02*
X139257894Y-27895557D01*
X139112628Y-28147166D02*
X139185261Y-28021362D01*
X139039995Y-28272970D02*
X139112628Y-28147166D01*
X138967361Y-28398775D02*
X139039995Y-28272970D01*
X138894728Y-28524579D02*
X138967361Y-28398775D01*
X138822095Y-28650383D02*
X138894728Y-28524579D01*
X138749462Y-28776187D02*
X138822095Y-28650383D01*
X138676829Y-28901992D02*
X138749462Y-28776187D01*
X138604196Y-29027796D02*
X138676829Y-28901992D01*
X138531563Y-29153600D02*
X138604196Y-29027796D01*
X138458930Y-29279404D02*
X138531563Y-29153600D01*
X138386296Y-29405209D02*
X138458930Y-29279404D01*
X138313663Y-29531013D02*
X138386296Y-29405209D01*
X138241030Y-29656817D02*
X138313663Y-29531013D01*
X138168397Y-29782622D02*
X138241030Y-29656817D01*
X138095764Y-29908426D02*
X138168397Y-29782622D01*
X138023131Y-30034230D02*
X138095764Y-29908426D01*
X137950498Y-30160034D02*
X138023131Y-30034230D01*
X137877864Y-30285839D02*
X137950498Y-30160034D01*
X137805231Y-30411643D02*
X137877864Y-30285839D01*
X137732598Y-30537447D02*
X137805231Y-30411643D01*
X137659965Y-30663252D02*
X137732598Y-30537447D01*
X137587332Y-30789056D02*
X137659965Y-30663252D01*
X137514699Y-30914860D02*
X137587332Y-30789056D01*
X137442066Y-31040664D02*
X137514699Y-30914860D01*
X137369433Y-31166469D02*
X137442066Y-31040664D01*
X137296799Y-31292273D02*
X137369433Y-31166469D01*
X137224166Y-31418077D02*
X137296799Y-31292273D01*
X137151533Y-31543881D02*
X137224166Y-31418077D01*
X137078900Y-31669686D02*
X137151533Y-31543881D01*
X137006267Y-31795490D02*
X137078900Y-31669686D01*
X136933634Y-31921294D02*
X137006267Y-31795490D01*
X136861001Y-32047099D02*
X136933634Y-31921294D01*
X136850050Y-32060357D02*
X136861001Y-32047099D01*
X136839100Y-32073615D02*
X136850050Y-32060357D01*
X136828150Y-32086873D02*
X136839100Y-32073615D01*
X136817199Y-32100131D02*
X136828150Y-32086873D01*
X136806249Y-32113389D02*
X136817199Y-32100131D01*
X136795299Y-32126647D02*
X136806249Y-32113389D01*
X136784348Y-32139905D02*
X136795299Y-32126647D01*
X136773398Y-32153163D02*
X136784348Y-32139905D01*
X136762448Y-32166421D02*
X136773398Y-32153163D01*
X136751498Y-32179680D02*
X136762448Y-32166421D01*
X136740547Y-32192938D02*
X136751498Y-32179680D01*
X136729597Y-32206196D02*
X136740547Y-32192938D01*
X136718647Y-32219454D02*
X136729597Y-32206196D01*
X136707696Y-32232712D02*
X136718647Y-32219454D01*
X136696746Y-32245970D02*
X136707696Y-32232712D01*
X136685796Y-32259228D02*
X136696746Y-32245970D01*
X136674845Y-32272486D02*
X136685796Y-32259228D01*
X136663895Y-32285744D02*
X136674845Y-32272486D01*
X136652945Y-32299002D02*
X136663895Y-32285744D01*
X136641995Y-32312261D02*
X136652945Y-32299002D01*
X136631044Y-32325519D02*
X136641995Y-32312261D01*
X136620094Y-32338777D02*
X136631044Y-32325519D01*
X136609144Y-32352035D02*
X136620094Y-32338777D01*
X136598193Y-32365293D02*
X136609144Y-32352035D01*
X136587243Y-32378551D02*
X136598193Y-32365293D01*
X136576293Y-32391809D02*
X136587243Y-32378551D01*
X136565342Y-32405067D02*
X136576293Y-32391809D01*
X136554392Y-32418325D02*
X136565342Y-32405067D01*
X136543442Y-32431584D02*
X136554392Y-32418325D01*
X136532492Y-32444842D02*
X136543442Y-32431584D01*
X136521541Y-32458100D02*
X136532492Y-32444842D01*
X136510591Y-32471358D02*
X136521541Y-32458100D01*
X136497481Y-32479016D02*
X136510591Y-32471358D01*
X136484371Y-32486673D02*
X136497481Y-32479016D01*
X136471261Y-32494331D02*
X136484371Y-32486673D01*
X136458151Y-32501989D02*
X136471261Y-32494331D01*
X136445041Y-32509646D02*
X136458151Y-32501989D01*
X136431931Y-32517304D02*
X136445041Y-32509646D01*
X136418821Y-32524962D02*
X136431931Y-32517304D01*
X136405712Y-32532619D02*
X136418821Y-32524962D01*
X136392602Y-32540277D02*
X136405712Y-32532619D01*
X136379492Y-32547935D02*
X136392602Y-32540277D01*
X136366382Y-32555593D02*
X136379492Y-32547935D01*
X136353272Y-32563250D02*
X136366382Y-32555593D01*
X136340162Y-32570908D02*
X136353272Y-32563250D01*
X136327052Y-32578566D02*
X136340162Y-32570908D01*
X136313942Y-32586223D02*
X136327052Y-32578566D01*
X136300832Y-32593881D02*
X136313942Y-32586223D01*
X136287722Y-32601539D02*
X136300832Y-32593881D01*
X136274612Y-32609196D02*
X136287722Y-32601539D01*
X136261502Y-32616854D02*
X136274612Y-32609196D01*
X136248392Y-32624512D02*
X136261502Y-32616854D01*
X136235282Y-32632170D02*
X136248392Y-32624512D01*
X136222173Y-32639827D02*
X136235282Y-32632170D01*
X136209063Y-32647485D02*
X136222173Y-32639827D01*
X136195953Y-32655143D02*
X136209063Y-32647485D01*
X136182843Y-32662800D02*
X136195953Y-32655143D01*
X136169733Y-32670458D02*
X136182843Y-32662800D01*
X136156623Y-32678116D02*
X136169733Y-32670458D01*
X136143513Y-32685773D02*
X136156623Y-32678116D01*
X136130403Y-32693431D02*
X136143513Y-32685773D01*
X136117293Y-32701089D02*
X136130403Y-32693431D01*
X136104183Y-32708747D02*
X136117293Y-32701089D01*
X136091073Y-32716404D02*
X136104183Y-32708747D01*
X136076919Y-32719643D02*
X136091073Y-32716404D01*
X136062765Y-32722881D02*
X136076919Y-32719643D01*
X136048612Y-32726120D02*
X136062765Y-32722881D01*
X136034458Y-32729359D02*
X136048612Y-32726120D01*
X136020304Y-32732597D02*
X136034458Y-32729359D01*
X136006150Y-32735836D02*
X136020304Y-32732597D01*
X135991996Y-32739074D02*
X136006150Y-32735836D01*
X135977842Y-32742313D02*
X135991996Y-32739074D01*
X135963688Y-32745552D02*
X135977842Y-32742313D01*
X135949534Y-32748790D02*
X135963688Y-32745552D01*
X135935380Y-32752029D02*
X135949534Y-32748790D01*
X135921226Y-32755267D02*
X135935380Y-32752029D01*
X135907073Y-32758506D02*
X135921226Y-32755267D01*
X135892919Y-32761745D02*
X135907073Y-32758506D01*
X135878765Y-32764983D02*
X135892919Y-32761745D01*
X135864611Y-32768222D02*
X135878765Y-32764983D01*
X135850457Y-32771460D02*
X135864611Y-32768222D01*
X135836303Y-32774699D02*
X135850457Y-32771460D01*
X135822149Y-32777938D02*
X135836303Y-32774699D01*
X135807995Y-32781176D02*
X135822149Y-32777938D01*
X135793841Y-32784415D02*
X135807995Y-32781176D01*
X135779687Y-32787653D02*
X135793841Y-32784415D01*
X135765534Y-32790892D02*
X135779687Y-32787653D01*
X135751380Y-32794131D02*
X135765534Y-32790892D01*
X135737226Y-32797369D02*
X135751380Y-32794131D01*
X135723072Y-32800608D02*
X135737226Y-32797369D01*
X135708918Y-32803846D02*
X135723072Y-32800608D01*
X135694764Y-32807085D02*
X135708918Y-32803846D01*
X135680610Y-32810324D02*
X135694764Y-32807085D01*
X135666456Y-32813562D02*
X135680610Y-32810324D01*
X135652302Y-32816801D02*
X135666456Y-32813562D01*
X135638148Y-32820039D02*
X135652302Y-32816801D01*
X135624066Y-32820040D02*
X135638148Y-32820039D01*
X135609984Y-32820041D02*
X135624066Y-32820040D01*
X135595902Y-32820042D02*
X135609984Y-32820041D01*
X135581819Y-32820042D02*
X135595902Y-32820042D01*
X135567737Y-32820043D02*
X135581819Y-32820042D01*
X135553655Y-32820044D02*
X135567737Y-32820043D01*
X135539573Y-32820045D02*
X135553655Y-32820044D01*
X135525491Y-32820046D02*
X135539573Y-32820045D01*
X135511408Y-32820046D02*
X135525491Y-32820046D01*
X135497326Y-32820047D02*
X135511408Y-32820046D01*
X135483244Y-32820048D02*
X135497326Y-32820047D01*
X135469162Y-32820049D02*
X135483244Y-32820048D01*
X135455079Y-32820050D02*
X135469162Y-32820049D01*
X135440997Y-32820050D02*
X135455079Y-32820050D01*
X135426915Y-32820051D02*
X135440997Y-32820050D01*
X135412833Y-32820052D02*
X135426915Y-32820051D01*
X135398751Y-32820053D02*
X135412833Y-32820052D01*
X135384668Y-32820054D02*
X135398751Y-32820053D01*
X135370586Y-32820054D02*
X135384668Y-32820054D01*
X135356504Y-32820055D02*
X135370586Y-32820054D01*
X135342422Y-32820056D02*
X135356504Y-32820055D01*
X135328339Y-32820057D02*
X135342422Y-32820056D01*
X135314257Y-32820057D02*
X135328339Y-32820057D01*
X135300175Y-32820058D02*
X135314257Y-32820057D01*
X135286093Y-32820059D02*
X135300175Y-32820058D01*
X135272011Y-32820060D02*
X135286093Y-32820059D01*
X135257928Y-32820061D02*
X135272011Y-32820060D01*
X135243846Y-32820061D02*
X135257928Y-32820061D01*
X135229764Y-32820062D02*
X135243846Y-32820061D01*
X135215682Y-32820063D02*
X135229764Y-32820062D01*
X135201599Y-32820064D02*
X135215682Y-32820063D01*
X135187517Y-32820065D02*
X135201599Y-32820064D01*
X135174622Y-32818009D02*
X135187517Y-32820065D01*
X135161727Y-32815953D02*
X135174622Y-32818009D01*
X135148832Y-32813897D02*
X135161727Y-32815953D01*
X135135938Y-32811842D02*
X135148832Y-32813897D01*
X135123043Y-32809786D02*
X135135938Y-32811842D01*
X135110148Y-32807730D02*
X135123043Y-32809786D01*
X135097253Y-32805675D02*
X135110148Y-32807730D01*
X135084358Y-32803619D02*
X135097253Y-32805675D01*
X135071463Y-32801563D02*
X135084358Y-32803619D01*
X135058568Y-32799507D02*
X135071463Y-32801563D01*
X135045673Y-32797452D02*
X135058568Y-32799507D01*
X135032778Y-32795396D02*
X135045673Y-32797452D01*
X135019883Y-32793340D02*
X135032778Y-32795396D01*
X135006989Y-32791285D02*
X135019883Y-32793340D01*
X134994094Y-32789229D02*
X135006989Y-32791285D01*
X134981199Y-32787173D02*
X134994094Y-32789229D01*
X134968304Y-32785117D02*
X134981199Y-32787173D01*
X134955409Y-32783062D02*
X134968304Y-32785117D01*
X134942514Y-32781006D02*
X134955409Y-32783062D01*
X134929619Y-32778950D02*
X134942514Y-32781006D01*
X134916724Y-32776894D02*
X134929619Y-32778950D01*
X134903829Y-32774839D02*
X134916724Y-32776894D01*
X134890934Y-32772783D02*
X134903829Y-32774839D01*
X134878040Y-32770727D02*
X134890934Y-32772783D01*
X134865145Y-32768672D02*
X134878040Y-32770727D01*
X134852250Y-32766616D02*
X134865145Y-32768672D01*
X134839355Y-32764560D02*
X134852250Y-32766616D01*
X134826460Y-32762504D02*
X134839355Y-32764560D01*
X134813565Y-32760449D02*
X134826460Y-32762504D01*
X134800670Y-32758393D02*
X134813565Y-32760449D01*
X134787775Y-32756337D02*
X134800670Y-32758393D01*
X134774880Y-32754282D02*
X134787775Y-32756337D01*
X134764288Y-32751351D02*
X134774880Y-32754282D01*
X134753696Y-32748420D02*
X134764288Y-32751351D01*
X134743105Y-32745489D02*
X134753696Y-32748420D01*
X134732513Y-32742558D02*
X134743105Y-32745489D01*
X134721921Y-32739627D02*
X134732513Y-32742558D01*
X134711329Y-32736696D02*
X134721921Y-32739627D01*
X134700737Y-32733765D02*
X134711329Y-32736696D01*
X134690145Y-32730834D02*
X134700737Y-32733765D01*
X134679553Y-32727903D02*
X134690145Y-32730834D01*
X134668961Y-32724972D02*
X134679553Y-32727903D01*
X134658369Y-32722041D02*
X134668961Y-32724972D01*
X134647777Y-32719110D02*
X134658369Y-32722041D01*
X134637185Y-32716179D02*
X134647777Y-32719110D01*
X134626593Y-32713249D02*
X134637185Y-32716179D01*
X134616001Y-32710318D02*
X134626593Y-32713249D01*
X134605410Y-32707387D02*
X134616001Y-32710318D01*
X134594818Y-32704456D02*
X134605410Y-32707387D01*
X134584226Y-32701525D02*
X134594818Y-32704456D01*
X134573634Y-32698594D02*
X134584226Y-32701525D01*
X134563042Y-32695663D02*
X134573634Y-32698594D01*
X134552450Y-32692732D02*
X134563042Y-32695663D01*
X134541858Y-32689801D02*
X134552450Y-32692732D01*
X134531266Y-32686870D02*
X134541858Y-32689801D01*
X134520674Y-32683939D02*
X134531266Y-32686870D01*
X134510082Y-32681008D02*
X134520674Y-32683939D01*
X134499490Y-32678077D02*
X134510082Y-32681008D01*
X134488898Y-32675146D02*
X134499490Y-32678077D01*
X134478306Y-32672216D02*
X134488898Y-32675146D01*
X134467715Y-32669285D02*
X134478306Y-32672216D01*
X134457123Y-32666354D02*
X134467715Y-32669285D01*
X134446531Y-32663423D02*
X134457123Y-32666354D01*
X134435939Y-32660492D02*
X134446531Y-32663423D01*
X134428765Y-32657867D02*
X134435939Y-32660492D01*
X134421592Y-32655242D02*
X134428765Y-32657867D01*
X134414419Y-32652617D02*
X134421592Y-32655242D01*
X134407246Y-32649992D02*
X134414419Y-32652617D01*
X134400072Y-32647368D02*
X134407246Y-32649992D01*
X134392899Y-32644743D02*
X134400072Y-32647368D01*
X134385726Y-32642118D02*
X134392899Y-32644743D01*
X134378552Y-32639493D02*
X134385726Y-32642118D01*
X134371379Y-32636868D02*
X134378552Y-32639493D01*
X134364206Y-32634243D02*
X134371379Y-32636868D01*
X134357032Y-32631619D02*
X134364206Y-32634243D01*
X134349859Y-32628994D02*
X134357032Y-32631619D01*
X134342686Y-32626369D02*
X134349859Y-32628994D01*
X134335513Y-32623744D02*
X134342686Y-32626369D01*
X134328339Y-32621119D02*
X134335513Y-32623744D01*
X134321166Y-32618494D02*
X134328339Y-32621119D01*
X134313993Y-32615870D02*
X134321166Y-32618494D01*
X134306819Y-32613245D02*
X134313993Y-32615870D01*
X134299646Y-32610620D02*
X134306819Y-32613245D01*
X134292473Y-32607995D02*
X134299646Y-32610620D01*
X134285299Y-32605370D02*
X134292473Y-32607995D01*
X134278126Y-32602745D02*
X134285299Y-32605370D01*
X134270953Y-32600120D02*
X134278126Y-32602745D01*
X134263780Y-32597496D02*
X134270953Y-32600120D01*
X134256606Y-32594871D02*
X134263780Y-32597496D01*
X134249433Y-32592246D02*
X134256606Y-32594871D01*
X134242260Y-32589621D02*
X134249433Y-32592246D01*
X134235086Y-32586996D02*
X134242260Y-32589621D01*
X134227913Y-32584371D02*
X134235086Y-32586996D01*
X134220740Y-32581747D02*
X134227913Y-32584371D01*
X134213567Y-32579122D02*
X134220740Y-32581747D01*
X134206393Y-32576497D02*
X134213567Y-32579122D01*
X134203754Y-32575359D02*
X134206393Y-32576497D01*
X134201115Y-32574222D02*
X134203754Y-32575359D01*
X134198476Y-32573084D02*
X134201115Y-32574222D01*
X134195837Y-32571947D02*
X134198476Y-32573084D01*
X134193198Y-32570810D02*
X134195837Y-32571947D01*
X134190559Y-32569672D02*
X134193198Y-32570810D01*
X134187920Y-32568535D02*
X134190559Y-32569672D01*
X134185281Y-32567397D02*
X134187920Y-32568535D01*
X134182642Y-32566260D02*
X134185281Y-32567397D01*
X134180003Y-32565122D02*
X134182642Y-32566260D01*
X134177364Y-32563985D02*
X134180003Y-32565122D01*
X134174725Y-32562847D02*
X134177364Y-32563985D01*
X134172086Y-32561710D02*
X134174725Y-32562847D01*
X134169447Y-32560572D02*
X134172086Y-32561710D01*
X134166808Y-32559435D02*
X134169447Y-32560572D01*
X134164169Y-32558298D02*
X134166808Y-32559435D01*
X134161530Y-32557160D02*
X134164169Y-32558298D01*
X134158891Y-32556023D02*
X134161530Y-32557160D01*
X134156252Y-32554885D02*
X134158891Y-32556023D01*
X134153613Y-32553748D02*
X134156252Y-32554885D01*
X134150974Y-32552610D02*
X134153613Y-32553748D01*
X134148335Y-32551473D02*
X134150974Y-32552610D01*
X134145696Y-32550335D02*
X134148335Y-32551473D01*
X134143057Y-32549198D02*
X134145696Y-32550335D01*
X134140418Y-32548060D02*
X134143057Y-32549198D01*
X134137779Y-32546923D02*
X134140418Y-32548060D01*
X134135140Y-32545785D02*
X134137779Y-32546923D01*
X134132501Y-32544648D02*
X134135140Y-32545785D01*
X134129862Y-32543511D02*
X134132501Y-32544648D01*
X134127223Y-32542373D02*
X134129862Y-32543511D01*
X134124584Y-32541236D02*
X134127223Y-32542373D01*
X134121945Y-32540098D02*
X134124584Y-32541236D01*
X134083518Y-32514978D02*
X134121945Y-32540098D01*
X134045092Y-32489857D02*
X134083518Y-32514978D01*
X134006666Y-32464737D02*
X134045092Y-32489857D01*
X133968240Y-32439616D02*
X134006666Y-32464737D01*
X133929814Y-32414496D02*
X133968240Y-32439616D01*
X133891388Y-32389375D02*
X133929814Y-32414496D01*
X133852961Y-32364255D02*
X133891388Y-32389375D01*
X133814535Y-32339134D02*
X133852961Y-32364255D01*
X133776109Y-32314014D02*
X133814535Y-32339134D01*
X133737683Y-32288893D02*
X133776109Y-32314014D01*
X133699257Y-32263773D02*
X133737683Y-32288893D01*
X133660831Y-32238652D02*
X133699257Y-32263773D01*
X133622404Y-32213532D02*
X133660831Y-32238652D01*
X133583978Y-32188411D02*
X133622404Y-32213532D01*
X133545552Y-32163291D02*
X133583978Y-32188411D01*
X133507126Y-32138170D02*
X133545552Y-32163291D01*
X133468700Y-32113050D02*
X133507126Y-32138170D01*
X133430274Y-32087929D02*
X133468700Y-32113050D01*
X133391847Y-32062809D02*
X133430274Y-32087929D01*
X133353421Y-32037688D02*
X133391847Y-32062809D01*
X133314995Y-32012568D02*
X133353421Y-32037688D01*
X133276569Y-31987447D02*
X133314995Y-32012568D01*
X133238143Y-31962327D02*
X133276569Y-31987447D01*
X133199717Y-31937206D02*
X133238143Y-31962327D01*
X133161291Y-31912086D02*
X133199717Y-31937206D01*
X133122864Y-31886965D02*
X133161291Y-31912086D01*
X133084438Y-31861845D02*
X133122864Y-31886965D01*
X133046012Y-31836725D02*
X133084438Y-31861845D01*
X133007586Y-31811604D02*
X133046012Y-31836725D01*
X132969160Y-31786484D02*
X133007586Y-31811604D01*
X132930734Y-31761363D02*
X132969160Y-31786484D01*
X132892307Y-31736243D02*
X132930734Y-31761363D01*
X132857538Y-31714139D02*
X132892307Y-31736243D01*
X132822768Y-31692035D02*
X132857538Y-31714139D01*
X132787999Y-31669932D02*
X132822768Y-31692035D01*
X132753229Y-31647828D02*
X132787999Y-31669932D01*
X132718460Y-31625724D02*
X132753229Y-31647828D01*
X132683690Y-31603621D02*
X132718460Y-31625724D01*
X132648921Y-31581517D02*
X132683690Y-31603621D01*
X132614151Y-31559414D02*
X132648921Y-31581517D01*
X132579382Y-31537310D02*
X132614151Y-31559414D01*
X132544612Y-31515206D02*
X132579382Y-31537310D01*
X132509843Y-31493103D02*
X132544612Y-31515206D01*
X132475073Y-31470999D02*
X132509843Y-31493103D01*
X132440303Y-31448895D02*
X132475073Y-31470999D01*
X132405534Y-31426792D02*
X132440303Y-31448895D01*
X132370764Y-31404688D02*
X132405534Y-31426792D01*
X132335995Y-31382584D02*
X132370764Y-31404688D01*
X132301225Y-31360481D02*
X132335995Y-31382584D01*
X132266456Y-31338377D02*
X132301225Y-31360481D01*
X132231686Y-31316274D02*
X132266456Y-31338377D01*
X132196917Y-31294170D02*
X132231686Y-31316274D01*
X132162147Y-31272066D02*
X132196917Y-31294170D01*
X132127378Y-31249963D02*
X132162147Y-31272066D01*
X132092608Y-31227859D02*
X132127378Y-31249963D01*
X132057839Y-31205755D02*
X132092608Y-31227859D01*
X132023069Y-31183652D02*
X132057839Y-31205755D01*
X131988300Y-31161548D02*
X132023069Y-31183652D01*
X131953530Y-31139445D02*
X131988300Y-31161548D01*
X131918761Y-31117341D02*
X131953530Y-31139445D01*
X131883991Y-31095237D02*
X131918761Y-31117341D01*
X131849221Y-31073134D02*
X131883991Y-31095237D01*
X131814452Y-31051030D02*
X131849221Y-31073134D01*
X131779682Y-31028926D02*
X131814452Y-31051030D01*
X131747153Y-31008923D02*
X131779682Y-31028926D01*
X131714623Y-30988919D02*
X131747153Y-31008923D01*
X131682093Y-30968915D02*
X131714623Y-30988919D01*
X131649564Y-30948912D02*
X131682093Y-30968915D01*
X131617034Y-30928908D02*
X131649564Y-30948912D01*
X131584505Y-30908904D02*
X131617034Y-30928908D01*
X131551975Y-30888901D02*
X131584505Y-30908904D01*
X131519445Y-30868897D02*
X131551975Y-30888901D01*
X131486916Y-30848894D02*
X131519445Y-30868897D01*
X131454386Y-30828890D02*
X131486916Y-30848894D01*
X131421856Y-30808886D02*
X131454386Y-30828890D01*
X131389327Y-30788883D02*
X131421856Y-30808886D01*
X131356797Y-30768879D02*
X131389327Y-30788883D01*
X131324267Y-30748875D02*
X131356797Y-30768879D01*
X131291738Y-30728872D02*
X131324267Y-30748875D01*
X131259208Y-30708868D02*
X131291738Y-30728872D01*
X131226679Y-30688864D02*
X131259208Y-30708868D01*
X131194149Y-30668861D02*
X131226679Y-30688864D01*
X131161619Y-30648857D02*
X131194149Y-30668861D01*
X131129090Y-30628853D02*
X131161619Y-30648857D01*
X131096560Y-30608850D02*
X131129090Y-30628853D01*
X131064030Y-30588846D02*
X131096560Y-30608850D01*
X131031501Y-30568842D02*
X131064030Y-30588846D01*
X130998971Y-30548839D02*
X131031501Y-30568842D01*
X130966442Y-30528835D02*
X130998971Y-30548839D01*
X130933912Y-30508832D02*
X130966442Y-30528835D01*
X130901382Y-30488828D02*
X130933912Y-30508832D01*
X130868853Y-30468824D02*
X130901382Y-30488828D01*
X130836323Y-30448821D02*
X130868853Y-30468824D01*
X130803793Y-30428817D02*
X130836323Y-30448821D01*
X130771264Y-30408813D02*
X130803793Y-30428817D01*
X130738734Y-30388810D02*
X130771264Y-30408813D01*
X130707028Y-30369989D02*
X130738734Y-30388810D01*
X130675321Y-30351169D02*
X130707028Y-30369989D01*
X130643615Y-30332348D02*
X130675321Y-30351169D01*
X130611908Y-30313527D02*
X130643615Y-30332348D01*
X130580202Y-30294707D02*
X130611908Y-30313527D01*
X130548495Y-30275886D02*
X130580202Y-30294707D01*
X130516789Y-30257066D02*
X130548495Y-30275886D01*
X130485082Y-30238245D02*
X130516789Y-30257066D01*
X130453376Y-30219425D02*
X130485082Y-30238245D01*
X130421669Y-30200604D02*
X130453376Y-30219425D01*
X130389963Y-30181784D02*
X130421669Y-30200604D01*
X130358256Y-30162963D02*
X130389963Y-30181784D01*
X130326550Y-30144143D02*
X130358256Y-30162963D01*
X130294843Y-30125322D02*
X130326550Y-30144143D01*
X130263137Y-30106502D02*
X130294843Y-30125322D01*
X130231431Y-30087681D02*
X130263137Y-30106502D01*
X130199724Y-30068860D02*
X130231431Y-30087681D01*
X130168018Y-30050040D02*
X130199724Y-30068860D01*
X130136311Y-30031219D02*
X130168018Y-30050040D01*
X130104605Y-30012399D02*
X130136311Y-30031219D01*
X130072898Y-29993578D02*
X130104605Y-30012399D01*
X130041192Y-29974758D02*
X130072898Y-29993578D01*
X130009485Y-29955937D02*
X130041192Y-29974758D01*
X129977779Y-29937117D02*
X130009485Y-29955937D01*
X129946072Y-29918296D02*
X129977779Y-29937117D01*
X129914366Y-29899476D02*
X129946072Y-29918296D01*
X129882659Y-29880655D02*
X129914366Y-29899476D01*
X129850953Y-29861834D02*
X129882659Y-29880655D01*
X129819246Y-29843014D02*
X129850953Y-29861834D01*
X129787540Y-29824193D02*
X129819246Y-29843014D01*
X129755833Y-29805373D02*
X129787540Y-29824193D01*
X129724127Y-29786552D02*
X129755833Y-29805373D01*
X129691827Y-29767998D02*
X129724127Y-29786552D01*
X129659527Y-29749444D02*
X129691827Y-29767998D01*
X129627227Y-29730889D02*
X129659527Y-29749444D01*
X129594927Y-29712335D02*
X129627227Y-29730889D01*
X129562627Y-29693781D02*
X129594927Y-29712335D01*
X129530327Y-29675226D02*
X129562627Y-29693781D01*
X129498027Y-29656672D02*
X129530327Y-29675226D01*
X129465727Y-29638118D02*
X129498027Y-29656672D01*
X129433427Y-29619564D02*
X129465727Y-29638118D01*
X129401127Y-29601009D02*
X129433427Y-29619564D01*
X129368827Y-29582455D02*
X129401127Y-29601009D01*
X129336527Y-29563901D02*
X129368827Y-29582455D01*
X129304226Y-29545346D02*
X129336527Y-29563901D01*
X129271926Y-29526792D02*
X129304226Y-29545346D01*
X129239626Y-29508238D02*
X129271926Y-29526792D01*
X129207326Y-29489683D02*
X129239626Y-29508238D01*
X129175026Y-29471129D02*
X129207326Y-29489683D01*
X129142726Y-29452575D02*
X129175026Y-29471129D01*
X129110426Y-29434020D02*
X129142726Y-29452575D01*
X129078126Y-29415466D02*
X129110426Y-29434020D01*
X129045826Y-29396912D02*
X129078126Y-29415466D01*
X129013526Y-29378358D02*
X129045826Y-29396912D01*
X128981226Y-29359803D02*
X129013526Y-29378358D01*
X128948926Y-29341249D02*
X128981226Y-29359803D01*
X128916626Y-29322695D02*
X128948926Y-29341249D01*
X128884326Y-29304140D02*
X128916626Y-29322695D01*
X128852026Y-29285586D02*
X128884326Y-29304140D01*
X128819726Y-29267032D02*
X128852026Y-29285586D01*
X128787426Y-29248477D02*
X128819726Y-29267032D01*
X128755126Y-29229923D02*
X128787426Y-29248477D01*
X128722826Y-29211369D02*
X128755126Y-29229923D01*
X128690526Y-29192814D02*
X128722826Y-29211369D01*
X128656215Y-29173610D02*
X128690526Y-29192814D01*
X128621905Y-29154405D02*
X128656215Y-29173610D01*
X128587595Y-29135200D02*
X128621905Y-29154405D01*
X128553284Y-29115995D02*
X128587595Y-29135200D01*
X128518974Y-29096790D02*
X128553284Y-29115995D01*
X128484664Y-29077585D02*
X128518974Y-29096790D01*
X128450353Y-29058380D02*
X128484664Y-29077585D01*
X128416043Y-29039175D02*
X128450353Y-29058380D01*
X128381733Y-29019970D02*
X128416043Y-29039175D01*
X128347422Y-29000765D02*
X128381733Y-29019970D01*
X128313112Y-28981560D02*
X128347422Y-29000765D01*
X128278802Y-28962355D02*
X128313112Y-28981560D01*
X128244491Y-28943150D02*
X128278802Y-28962355D01*
X128210181Y-28923945D02*
X128244491Y-28943150D01*
X128175871Y-28904740D02*
X128210181Y-28923945D01*
X128141560Y-28885535D02*
X128175871Y-28904740D01*
X128107250Y-28866330D02*
X128141560Y-28885535D01*
X128072940Y-28847125D02*
X128107250Y-28866330D01*
X128038629Y-28827920D02*
X128072940Y-28847125D01*
X128004319Y-28808715D02*
X128038629Y-28827920D01*
X127970009Y-28789510D02*
X128004319Y-28808715D01*
X127935698Y-28770306D02*
X127970009Y-28789510D01*
X127901388Y-28751101D02*
X127935698Y-28770306D01*
X127867078Y-28731896D02*
X127901388Y-28751101D01*
X127832767Y-28712691D02*
X127867078Y-28731896D01*
X127798457Y-28693486D02*
X127832767Y-28712691D01*
X127764147Y-28674281D02*
X127798457Y-28693486D01*
X127729836Y-28655076D02*
X127764147Y-28674281D01*
X127695526Y-28635871D02*
X127729836Y-28655076D01*
X127661216Y-28616666D02*
X127695526Y-28635871D01*
X127626905Y-28597461D02*
X127661216Y-28616666D01*
X127592595Y-28578256D02*
X127626905Y-28597461D01*
X127554858Y-28557484D02*
X127592595Y-28578256D01*
X127517120Y-28536711D02*
X127554858Y-28557484D01*
X127479383Y-28515939D02*
X127517120Y-28536711D01*
X127441645Y-28495166D02*
X127479383Y-28515939D01*
X127403908Y-28474394D02*
X127441645Y-28495166D01*
X127366171Y-28453621D02*
X127403908Y-28474394D01*
X127328433Y-28432849D02*
X127366171Y-28453621D01*
X127290696Y-28412076D02*
X127328433Y-28432849D01*
X127252959Y-28391304D02*
X127290696Y-28412076D01*
X127215221Y-28370531D02*
X127252959Y-28391304D01*
X127177484Y-28349759D02*
X127215221Y-28370531D01*
X127139746Y-28328986D02*
X127177484Y-28349759D01*
X127102009Y-28308214D02*
X127139746Y-28328986D01*
X127064272Y-28287441D02*
X127102009Y-28308214D01*
X127026534Y-28266669D02*
X127064272Y-28287441D01*
X126988797Y-28245896D02*
X127026534Y-28266669D01*
X126951060Y-28225124D02*
X126988797Y-28245896D01*
X126913322Y-28204352D02*
X126951060Y-28225124D01*
X126875585Y-28183579D02*
X126913322Y-28204352D01*
X126837847Y-28162807D02*
X126875585Y-28183579D01*
X126800110Y-28142034D02*
X126837847Y-28162807D01*
X126762373Y-28121262D02*
X126800110Y-28142034D01*
X126724635Y-28100489D02*
X126762373Y-28121262D01*
X126686898Y-28079717D02*
X126724635Y-28100489D01*
X126649161Y-28058944D02*
X126686898Y-28079717D01*
X126611423Y-28038172D02*
X126649161Y-28058944D01*
X126573686Y-28017399D02*
X126611423Y-28038172D01*
X126535949Y-27996627D02*
X126573686Y-28017399D01*
X126498211Y-27975854D02*
X126535949Y-27996627D01*
X126460474Y-27955082D02*
X126498211Y-27975854D01*
X126422736Y-27934309D02*
X126460474Y-27955082D01*
X126384999Y-27913537D02*
X126422736Y-27934309D01*
X126342418Y-27890280D02*
X126384999Y-27913537D01*
X126299837Y-27867023D02*
X126342418Y-27890280D01*
X126257256Y-27843766D02*
X126299837Y-27867023D01*
X126214675Y-27820509D02*
X126257256Y-27843766D01*
X126172093Y-27797253D02*
X126214675Y-27820509D01*
X126129512Y-27773996D02*
X126172093Y-27797253D01*
X126086931Y-27750739D02*
X126129512Y-27773996D01*
X126044350Y-27727482D02*
X126086931Y-27750739D01*
X126001769Y-27704225D02*
X126044350Y-27727482D01*
X125959188Y-27680968D02*
X126001769Y-27704225D01*
X125916607Y-27657711D02*
X125959188Y-27680968D01*
X125874025Y-27634455D02*
X125916607Y-27657711D01*
X125831444Y-27611198D02*
X125874025Y-27634455D01*
X125788863Y-27587941D02*
X125831444Y-27611198D01*
X125746282Y-27564684D02*
X125788863Y-27587941D01*
X125703701Y-27541427D02*
X125746282Y-27564684D01*
X125661120Y-27518170D02*
X125703701Y-27541427D01*
X125618539Y-27494913D02*
X125661120Y-27518170D01*
X125575957Y-27471656D02*
X125618539Y-27494913D01*
X125533376Y-27448400D02*
X125575957Y-27471656D01*
X125490795Y-27425143D02*
X125533376Y-27448400D01*
X125448214Y-27401886D02*
X125490795Y-27425143D01*
X125405633Y-27378629D02*
X125448214Y-27401886D01*
X125363052Y-27355372D02*
X125405633Y-27378629D01*
X125320471Y-27332115D02*
X125363052Y-27355372D01*
X125277890Y-27308858D02*
X125320471Y-27332115D01*
X125235308Y-27285602D02*
X125277890Y-27308858D01*
X125192727Y-27262345D02*
X125235308Y-27285602D01*
X125150146Y-27239088D02*
X125192727Y-27262345D01*
X125107565Y-27215831D02*
X125150146Y-27239088D01*
X125064984Y-27192574D02*
X125107565Y-27215831D01*
X125022403Y-27169317D02*
X125064984Y-27192574D01*
X124863270Y-27076176D02*
X125022403Y-27169317D01*
X124704138Y-26983035D02*
X124863270Y-27076176D01*
X124545006Y-26889894D02*
X124704138Y-26983035D01*
X124385873Y-26796752D02*
X124545006Y-26889894D01*
X124226741Y-26703611D02*
X124385873Y-26796752D01*
X124067609Y-26610470D02*
X124226741Y-26703611D01*
X123908476Y-26517329D02*
X124067609Y-26610470D01*
X123749344Y-26424188D02*
X123908476Y-26517329D01*
X123590212Y-26331046D02*
X123749344Y-26424188D01*
X123431079Y-26237905D02*
X123590212Y-26331046D01*
X123271947Y-26144764D02*
X123431079Y-26237905D01*
X123112814Y-26051623D02*
X123271947Y-26144764D01*
X122953682Y-25958481D02*
X123112814Y-26051623D01*
X122794550Y-25865340D02*
X122953682Y-25958481D01*
X122635417Y-25772199D02*
X122794550Y-25865340D01*
X122476285Y-25679058D02*
X122635417Y-25772199D01*
X122317153Y-25585917D02*
X122476285Y-25679058D01*
X122158020Y-25492775D02*
X122317153Y-25585917D01*
X121998888Y-25399634D02*
X122158020Y-25492775D01*
X121839756Y-25306493D02*
X121998888Y-25399634D01*
X121680623Y-25213352D02*
X121839756Y-25306493D01*
X121521491Y-25120210D02*
X121680623Y-25213352D01*
X121362359Y-25027069D02*
X121521491Y-25120210D01*
X121203226Y-24933928D02*
X121362359Y-25027069D01*
X121044094Y-24840787D02*
X121203226Y-24933928D01*
X120884961Y-24747646D02*
X121044094Y-24840787D01*
X120725829Y-24654504D02*
X120884961Y-24747646D01*
X120566697Y-24561363D02*
X120725829Y-24654504D01*
X120407564Y-24468222D02*
X120566697Y-24561363D01*
X120248432Y-24375081D02*
X120407564Y-24468222D01*
X120089300Y-24281940D02*
X120248432Y-24375081D01*
X119930167Y-24188798D02*
X120089300Y-24281940D01*
X119774203Y-24092769D02*
X119930167Y-24188798D01*
X119618238Y-23996740D02*
X119774203Y-24092769D01*
X119462274Y-23900711D02*
X119618238Y-23996740D01*
X119306309Y-23804682D02*
X119462274Y-23900711D01*
X119150345Y-23708653D02*
X119306309Y-23804682D01*
X118994380Y-23612624D02*
X119150345Y-23708653D01*
X118838415Y-23516595D02*
X118994380Y-23612624D01*
X118682451Y-23420566D02*
X118838415Y-23516595D01*
X118526486Y-23324538D02*
X118682451Y-23420566D01*
X118370522Y-23228509D02*
X118526486Y-23324538D01*
X118214557Y-23132480D02*
X118370522Y-23228509D01*
X118058593Y-23036451D02*
X118214557Y-23132480D01*
X117902628Y-22940422D02*
X118058593Y-23036451D01*
X117746663Y-22844393D02*
X117902628Y-22940422D01*
X117590699Y-22748364D02*
X117746663Y-22844393D01*
X117434734Y-22652335D02*
X117590699Y-22748364D01*
X117278770Y-22556306D02*
X117434734Y-22652335D01*
X117122805Y-22460277D02*
X117278770Y-22556306D01*
X116966841Y-22364248D02*
X117122805Y-22460277D01*
X116810876Y-22268219D02*
X116966841Y-22364248D01*
X116654911Y-22172190D02*
X116810876Y-22268219D01*
X116498947Y-22076161D02*
X116654911Y-22172190D01*
X116342982Y-21980132D02*
X116498947Y-22076161D01*
X116187018Y-21884103D02*
X116342982Y-21980132D01*
X116031053Y-21788074D02*
X116187018Y-21884103D01*
X115875089Y-21692045D02*
X116031053Y-21788074D01*
X115719124Y-21596016D02*
X115875089Y-21692045D01*
X115563160Y-21499987D02*
X115719124Y-21596016D01*
X115407195Y-21403958D02*
X115563160Y-21499987D01*
X115251230Y-21307929D02*
X115407195Y-21403958D01*
X115095266Y-21211900D02*
X115251230Y-21307929D01*
X114939301Y-21115871D02*
X115095266Y-21211900D01*
X114784962Y-21019195D02*
X114939301Y-21115871D01*
X114630622Y-20922519D02*
X114784962Y-21019195D01*
X114476283Y-20825842D02*
X114630622Y-20922519D01*
X114321944Y-20729166D02*
X114476283Y-20825842D01*
X114167604Y-20632490D02*
X114321944Y-20729166D01*
X114013265Y-20535813D02*
X114167604Y-20632490D01*
X113858925Y-20439137D02*
X114013265Y-20535813D01*
X113704586Y-20342461D02*
X113858925Y-20439137D01*
X113550246Y-20245785D02*
X113704586Y-20342461D01*
X113395907Y-20149108D02*
X113550246Y-20245785D01*
X113241568Y-20052432D02*
X113395907Y-20149108D01*
X113087228Y-19955756D02*
X113241568Y-20052432D01*
X112932889Y-19859079D02*
X113087228Y-19955756D01*
X112778549Y-19762403D02*
X112932889Y-19859079D01*
X112624210Y-19665727D02*
X112778549Y-19762403D01*
X112469871Y-19569051D02*
X112624210Y-19665727D01*
X112315531Y-19472374D02*
X112469871Y-19569051D01*
X112161192Y-19375698D02*
X112315531Y-19472374D01*
X112006852Y-19279022D02*
X112161192Y-19375698D01*
X111852513Y-19182345D02*
X112006852Y-19279022D01*
X111698173Y-19085669D02*
X111852513Y-19182345D01*
X111543834Y-18988993D02*
X111698173Y-19085669D01*
X111389495Y-18892317D02*
X111543834Y-18988993D01*
X111235155Y-18795640D02*
X111389495Y-18892317D01*
X111080816Y-18698964D02*
X111235155Y-18795640D01*
X110926476Y-18602288D02*
X111080816Y-18698964D01*
X110772137Y-18505612D02*
X110926476Y-18602288D01*
X110617797Y-18408935D02*
X110772137Y-18505612D01*
X110463458Y-18312259D02*
X110617797Y-18408935D01*
X110309119Y-18215583D02*
X110463458Y-18312259D01*
X110154779Y-18118906D02*
X110309119Y-18215583D01*
X110000440Y-18022230D02*
X110154779Y-18118906D01*
X109846183Y-17927147D02*
X110000440Y-18022230D01*
X109691926Y-17832064D02*
X109846183Y-17927147D01*
X109537669Y-17736981D02*
X109691926Y-17832064D01*
X109383412Y-17641898D02*
X109537669Y-17736981D01*
X109229155Y-17546814D02*
X109383412Y-17641898D01*
X109074898Y-17451731D02*
X109229155Y-17546814D01*
X108920641Y-17356648D02*
X109074898Y-17451731D01*
X108766384Y-17261565D02*
X108920641Y-17356648D01*
X108612127Y-17166482D02*
X108766384Y-17261565D01*
X108457870Y-17071399D02*
X108612127Y-17166482D01*
X108303614Y-16976316D02*
X108457870Y-17071399D01*
X108149357Y-16881233D02*
X108303614Y-16976316D01*
X107995100Y-16786149D02*
X108149357Y-16881233D01*
X107840843Y-16691066D02*
X107995100Y-16786149D01*
X107686586Y-16595983D02*
X107840843Y-16691066D01*
X107532329Y-16500900D02*
X107686586Y-16595983D01*
X107378072Y-16405817D02*
X107532329Y-16500900D01*
X107223815Y-16310734D02*
X107378072Y-16405817D01*
X107069558Y-16215651D02*
X107223815Y-16310734D01*
X106915301Y-16120567D02*
X107069558Y-16215651D01*
X106761044Y-16025484D02*
X106915301Y-16120567D01*
X106606787Y-15930401D02*
X106761044Y-16025484D01*
X106452530Y-15835318D02*
X106606787Y-15930401D01*
X106298273Y-15740235D02*
X106452530Y-15835318D01*
X106144017Y-15645152D02*
X106298273Y-15740235D01*
X105989760Y-15550069D02*
X106144017Y-15645152D01*
X105835503Y-15454986D02*
X105989760Y-15550069D01*
X105681246Y-15359902D02*
X105835503Y-15454986D01*
X105526989Y-15264819D02*
X105681246Y-15359902D01*
X105372732Y-15169736D02*
X105526989Y-15264819D01*
X105218475Y-15074653D02*
X105372732Y-15169736D01*
X105064218Y-14979570D02*
X105218475Y-15074653D01*
X104908501Y-14888320D02*
X105064218Y-14979570D01*
X104752784Y-14797071D02*
X104908501Y-14888320D01*
X104597067Y-14705821D02*
X104752784Y-14797071D01*
X104441350Y-14614572D02*
X104597067Y-14705821D01*
X104285633Y-14523322D02*
X104441350Y-14614572D01*
X104129915Y-14432073D02*
X104285633Y-14523322D01*
X103974198Y-14340823D02*
X104129915Y-14432073D01*
X103818481Y-14249574D02*
X103974198Y-14340823D01*
X103662764Y-14158324D02*
X103818481Y-14249574D01*
X103507047Y-14067074D02*
X103662764Y-14158324D01*
X103351330Y-13975825D02*
X103507047Y-14067074D01*
X103195613Y-13884575D02*
X103351330Y-13975825D01*
X103039896Y-13793326D02*
X103195613Y-13884575D01*
X102884179Y-13702076D02*
X103039896Y-13793326D01*
X102728462Y-13610827D02*
X102884179Y-13702076D01*
X102572745Y-13519577D02*
X102728462Y-13610827D01*
X102417028Y-13428328D02*
X102572745Y-13519577D01*
X102261310Y-13337078D02*
X102417028Y-13428328D01*
X102105593Y-13245829D02*
X102261310Y-13337078D01*
X101949876Y-13154579D02*
X102105593Y-13245829D01*
X101794159Y-13063330D02*
X101949876Y-13154579D01*
X101638442Y-12972080D02*
X101794159Y-13063330D01*
X101482725Y-12880831D02*
X101638442Y-12972080D01*
X101327008Y-12789581D02*
X101482725Y-12880831D01*
X101171291Y-12698331D02*
X101327008Y-12789581D01*
X101015574Y-12607082D02*
X101171291Y-12698331D01*
X100859857Y-12515832D02*
X101015574Y-12607082D01*
X100704140Y-12424583D02*
X100859857Y-12515832D01*
X100548422Y-12333333D02*
X100704140Y-12424583D01*
X100392705Y-12242084D02*
X100548422Y-12333333D01*
X100236988Y-12150834D02*
X100392705Y-12242084D01*
X100081271Y-12059585D02*
X100236988Y-12150834D01*
X99922551Y-11974409D02*
X100081271Y-12059585D01*
X99763831Y-11889234D02*
X99922551Y-11974409D01*
X99605112Y-11804058D02*
X99763831Y-11889234D01*
X99446392Y-11718883D02*
X99605112Y-11804058D01*
X99287672Y-11633707D02*
X99446392Y-11718883D01*
X99128952Y-11548532D02*
X99287672Y-11633707D01*
X98970232Y-11463356D02*
X99128952Y-11548532D01*
X98811512Y-11378181D02*
X98970232Y-11463356D01*
X98652792Y-11293005D02*
X98811512Y-11378181D01*
X98494072Y-11207830D02*
X98652792Y-11293005D01*
X98335352Y-11122654D02*
X98494072Y-11207830D01*
X98176632Y-11037479D02*
X98335352Y-11122654D01*
X98017913Y-10952303D02*
X98176632Y-11037479D01*
X97859193Y-10867128D02*
X98017913Y-10952303D01*
X97700473Y-10781952D02*
X97859193Y-10867128D01*
X97541753Y-10696777D02*
X97700473Y-10781952D01*
X97383033Y-10611602D02*
X97541753Y-10696777D01*
X97224313Y-10526426D02*
X97383033Y-10611602D01*
X97065593Y-10441251D02*
X97224313Y-10526426D01*
X96906873Y-10356075D02*
X97065593Y-10441251D01*
X96748153Y-10270900D02*
X96906873Y-10356075D01*
X96589434Y-10185724D02*
X96748153Y-10270900D01*
X96430714Y-10100549D02*
X96589434Y-10185724D01*
X96271994Y-10015373D02*
X96430714Y-10100549D01*
X96113274Y-9930198D02*
X96271994Y-10015373D01*
X95954554Y-9845022D02*
X96113274Y-9930198D01*
X95795834Y-9759847D02*
X95954554Y-9845022D01*
X95637114Y-9674671D02*
X95795834Y-9759847D01*
X95478394Y-9589496D02*
X95637114Y-9674671D01*
X95319674Y-9504320D02*
X95478394Y-9589496D01*
X95160954Y-9419145D02*
X95319674Y-9504320D01*
X95002235Y-9333969D02*
X95160954Y-9419145D01*
X94838969Y-9257108D02*
X95002235Y-9333969D01*
X94675704Y-9180247D02*
X94838969Y-9257108D01*
X94512439Y-9103386D02*
X94675704Y-9180247D01*
X94349173Y-9026525D02*
X94512439Y-9103386D01*
X94185908Y-8949664D02*
X94349173Y-9026525D01*
X94022642Y-8872803D02*
X94185908Y-8949664D01*
X93859377Y-8795942D02*
X94022642Y-8872803D01*
X93696112Y-8719081D02*
X93859377Y-8795942D01*
X93532846Y-8642220D02*
X93696112Y-8719081D01*
X93369581Y-8565359D02*
X93532846Y-8642220D01*
X93206316Y-8488498D02*
X93369581Y-8565359D01*
X93043050Y-8411637D02*
X93206316Y-8488498D01*
X92879785Y-8334777D02*
X93043050Y-8411637D01*
X92716520Y-8257916D02*
X92879785Y-8334777D01*
X92553254Y-8181055D02*
X92716520Y-8257916D01*
X92389989Y-8104194D02*
X92553254Y-8181055D01*
X92226724Y-8027333D02*
X92389989Y-8104194D01*
X92063458Y-7950472D02*
X92226724Y-8027333D01*
X91900193Y-7873611D02*
X92063458Y-7950472D01*
X91736928Y-7796750D02*
X91900193Y-7873611D01*
X91573662Y-7719889D02*
X91736928Y-7796750D01*
X91410397Y-7643028D02*
X91573662Y-7719889D01*
X91247131Y-7566167D02*
X91410397Y-7643028D01*
X91083866Y-7489306D02*
X91247131Y-7566167D01*
X90920601Y-7412445D02*
X91083866Y-7489306D01*
X90757335Y-7335584D02*
X90920601Y-7412445D01*
X90594070Y-7258723D02*
X90757335Y-7335584D01*
X90430805Y-7181862D02*
X90594070Y-7258723D01*
X90267539Y-7105001D02*
X90430805Y-7181862D01*
X90104274Y-7028140D02*
X90267539Y-7105001D01*
X89941009Y-6951279D02*
X90104274Y-7028140D01*
X89777743Y-6874418D02*
X89941009Y-6951279D01*
X89608390Y-6808112D02*
X89777743Y-6874418D01*
X89439036Y-6741806D02*
X89608390Y-6808112D01*
X89269683Y-6675500D02*
X89439036Y-6741806D01*
X89100329Y-6609194D02*
X89269683Y-6675500D01*
X88930976Y-6542888D02*
X89100329Y-6609194D01*
X88761623Y-6476582D02*
X88930976Y-6542888D01*
X88592269Y-6410276D02*
X88761623Y-6476582D01*
X88422916Y-6343970D02*
X88592269Y-6410276D01*
X88253562Y-6277664D02*
X88422916Y-6343970D01*
X88084209Y-6211358D02*
X88253562Y-6277664D01*
X87914855Y-6145052D02*
X88084209Y-6211358D01*
X87745502Y-6078746D02*
X87914855Y-6145052D01*
X87576148Y-6012440D02*
X87745502Y-6078746D01*
X87406795Y-5946134D02*
X87576148Y-6012440D01*
X87237441Y-5879828D02*
X87406795Y-5946134D01*
X87068088Y-5813522D02*
X87237441Y-5879828D01*
X86898735Y-5747215D02*
X87068088Y-5813522D01*
X86729381Y-5680909D02*
X86898735Y-5747215D01*
X86560028Y-5614603D02*
X86729381Y-5680909D01*
X86390674Y-5548297D02*
X86560028Y-5614603D01*
X86221321Y-5481991D02*
X86390674Y-5548297D01*
X86051967Y-5415685D02*
X86221321Y-5481991D01*
X85882614Y-5349379D02*
X86051967Y-5415685D01*
X85713260Y-5283073D02*
X85882614Y-5349379D01*
X85543907Y-5216767D02*
X85713260Y-5283073D01*
X85374553Y-5150461D02*
X85543907Y-5216767D01*
X85205200Y-5084155D02*
X85374553Y-5150461D01*
X85035847Y-5017849D02*
X85205200Y-5084155D01*
X84866493Y-4951543D02*
X85035847Y-5017849D01*
X84697140Y-4885237D02*
X84866493Y-4951543D01*
X84527786Y-4818931D02*
X84697140Y-4885237D01*
X84358433Y-4752625D02*
X84527786Y-4818931D01*
X83765353Y-4582738D02*
X84358433Y-4752625D01*
X83172274Y-4412850D02*
X83765353Y-4582738D01*
X82579194Y-4242963D02*
X83172274Y-4412850D01*
X81986115Y-4073075D02*
X82579194Y-4242963D01*
X81393036Y-3903188D02*
X81986115Y-4073075D01*
X80799956Y-3733300D02*
X81393036Y-3903188D01*
X80206877Y-3563413D02*
X80799956Y-3733300D01*
X79613797Y-3393525D02*
X80206877Y-3563413D01*
X79020718Y-3223638D02*
X79613797Y-3393525D01*
X78427639Y-3053750D02*
X79020718Y-3223638D01*
X77834559Y-2883863D02*
X78427639Y-3053750D01*
X77241480Y-2713975D02*
X77834559Y-2883863D01*
X76648400Y-2544088D02*
X77241480Y-2713975D01*
X76055321Y-2374200D02*
X76648400Y-2544088D01*
X75462241Y-2204313D02*
X76055321Y-2374200D01*
X74869162Y-2034425D02*
X75462241Y-2204313D01*
X74428190Y-1931806D02*
X74869162Y-2034425D01*
X73987218Y-1829188D02*
X74428190Y-1931806D01*
X73546245Y-1726569D02*
X73987218Y-1829188D01*
X73105273Y-1623950D02*
X73546245Y-1726569D01*
X72664301Y-1521331D02*
X73105273Y-1623950D01*
X72223329Y-1418713D02*
X72664301Y-1521331D01*
X71782356Y-1316094D02*
X72223329Y-1418713D01*
X71341384Y-1213475D02*
X71782356Y-1316094D01*
X70900412Y-1110856D02*
X71341384Y-1213475D01*
X70459440Y-1008238D02*
X70900412Y-1110856D01*
X70018468Y-905619D02*
X70459440Y-1008238D01*
X69577495Y-803000D02*
X70018468Y-905619D01*
X69136523Y-700381D02*
X69577495Y-803000D01*
X68695551Y-597763D02*
X69136523Y-700381D01*
X68254579Y-495144D02*
X68695551Y-597763D01*
X67813606Y-392525D02*
X68254579Y-495144D01*
X67349065Y-299385D02*
X67813606Y-392525D01*
X66884523Y-206245D02*
X67349065Y-299385D01*
X66419981Y-113105D02*
X66884523Y-206245D01*
X65955439Y-19965D02*
X66419981Y-113105D01*
X65490897Y73176D02*
X65955439Y-19965D01*
X65026355Y166316D02*
X65490897Y73176D01*
X64561813Y259456D02*
X65026355Y166316D01*
X64097272Y352596D02*
X64561813Y259456D01*
X63632730Y445736D02*
X64097272Y352596D01*
X63168188Y538876D02*
X63632730Y445736D01*
X62703646Y632016D02*
X63168188Y538876D01*
X62239104Y725157D02*
X62703646Y632016D01*
X61774562Y818297D02*
X62239104Y725157D01*
X61310020Y911437D02*
X61774562Y818297D01*
X60845478Y1004577D02*
X61310020Y911437D01*
X60380937Y1097717D02*
X60845478Y1004577D01*
X59906826Y1173842D02*
X60380937Y1097717D01*
X59432715Y1249967D02*
X59906826Y1173842D01*
X58958605Y1326092D02*
X59432715Y1249967D01*
X58484494Y1402216D02*
X58958605Y1326092D01*
X58010383Y1478341D02*
X58484494Y1402216D01*
X57536273Y1554466D02*
X58010383Y1478341D01*
X57062162Y1630591D02*
X57536273Y1554466D01*
X56588051Y1706715D02*
X57062162Y1630591D01*
X56113941Y1782840D02*
X56588051Y1706715D01*
X55639830Y1858965D02*
X56113941Y1782840D01*
X55165719Y1935090D02*
X55639830Y1858965D01*
X54691609Y2011215D02*
X55165719Y1935090D01*
X54217498Y2087339D02*
X54691609Y2011215D01*
X53743387Y2163464D02*
X54217498Y2087339D01*
X53269277Y2239589D02*
X53743387Y2163464D01*
X52795166Y2315714D02*
X53269277Y2239589D01*
X52368484Y2338408D02*
X52795166Y2315714D01*
X51941803Y2361103D02*
X52368484Y2338408D01*
X51515121Y2383798D02*
X51941803Y2361103D01*
X51088440Y2406492D02*
X51515121Y2383798D01*
X50661758Y2429187D02*
X51088440Y2406492D01*
X50235077Y2451882D02*
X50661758Y2429187D01*
X49808395Y2474576D02*
X50235077Y2451882D01*
X49381714Y2497271D02*
X49808395Y2474576D01*
X48955032Y2519965D02*
X49381714Y2497271D01*
X48528351Y2542660D02*
X48955032Y2519965D01*
X48101669Y2565355D02*
X48528351Y2542660D01*
X47674988Y2588049D02*
X48101669Y2565355D01*
X47248306Y2610744D02*
X47674988Y2588049D01*
X46821625Y2633439D02*
X47248306Y2610744D01*
X46394943Y2656133D02*
X46821625Y2633439D01*
X45968261Y2678828D02*
X46394943Y2656133D01*
X45541580Y2701522D02*
X45968261Y2678828D01*
X45114898Y2724217D02*
X45541580Y2701522D01*
X44688217Y2746912D02*
X45114898Y2724217D01*
X44261535Y2769606D02*
X44688217Y2746912D01*
X43834854Y2792301D02*
X44261535Y2769606D01*
X43408172Y2814996D02*
X43834854Y2792301D01*
X42981491Y2837690D02*
X43408172Y2814996D01*
X42554809Y2860385D02*
X42981491Y2837690D01*
X42128128Y2883079D02*
X42554809Y2860385D01*
X41701446Y2905774D02*
X42128128Y2883079D01*
X41274765Y2928469D02*
X41701446Y2905774D01*
X40848083Y2951163D02*
X41274765Y2928469D01*
X40421402Y2973858D02*
X40848083Y2951163D01*
X39994720Y2996553D02*
X40421402Y2973858D01*
X39568039Y3019247D02*
X39994720Y2996553D01*
X39141357Y3041942D02*
X39568039Y3019247D01*
X38771403Y3026412D02*
X39141357Y3041942D01*
X38401449Y3010883D02*
X38771403Y3026412D01*
X38031495Y2995353D02*
X38401449Y3010883D01*
X37661541Y2979823D02*
X38031495Y2995353D01*
X37291587Y2964294D02*
X37661541Y2979823D01*
X36921633Y2948764D02*
X37291587Y2964294D01*
X36551679Y2933234D02*
X36921633Y2948764D01*
X36181725Y2917705D02*
X36551679Y2933234D01*
X35811771Y2902175D02*
X36181725Y2917705D01*
X35441817Y2886645D02*
X35811771Y2902175D01*
X35071863Y2871116D02*
X35441817Y2886645D01*
X34701909Y2855586D02*
X35071863Y2871116D01*
X34331955Y2840056D02*
X34701909Y2855586D01*
X33962001Y2824527D02*
X34331955Y2840056D01*
X33592047Y2808997D02*
X33962001Y2824527D01*
X33222093Y2793467D02*
X33592047Y2808997D01*
X32852139Y2777938D02*
X33222093Y2793467D01*
X32482185Y2762408D02*
X32852139Y2777938D01*
X32112231Y2746878D02*
X32482185Y2762408D01*
X31742277Y2731349D02*
X32112231Y2746878D01*
X31372323Y2715819D02*
X31742277Y2731349D01*
X31002369Y2700289D02*
X31372323Y2715819D01*
X30632415Y2684760D02*
X31002369Y2700289D01*
X30262461Y2669230D02*
X30632415Y2684760D01*
X29892507Y2653700D02*
X30262461Y2669230D01*
X29522553Y2638171D02*
X29892507Y2653700D01*
X29152599Y2622641D02*
X29522553Y2638171D01*
X28782645Y2607111D02*
X29152599Y2622641D01*
X28412691Y2591582D02*
X28782645Y2607111D01*
X28042737Y2576052D02*
X28412691Y2591582D01*
X27672783Y2560522D02*
X28042737Y2576052D01*
X27302829Y2544993D02*
X27672783Y2560522D01*
X26998901Y2506445D02*
X27302829Y2544993D01*
X26694973Y2467897D02*
X26998901Y2506445D01*
X26391045Y2429348D02*
X26694973Y2467897D01*
X26087117Y2390800D02*
X26391045Y2429348D01*
X25783189Y2352252D02*
X26087117Y2390800D01*
X25479261Y2313704D02*
X25783189Y2352252D01*
X25175332Y2275156D02*
X25479261Y2313704D01*
X24871404Y2236608D02*
X25175332Y2275156D01*
X24567476Y2198060D02*
X24871404Y2236608D01*
X24263548Y2159512D02*
X24567476Y2198060D01*
X23959620Y2120964D02*
X24263548Y2159512D01*
X23655692Y2082416D02*
X23959620Y2120964D01*
X23351764Y2043868D02*
X23655692Y2082416D01*
X23047836Y2005319D02*
X23351764Y2043868D01*
X22743908Y1966771D02*
X23047836Y2005319D01*
X22439980Y1928223D02*
X22743908Y1966771D01*
X22136052Y1889675D02*
X22439980Y1928223D01*
X21832124Y1851127D02*
X22136052Y1889675D01*
X21528196Y1812579D02*
X21832124Y1851127D01*
X21224267Y1774031D02*
X21528196Y1812579D01*
X20920339Y1735483D02*
X21224267Y1774031D01*
X20616411Y1696935D02*
X20920339Y1735483D01*
X20312483Y1658387D02*
X20616411Y1696935D01*
X20008555Y1619839D02*
X20312483Y1658387D01*
X19704627Y1581290D02*
X20008555Y1619839D01*
X19400699Y1542742D02*
X19704627Y1581290D01*
X19096771Y1504194D02*
X19400699Y1542742D01*
X18792843Y1465646D02*
X19096771Y1504194D01*
X18488915Y1427098D02*
X18792843Y1465646D01*
X18184987Y1388550D02*
X18488915Y1427098D01*
X17881059Y1350002D02*
X18184987Y1388550D01*
X17577130Y1311454D02*
X17881059Y1350002D01*
X17348527Y1265093D02*
X17577130Y1311454D01*
X17119923Y1218733D02*
X17348527Y1265093D01*
X16891319Y1172372D02*
X17119923Y1218733D01*
X16662715Y1126011D02*
X16891319Y1172372D01*
X16434112Y1079651D02*
X16662715Y1126011D01*
X16205508Y1033290D02*
X16434112Y1079651D01*
X15976904Y986929D02*
X16205508Y1033290D01*
X15748300Y940569D02*
X15976904Y986929D01*
X15519696Y894208D02*
X15748300Y940569D01*
X15291093Y847847D02*
X15519696Y894208D01*
X15062489Y801487D02*
X15291093Y847847D01*
X14833885Y755126D02*
X15062489Y801487D01*
X14605281Y708765D02*
X14833885Y755126D01*
X14376678Y662405D02*
X14605281Y708765D01*
X14148074Y616044D02*
X14376678Y662405D01*
X13919470Y569683D02*
X14148074Y616044D01*
X13690866Y523323D02*
X13919470Y569683D01*
X13462262Y476962D02*
X13690866Y523323D01*
X13233659Y430601D02*
X13462262Y476962D01*
X13005055Y384241D02*
X13233659Y430601D01*
X12776451Y337880D02*
X13005055Y384241D01*
X12547847Y291519D02*
X12776451Y337880D01*
X12319244Y245159D02*
X12547847Y291519D01*
X12090640Y198798D02*
X12319244Y245159D01*
X11862036Y152437D02*
X12090640Y198798D01*
X11633432Y106077D02*
X11862036Y152437D01*
X11404828Y59716D02*
X11633432Y106077D01*
X11176225Y13355D02*
X11404828Y59716D01*
X10947621Y-33005D02*
X11176225Y13355D01*
X10719017Y-79366D02*
X10947621Y-33005D01*
X10490413Y-125727D02*
X10719017Y-79366D01*
X10261810Y-172087D02*
X10490413Y-125727D01*
X10117828Y-211055D02*
X10261810Y-172087D01*
X9973847Y-250022D02*
X10117828Y-211055D01*
X9829866Y-288989D02*
X9973847Y-250022D01*
X9685885Y-327957D02*
X9829866Y-288989D01*
X9541904Y-366924D02*
X9685885Y-327957D01*
X9397923Y-405891D02*
X9541904Y-366924D01*
X9253942Y-444859D02*
X9397923Y-405891D01*
X9109961Y-483826D02*
X9253942Y-444859D01*
X8965980Y-522793D02*
X9109961Y-483826D01*
X8821999Y-561761D02*
X8965980Y-522793D01*
X8678018Y-600728D02*
X8821999Y-561761D01*
X8534037Y-639696D02*
X8678018Y-600728D01*
X8390055Y-678663D02*
X8534037Y-639696D01*
X8246074Y-717630D02*
X8390055Y-678663D01*
X8102093Y-756598D02*
X8246074Y-717630D01*
X7958112Y-795565D02*
X8102093Y-756598D01*
X7814131Y-834532D02*
X7958112Y-795565D01*
X7670150Y-873500D02*
X7814131Y-834532D01*
X7526169Y-912467D02*
X7670150Y-873500D01*
X7382188Y-951434D02*
X7526169Y-912467D01*
X7238207Y-990402D02*
X7382188Y-951434D01*
X7094226Y-1029369D02*
X7238207Y-990402D01*
X6950245Y-1068336D02*
X7094226Y-1029369D01*
X6806263Y-1107304D02*
X6950245Y-1068336D01*
X6662282Y-1146271D02*
X6806263Y-1107304D01*
X6518301Y-1185239D02*
X6662282Y-1146271D01*
X6374320Y-1224206D02*
X6518301Y-1185239D01*
X6230339Y-1263173D02*
X6374320Y-1224206D01*
X6086358Y-1302141D02*
X6230339Y-1263173D01*
X5942377Y-1341108D02*
X6086358Y-1302141D01*
X5798396Y-1380075D02*
X5942377Y-1341108D01*
X5654415Y-1419043D02*
X5798396Y-1380075D01*
X5604355Y-1435411D02*
X5654415Y-1419043D01*
X5554295Y-1451779D02*
X5604355Y-1435411D01*
X5504235Y-1468147D02*
X5554295Y-1451779D01*
X5454175Y-1484516D02*
X5504235Y-1468147D01*
X5404115Y-1500884D02*
X5454175Y-1484516D01*
X5354055Y-1517252D02*
X5404115Y-1500884D01*
X5303995Y-1533620D02*
X5354055Y-1517252D01*
X5253935Y-1549988D02*
X5303995Y-1533620D01*
X5203875Y-1566357D02*
X5253935Y-1549988D01*
X5153815Y-1582725D02*
X5203875Y-1566357D01*
X5103755Y-1599093D02*
X5153815Y-1582725D01*
X5053695Y-1615461D02*
X5103755Y-1599093D01*
X5003635Y-1631829D02*
X5053695Y-1615461D01*
X4953575Y-1648198D02*
X5003635Y-1631829D01*
X4903515Y-1664566D02*
X4953575Y-1648198D01*
X4853455Y-1680934D02*
X4903515Y-1664566D01*
X4803395Y-1697302D02*
X4853455Y-1680934D01*
X4753335Y-1713670D02*
X4803395Y-1697302D01*
X4703275Y-1730039D02*
X4753335Y-1713670D01*
X4653215Y-1746407D02*
X4703275Y-1730039D01*
X4603155Y-1762775D02*
X4653215Y-1746407D01*
X4553095Y-1779143D02*
X4603155Y-1762775D01*
X4503035Y-1795511D02*
X4553095Y-1779143D01*
X4452975Y-1811880D02*
X4503035Y-1795511D01*
X4402915Y-1828248D02*
X4452975Y-1811880D01*
X4352855Y-1844616D02*
X4402915Y-1828248D01*
X4302795Y-1860984D02*
X4352855Y-1844616D01*
X4252735Y-1877352D02*
X4302795Y-1860984D01*
X4202675Y-1893721D02*
X4252735Y-1877352D01*
X4152615Y-1910089D02*
X4202675Y-1893721D01*
X4102555Y-1926457D02*
X4152615Y-1910089D01*
X4052495Y-1942825D02*
X4102555Y-1926457D01*
X4002784Y-1952201D02*
X4052495Y-1942825D01*
X3953073Y-1961577D02*
X4002784Y-1952201D01*
X3903363Y-1970953D02*
X3953073Y-1961577D01*
X3853652Y-1980329D02*
X3903363Y-1970953D01*
X3803942Y-1989705D02*
X3853652Y-1980329D01*
X3754231Y-1999080D02*
X3803942Y-1989705D01*
X3704520Y-2008456D02*
X3754231Y-1999080D01*
X3654810Y-2017832D02*
X3704520Y-2008456D01*
X3605099Y-2027208D02*
X3654810Y-2017832D01*
X3555388Y-2036584D02*
X3605099Y-2027208D01*
X3505678Y-2045960D02*
X3555388Y-2036584D01*
X3455967Y-2055336D02*
X3505678Y-2045960D01*
X3406257Y-2064712D02*
X3455967Y-2055336D01*
X3356546Y-2074087D02*
X3406257Y-2064712D01*
X3306835Y-2083463D02*
X3356546Y-2074087D01*
X3257125Y-2092839D02*
X3306835Y-2083463D01*
X3207414Y-2102215D02*
X3257125Y-2092839D01*
X3157703Y-2111591D02*
X3207414Y-2102215D01*
X3107993Y-2120967D02*
X3157703Y-2111591D01*
X3058282Y-2130343D02*
X3107993Y-2120967D01*
X3008572Y-2139719D02*
X3058282Y-2130343D01*
X2958861Y-2149095D02*
X3008572Y-2139719D01*
X2909150Y-2158470D02*
X2958861Y-2149095D01*
X2859440Y-2167846D02*
X2909150Y-2158470D01*
X2809729Y-2177222D02*
X2859440Y-2167846D01*
X2760018Y-2186598D02*
X2809729Y-2177222D01*
X2710308Y-2195974D02*
X2760018Y-2186598D01*
X2660597Y-2205350D02*
X2710308Y-2195974D01*
X2610887Y-2214726D02*
X2660597Y-2205350D01*
X2561176Y-2224102D02*
X2610887Y-2214726D01*
X2511465Y-2233478D02*
X2561176Y-2224102D01*
X2461755Y-2242853D02*
X2511465Y-2233478D01*
X2422655Y-2236142D02*
X2461755Y-2242853D01*
X2383556Y-2229431D02*
X2422655Y-2236142D01*
X2344456Y-2222720D02*
X2383556Y-2229431D01*
X2305356Y-2216009D02*
X2344456Y-2222720D01*
X2266257Y-2209298D02*
X2305356Y-2216009D01*
X2227157Y-2202587D02*
X2266257Y-2209298D01*
X2188058Y-2195876D02*
X2227157Y-2202587D01*
X2148958Y-2189165D02*
X2188058Y-2195876D01*
X2109859Y-2182454D02*
X2148958Y-2189165D01*
X2070759Y-2175743D02*
X2109859Y-2182454D01*
X2031659Y-2169031D02*
X2070759Y-2175743D01*
X1992560Y-2162320D02*
X2031659Y-2169031D01*
X1953460Y-2155609D02*
X1992560Y-2162320D01*
X1914361Y-2148898D02*
X1953460Y-2155609D01*
X1875261Y-2142187D02*
X1914361Y-2148898D01*
X1836161Y-2135476D02*
X1875261Y-2142187D01*
X1797062Y-2128765D02*
X1836161Y-2135476D01*
X1757962Y-2122054D02*
X1797062Y-2128765D01*
X1718863Y-2115343D02*
X1757962Y-2122054D01*
X1679763Y-2108632D02*
X1718863Y-2115343D01*
X1640664Y-2101921D02*
X1679763Y-2108632D01*
X1601564Y-2095209D02*
X1640664Y-2101921D01*
X1562464Y-2088498D02*
X1601564Y-2095209D01*
X1523365Y-2081787D02*
X1562464Y-2088498D01*
X1484265Y-2075076D02*
X1523365Y-2081787D01*
X1445166Y-2068365D02*
X1484265Y-2075076D01*
X1406066Y-2061654D02*
X1445166Y-2068365D01*
X1366967Y-2054943D02*
X1406066Y-2061654D01*
X1327867Y-2048232D02*
X1366967Y-2054943D01*
X1288767Y-2041521D02*
X1327867Y-2048232D01*
X1249668Y-2034810D02*
X1288767Y-2041521D01*
X1210568Y-2028099D02*
X1249668Y-2034810D01*
X1180852Y-2009874D02*
X1210568Y-2028099D01*
X1151136Y-1991649D02*
X1180852Y-2009874D01*
X1121420Y-1973423D02*
X1151136Y-1991649D01*
X1091704Y-1955198D02*
X1121420Y-1973423D01*
X1061987Y-1936973D02*
X1091704Y-1955198D01*
X1032271Y-1918748D02*
X1061987Y-1936973D01*
X1002555Y-1900523D02*
X1032271Y-1918748D01*
X972839Y-1882298D02*
X1002555Y-1900523D01*
X943123Y-1864073D02*
X972839Y-1882298D01*
X913407Y-1845848D02*
X943123Y-1864073D01*
X883691Y-1827623D02*
X913407Y-1845848D01*
X853974Y-1809398D02*
X883691Y-1827623D01*
X824258Y-1791173D02*
X853974Y-1809398D01*
X794542Y-1772948D02*
X824258Y-1791173D01*
X764826Y-1754723D02*
X794542Y-1772948D01*
X735110Y-1736498D02*
X764826Y-1754723D01*
X705394Y-1718273D02*
X735110Y-1736498D01*
X675677Y-1700048D02*
X705394Y-1718273D01*
X645961Y-1681823D02*
X675677Y-1700048D01*
X616245Y-1663598D02*
X645961Y-1681823D01*
X586529Y-1645373D02*
X616245Y-1663598D01*
X556813Y-1627147D02*
X586529Y-1645373D01*
X527097Y-1608922D02*
X556813Y-1627147D01*
X497380Y-1590697D02*
X527097Y-1608922D01*
X467664Y-1572472D02*
X497380Y-1590697D01*
X437948Y-1554247D02*
X467664Y-1572472D01*
X408232Y-1536022D02*
X437948Y-1554247D01*
X378516Y-1517797D02*
X408232Y-1536022D01*
X348800Y-1499572D02*
X378516Y-1517797D01*
X319084Y-1481347D02*
X348800Y-1499572D01*
X289367Y-1463122D02*
X319084Y-1481347D01*
X259651Y-1444897D02*
X289367Y-1463122D01*
X238091Y-1419731D02*
X259651Y-1444897D01*
X216530Y-1394565D02*
X238091Y-1419731D01*
X194970Y-1369399D02*
X216530Y-1394565D01*
X173410Y-1344233D02*
X194970Y-1369399D01*
X151849Y-1319067D02*
X173410Y-1344233D01*
X130289Y-1293901D02*
X151849Y-1319067D01*
X155455090Y75910793D02*
X155455083Y75907935D01*
X155455098Y75913650D02*
X155455090Y75910793D01*
X155455105Y75916508D02*
X155455098Y75913650D01*
X155455113Y75919366D02*
X155455105Y75916508D01*
X155455121Y75922223D02*
X155455113Y75919366D01*
X155455128Y75925081D02*
X155455121Y75922223D01*
X155455136Y75927939D02*
X155455128Y75925081D01*
X155455143Y75930796D02*
X155455136Y75927939D01*
X155455151Y75933654D02*
X155455143Y75930796D01*
X155455159Y75936512D02*
X155455151Y75933654D01*
X155455166Y75939369D02*
X155455159Y75936512D01*
X155455174Y75942227D02*
X155455166Y75939369D01*
X155455181Y75945085D02*
X155455174Y75942227D01*
X155455189Y75947942D02*
X155455181Y75945085D01*
X155455196Y75950800D02*
X155455189Y75947942D01*
X155455204Y75953658D02*
X155455196Y75950800D01*
X155455212Y75956515D02*
X155455204Y75953658D01*
X155455219Y75959373D02*
X155455212Y75956515D01*
X155455227Y75962231D02*
X155455219Y75959373D01*
X155455234Y75965088D02*
X155455227Y75962231D01*
X155455242Y75967946D02*
X155455234Y75965088D01*
X155455250Y75970803D02*
X155455242Y75967946D01*
X155455257Y75973661D02*
X155455250Y75970803D01*
X155455265Y75976519D02*
X155455257Y75973661D01*
X155455272Y75979376D02*
X155455265Y75976519D01*
X155455280Y75982234D02*
X155455272Y75979376D01*
X155455287Y75985092D02*
X155455280Y75982234D01*
X155455295Y75987949D02*
X155455287Y75985092D01*
X155455303Y75990807D02*
X155455295Y75987949D01*
X155455310Y75993665D02*
X155455303Y75990807D01*
X155455318Y75996522D02*
X155455310Y75993665D01*
X155455325Y75999380D02*
X155455318Y75996522D01*
X155454732Y76007169D02*
X155455325Y75999380D01*
X155454139Y76014957D02*
X155454732Y76007169D01*
X155453545Y76022746D02*
X155454139Y76014957D01*
X155452952Y76030534D02*
X155453545Y76022746D01*
X155452359Y76038323D02*
X155452952Y76030534D01*
X155451765Y76046111D02*
X155452359Y76038323D01*
X155451172Y76053900D02*
X155451765Y76046111D01*
X155450579Y76061689D02*
X155451172Y76053900D01*
X155455083Y78105602D02*
X155450579Y76061689D01*
X155454489Y78113391D02*
X155455083Y78105602D01*
X155453896Y78121179D02*
X155454489Y78113391D01*
X155453303Y78128968D02*
X155453896Y78121179D01*
X155452709Y78136756D02*
X155453303Y78128968D01*
X155452116Y78144545D02*
X155452709Y78136756D01*
X155451523Y78152334D02*
X155452116Y78144545D01*
X155450929Y78160122D02*
X155451523Y78152334D01*
X155450336Y78167911D02*
X155450929Y78160122D01*
X155449742Y78175699D02*
X155450336Y78167911D01*
X155449149Y78183488D02*
X155449742Y78175699D01*
X155448556Y78191276D02*
X155449149Y78183488D01*
X155447962Y78199065D02*
X155448556Y78191276D01*
X155447369Y78206853D02*
X155447962Y78199065D01*
X155446776Y78214642D02*
X155447369Y78206853D01*
X155446182Y78222431D02*
X155446776Y78214642D01*
X155445589Y78230219D02*
X155446182Y78222431D01*
X155444996Y78238008D02*
X155445589Y78230219D01*
X155444402Y78245796D02*
X155444996Y78238008D01*
X155443809Y78253585D02*
X155444402Y78245796D01*
X155443216Y78261373D02*
X155443809Y78253585D01*
X155442622Y78269162D02*
X155443216Y78261373D01*
X155442029Y78276951D02*
X155442622Y78269162D01*
X155441436Y78284739D02*
X155442029Y78276951D01*
X155439317Y78296282D02*
X155441436Y78284739D01*
X155437199Y78307825D02*
X155439317Y78296282D01*
X155435080Y78319368D02*
X155437199Y78307825D01*
X155432962Y78330911D02*
X155435080Y78319368D01*
X155430843Y78342453D02*
X155432962Y78330911D01*
X155428725Y78353996D02*
X155430843Y78342453D01*
D11*
X46941666Y93475000D02*
G75*
G03X46941666Y93475000I-1666666J0D01*
G01*
X42775000Y93475000D02*
X47775000Y93475000D01*
X45275000Y95975000D02*
X45275000Y90975000D01*
D12*
G04 #@! TO.C,L1*
X7325000Y79237500D02*
X7325000Y74737500D01*
X10825000Y79237500D02*
X10825000Y74737500D01*
X7325000Y79237500D02*
X10825000Y79237500D01*
X10825000Y74737500D02*
X7325000Y74737500D01*
G04 #@! TO.C,L2*
X26375000Y79237500D02*
X26375000Y74737500D01*
X29875000Y79237500D02*
X29875000Y74737500D01*
X26375000Y79237500D02*
X29875000Y79237500D01*
X29875000Y74737500D02*
X26375000Y74737500D01*
G04 #@! TO.C,L3*
X45425000Y93525000D02*
X45425000Y89025000D01*
X48925000Y93525000D02*
X48925000Y89025000D01*
X45425000Y93525000D02*
X48925000Y93525000D01*
X48925000Y89025000D02*
X45425000Y89025000D01*
G04 #@! TO.C,L4*
X64475000Y98287500D02*
X64475000Y93787500D01*
X67975000Y98287500D02*
X67975000Y93787500D01*
X64475000Y98287500D02*
X67975000Y98287500D01*
X67975000Y93787500D02*
X64475000Y93787500D01*
G04 #@! TO.C,L5*
X83525000Y93525000D02*
X83525000Y89025000D01*
X87025000Y93525000D02*
X87025000Y89025000D01*
X83525000Y93525000D02*
X87025000Y93525000D01*
X87025000Y89025000D02*
X83525000Y89025000D01*
G04 #@! TO.C,L6*
X102575000Y88762500D02*
X102575000Y84262500D01*
X106075000Y88762500D02*
X106075000Y84262500D01*
X102575000Y88762500D02*
X106075000Y88762500D01*
X106075000Y84262500D02*
X102575000Y84262500D01*
G04 #@! TO.C,L7*
X7325000Y60187500D02*
X7325000Y55687500D01*
X10825000Y60187500D02*
X10825000Y55687500D01*
X7325000Y60187500D02*
X10825000Y60187500D01*
X10825000Y55687500D02*
X7325000Y55687500D01*
G04 #@! TO.C,L8*
X26375000Y60187500D02*
X26375000Y55687500D01*
X29875000Y60187500D02*
X29875000Y55687500D01*
X26375000Y60187500D02*
X29875000Y60187500D01*
X29875000Y55687500D02*
X26375000Y55687500D01*
G04 #@! TO.C,L9*
X45425000Y74475000D02*
X45425000Y69975000D01*
X48925000Y74475000D02*
X48925000Y69975000D01*
X45425000Y74475000D02*
X48925000Y74475000D01*
X48925000Y69975000D02*
X45425000Y69975000D01*
G04 #@! TO.C,L10*
X64475000Y79237500D02*
X64475000Y74737500D01*
X67975000Y79237500D02*
X67975000Y74737500D01*
X64475000Y79237500D02*
X67975000Y79237500D01*
X67975000Y74737500D02*
X64475000Y74737500D01*
G04 #@! TO.C,L11*
X83525000Y74475000D02*
X83525000Y69975000D01*
X87025000Y74475000D02*
X87025000Y69975000D01*
X83525000Y74475000D02*
X87025000Y74475000D01*
X87025000Y69975000D02*
X83525000Y69975000D01*
G04 #@! TO.C,L12*
X102575000Y69712500D02*
X102575000Y65212500D01*
X106075000Y69712500D02*
X106075000Y65212500D01*
X102575000Y69712500D02*
X106075000Y69712500D01*
X106075000Y65212500D02*
X102575000Y65212500D01*
G04 #@! TO.C,L13*
X7325000Y41137500D02*
X7325000Y36637500D01*
X10825000Y41137500D02*
X10825000Y36637500D01*
X7325000Y41137500D02*
X10825000Y41137500D01*
X10825000Y36637500D02*
X7325000Y36637500D01*
G04 #@! TO.C,L14*
X26375000Y41137500D02*
X26375000Y36637500D01*
X29875000Y41137500D02*
X29875000Y36637500D01*
X26375000Y41137500D02*
X29875000Y41137500D01*
X29875000Y36637500D02*
X26375000Y36637500D01*
G04 #@! TO.C,L15*
X45425000Y55425000D02*
X45425000Y50925000D01*
X48925000Y55425000D02*
X48925000Y50925000D01*
X45425000Y55425000D02*
X48925000Y55425000D01*
X48925000Y50925000D02*
X45425000Y50925000D01*
G04 #@! TO.C,L16*
X64475000Y60187500D02*
X64475000Y55687500D01*
X67975000Y60187500D02*
X67975000Y55687500D01*
X64475000Y60187500D02*
X67975000Y60187500D01*
X67975000Y55687500D02*
X64475000Y55687500D01*
G04 #@! TO.C,L17*
X83525000Y55425000D02*
X83525000Y50925000D01*
X87025000Y55425000D02*
X87025000Y50925000D01*
X83525000Y55425000D02*
X87025000Y55425000D01*
X87025000Y50925000D02*
X83525000Y50925000D01*
G04 #@! TO.C,L18*
X102575000Y50662500D02*
X102575000Y46162500D01*
X106075000Y50662500D02*
X106075000Y46162500D01*
X102575000Y50662500D02*
X106075000Y50662500D01*
X106075000Y46162500D02*
X102575000Y46162500D01*
G04 #@! TO.C,L19*
X7325000Y22087500D02*
X7325000Y17587500D01*
X10825000Y22087500D02*
X10825000Y17587500D01*
X7325000Y22087500D02*
X10825000Y22087500D01*
X10825000Y17587500D02*
X7325000Y17587500D01*
G04 #@! TO.C,L20*
X26375000Y22087500D02*
X26375000Y17587500D01*
X29875000Y22087500D02*
X29875000Y17587500D01*
X26375000Y22087500D02*
X29875000Y22087500D01*
X29875000Y17587500D02*
X26375000Y17587500D01*
G04 #@! TO.C,L21*
X45443750Y36375000D02*
X45443750Y31875000D01*
X48943750Y36375000D02*
X48943750Y31875000D01*
X45443750Y36375000D02*
X48943750Y36375000D01*
X48943750Y31875000D02*
X45443750Y31875000D01*
G04 #@! TO.C,L22*
X64475000Y41137500D02*
X64475000Y36637500D01*
X67975000Y41137500D02*
X67975000Y36637500D01*
X64475000Y41137500D02*
X67975000Y41137500D01*
X67975000Y36637500D02*
X64475000Y36637500D01*
G04 #@! TO.C,L23*
X83525000Y36375000D02*
X83525000Y31875000D01*
X87025000Y36375000D02*
X87025000Y31875000D01*
X83525000Y36375000D02*
X87025000Y36375000D01*
X87025000Y31875000D02*
X83525000Y31875000D01*
G04 #@! TO.C,L24*
X102575000Y31612500D02*
X102575000Y27112500D01*
X106075000Y31612500D02*
X106075000Y27112500D01*
X102575000Y31612500D02*
X106075000Y31612500D01*
X106075000Y27112500D02*
X102575000Y27112500D01*
G04 #@! TO.C,L25*
X78762500Y17325000D02*
X78762500Y12825000D01*
X82262500Y17325000D02*
X82262500Y12825000D01*
X78762500Y17325000D02*
X82262500Y17325000D01*
X82262500Y12825000D02*
X78762500Y12825000D01*
G04 #@! TO.C,L26*
X97812500Y12562500D02*
X97812500Y8062500D01*
X101312500Y12562500D02*
X101312500Y8062500D01*
X97812500Y12562500D02*
X101312500Y12562500D01*
X101312500Y8062500D02*
X97812500Y8062500D01*
G04 #@! TO.C,L27*
X110351443Y-7815544D02*
X114248557Y-10065544D01*
X112101443Y-4784456D02*
X115998557Y-7034456D01*
X110351443Y-7815544D02*
X112101443Y-4784456D01*
X115998557Y-7034456D02*
X114248557Y-10065544D01*
G04 #@! TO.C,L28*
X119951443Y8884456D02*
X123848557Y6634456D01*
X121701443Y11915544D02*
X125598557Y9665544D01*
X119951443Y8884456D02*
X121701443Y11915544D01*
X125598557Y9665544D02*
X123848557Y6634456D01*
G04 #@! TO.C,L29*
X131751443Y-8915544D02*
X135648557Y-11165544D01*
X133501443Y-5884456D02*
X137398557Y-8134456D01*
X131751443Y-8915544D02*
X133501443Y-5884456D01*
X137398557Y-8134456D02*
X135648557Y-11165544D01*
G04 #@! TD*
M02*
