M48
;DRILL file {KiCad (5.0.2)-1} date 2019/02/11 21:15:29
;FORMAT={-:-/ absolute / metric / decimal}
FMAT,2
METRIC,TZ
T1C1.000
T2C1.200
T3C1.700
T4C1.900
T5C2.200
T6C3.048
T7C3.988
T8C4.000
T9C4.800
%
G90
G05
T1
X111.078Y-12.096
X116.298Y-3.054
X22.905Y19.275
X33.345Y19.275
X99.105Y66.9
X109.545Y66.9
X80.055Y90.712
X90.495Y90.712
X61.005Y38.325
X71.445Y38.325
X41.955Y52.612
X52.395Y52.612
X3.855Y57.375
X14.295Y57.375
X99.105Y28.8
X109.545Y28.8
X80.055Y52.612
X90.495Y52.612
X41.955Y71.662
X52.395Y71.662
X22.905Y76.425
X33.345Y76.425
X94.343Y9.75
X104.782Y9.75
X3.855Y19.275
X14.295Y19.275
X80.055Y71.662
X90.495Y71.662
X61.005Y95.475
X71.445Y95.475
X120.578Y4.404
X125.798Y13.446
X41.955Y33.562
X52.395Y33.562
X22.905Y38.325
X33.345Y38.325
X99.105Y85.95
X109.545Y85.95
X3.855Y38.325
X14.295Y38.325
X80.055Y33.562
X90.495Y33.562
X61.005Y57.375
X71.445Y57.375
X22.905Y57.375
X33.345Y57.375
X3.855Y76.425
X14.295Y76.425
X75.292Y14.512
X85.733Y14.512
X99.105Y47.85
X109.545Y47.85
X132.328Y-13.346
X137.548Y-4.304
X61.005Y76.425
X71.445Y76.425
X41.955Y90.712
X52.395Y90.712
T2
X145.825Y19.825
X145.825Y18.075
X152.825Y19.825
X152.825Y18.075
T3
X3.995Y72.225
X14.155Y72.225
X75.432Y10.312
X85.593Y10.312
X99.245Y43.65
X109.405Y43.65
X136.035Y-15.324
X141.115Y-6.526
X61.145Y72.225
X71.305Y72.225
X42.095Y86.513
X52.255Y86.513
X114.785Y-14.074
X119.865Y-5.276
X23.045Y15.075
X33.205Y15.075
X99.245Y62.7
X109.405Y62.7
X80.195Y86.513
X90.355Y86.513
X61.145Y34.125
X71.305Y34.125
X42.095Y48.412
X52.255Y48.412
X3.995Y53.175
X14.155Y53.175
X99.245Y24.6
X109.405Y24.6
X80.195Y48.412
X90.355Y48.412
X42.095Y67.462
X52.255Y67.462
X23.045Y72.225
X33.205Y72.225
X94.483Y5.55
X104.642Y5.55
X3.995Y15.075
X14.155Y15.075
X80.195Y67.462
X90.355Y67.462
X61.145Y91.275
X71.305Y91.275
X124.285Y2.426
X129.365Y11.224
X42.095Y29.362
X52.255Y29.362
X23.045Y34.125
X33.205Y34.125
X99.245Y81.75
X109.405Y81.75
X3.995Y34.125
X14.155Y34.125
X80.195Y29.362
X90.355Y29.362
X61.145Y53.175
X71.305Y53.175
X23.045Y53.175
X33.205Y53.175
T4
X79.775Y86.513
X90.775Y86.513
X60.725Y34.125
X71.725Y34.125
X41.675Y48.412
X52.675Y48.412
X3.575Y53.175
X14.575Y53.175
X98.825Y24.6
X109.825Y24.6
X79.775Y48.412
X90.775Y48.412
X41.675Y67.462
X52.675Y67.462
X22.625Y72.225
X33.625Y72.225
X94.062Y5.55
X105.062Y5.55
X3.575Y15.075
X14.575Y15.075
X79.775Y67.462
X90.775Y67.462
X60.725Y91.275
X71.725Y91.275
X124.075Y2.062
X129.575Y11.588
X41.675Y29.362
X52.675Y29.362
X22.625Y34.125
X33.625Y34.125
X98.825Y81.75
X109.825Y81.75
X3.575Y34.125
X14.575Y34.125
X79.775Y29.362
X90.775Y29.362
X60.725Y53.175
X71.725Y53.175
X22.625Y53.175
X33.625Y53.175
X3.575Y72.225
X14.575Y72.225
X75.013Y10.312
X86.013Y10.312
X98.825Y43.65
X109.825Y43.65
X135.825Y-15.688
X141.325Y-6.162
X60.725Y72.225
X71.725Y72.225
X41.675Y86.513
X52.675Y86.513
X114.575Y-14.438
X120.075Y-4.912
X22.625Y15.075
X33.625Y15.075
X98.825Y62.7
X109.825Y62.7
T5
X152.575Y4.825
X116.075Y25.325
T6
X126.557Y-17.771
X138.495Y2.906
T7
X139.755Y-25.391
X151.693Y-4.714
T8
X9.075Y34.125
X85.275Y29.362
X66.225Y53.175
X28.125Y53.175
X9.075Y72.225
X80.513Y10.312
X104.325Y43.65
X138.575Y-10.925
X66.225Y72.225
X47.175Y86.513
X117.325Y-9.675
X28.125Y15.075
X104.325Y62.7
X85.275Y86.513
X66.225Y34.125
X47.175Y48.412
X9.075Y53.175
X104.325Y24.6
X85.275Y48.412
X47.175Y67.462
X28.125Y72.225
X99.562Y5.55
X9.075Y15.075
X85.275Y67.462
X66.225Y91.275
X126.825Y6.825
X47.175Y29.362
X28.125Y34.125
X104.325Y81.75
T9
X18.6Y24.575
X93.825Y77.075
X111.625Y5.85
X18.6Y62.7
T0
M30
