M48
;DRILL file {KiCad (5.0.1)-3} date 2019/04/04 15:31:02
;FORMAT={-:-/ absolute / inch / decimal}
FMAT,2
INCH,TZ
T1C0.0157
T2C0.0320
T3C0.0394
T4C0.0472
T5C0.0512
T6C0.0591
%
G90
G05
M72
T1
X0.1191Y1.4528
X0.1476Y2.315
X0.1703Y0.9183
X0.1843Y1.4754
X0.186Y2.9341
X0.1909Y3.0655
X0.1909Y1.7106
X0.1988Y1.4173
X0.2008Y2.282
X0.2037Y0.7746
X0.2215Y2.1713
X0.2429Y3.1193
X0.2733Y2.4002
X0.5095Y3.0294
X0.512Y1.5215
X0.5136Y2.2821
X0.5157Y0.7815
X0.5187Y3.2618
X0.5369Y2.3494
X0.5433Y0.8287
X0.562Y0.9715
X0.627Y3.0667
X0.6388Y1.5654
X0.7264Y3.0827
X0.7864Y2.8514
X0.7864Y2.8514
X0.7864Y2.8514
X0.8937Y1.437
X0.938Y1.5655
X0.938Y0.8366
X0.9488Y0.7805
X0.9498Y2.9341
X0.9531Y3.0175
X0.9547Y2.2785
X1.2096Y3.2093
X1.2211Y2.437
X1.2234Y2.5128
X1.252Y3.0314
X1.2596Y1.5313
X1.2636Y2.2766
X1.2648Y0.7766
X1.2894Y1.6412
X1.2982Y0.8676
X1.3081Y1.8445
X1.3165Y2.9572
X1.3248Y3.1969
X1.3455Y2.314
X1.4075Y2.314
X1.4331Y1.7569
X1.4705Y1.937
X1.5453Y2.7677
X1.5561Y1.4823
X1.5591Y1.6417
X1.562Y3.6821
X1.562Y3.4715
X1.6191Y2.1181
X1.6211Y3.6821
X1.6211Y2.3543
X1.625Y2.876
X1.6368Y1.4813
X1.687Y2.128
X1.6959Y1.4208
X1.7008Y3.628
X1.7037Y2.8406
X1.7037Y1.3455
X1.7205Y1.5384
X2.0085Y2.8396
X2.0148Y3.5892
X2.0207Y1.3366
X2.0254Y2.128
X2.0433Y2.8799
X2.063Y2.2303
X2.063Y2.0148
X2.0841Y3.651
X2.0994Y2.1516
X2.1002Y1.377
X2.1334Y0.8145
X2.2677Y2.2943
X2.3691Y2.2047
X2.3907Y1.6181
X2.4488Y1.5187
X2.449Y3.7311
X2.4522Y2.2273
X2.4528Y3.0305
X2.4577Y2.9528
X2.7612Y3.7817
X2.764Y3.0301
X2.7648Y2.2466
X2.7648Y1.5187
X2.7884Y3.0659
X2.8061Y1.5768
X2.813Y2.5659
X2.813Y2.314
X2.8179Y0.81
X2.8474Y0.19
X2.8474Y0.1014
X2.8663Y3.8155
X2.8967Y3.6732
X2.9688Y3.168
X2.998Y0.6476
X3.0065Y0.59
X3.0364Y2.752
X3.0433Y1.9872
X3.0569Y2.9774
X3.127Y3.0059
X3.1368Y2.876
X3.1623Y2.3885
X3.1841Y2.128
X3.188Y1.3986
X3.2037Y2.8445
X3.2047Y1.3425
X3.2065Y3.6429
X3.2313Y3.4872
X3.3215Y0.5915
X3.4093Y0.6278
X3.4636Y2.937
X3.4675Y1.998
X3.473Y3.4955
X3.506Y2.0853
X3.5167Y3.5915
X3.5167Y2.8622
X3.5177Y1.3366
X3.5423Y1.377
X3.6868Y3.5848
X3.7087Y0.315
X3.7687Y0.4085
X3.8711Y3.5608
X3.939Y2.5768
X3.94Y2.0315
X3.9451Y1.1569
X3.9469Y2.6545
X3.9549Y3.3716
X3.9572Y1.8573
X4.0793Y0.4081
X4.1447Y0.4407
X4.2362Y3.2618
X4.26Y1.907
X4.2638Y2.6427
X4.2652Y3.399
X4.2738Y1.1553
X4.3081Y-0.4114
X4.3183Y1.9405
X4.3368Y1.0313
X4.3396Y2.7049
X4.3455Y1.1848
X4.3693Y-0.4151
X4.3778Y3.4405
X4.4026Y2.2487
X4.403Y2.9978
X4.4203Y2.4195
X4.4222Y1.2923
X4.4419Y0.8435
X4.451Y2.9967
X4.4536Y2.868
X4.4665Y2.2904
X4.4764Y2.7106
X4.5006Y2.099
X4.5222Y-0.0608
X4.5341Y-0.1478
X4.5439Y0.1656
X4.5541Y2.0581
X4.6392Y3.0112
X4.6978Y0.2421
X4.727Y2.901
X4.7593Y0.2336
X4.7766Y1.1161
X4.7864Y1.7943
X4.7864Y1.4986
X4.8041Y1.5896
X4.8167Y1.7096
X4.8311Y2.9885
X4.8661Y1.779
X4.8809Y1.1152
X4.8963Y0.5762
X4.9041Y0.5073
X4.9293Y2.9903
X4.9381Y1.7797
X5.0172Y2.9897
X5.0291Y2.3913
X5.0381Y1.7805
X5.0689Y-0.4203
X5.1161Y2.3683
X5.1277Y2.9919
X5.1309Y0.5904
X5.1371Y0.667
X5.1375Y1.7813
X5.1535Y0.749
X5.1821Y2.3848
X5.2278Y-0.4742
X5.2309Y2.9877
X5.2362Y1.7826
X5.2881Y2.3848
X5.3273Y1.784
X5.3311Y2.9885
X5.3693Y0.7557
X5.3711Y-0.1274
X5.3734Y-0.1852
X5.4207Y-0.0939
X5.4303Y2.9893
X5.4309Y2.3895
X5.4352Y1.7836
X5.4452Y2.165
X5.4667Y1.2566
X5.5192Y2.9897
X5.5246Y1.7844
X5.6132Y2.3512
X5.7707Y2.9744
X5.815Y1.7392
X5.8691Y1.7844
X5.9191Y1.7853
X5.9263Y2.9933
T2
X0.7904Y3.0073
X0.7904Y2.7073
X2.1683Y3.7159
X2.1683Y3.4159
X2.2864Y3.7159
X2.2864Y3.4159
X3.6742Y3.4896
X3.6742Y3.1896
X3.7923Y3.4896
X3.7923Y3.1896
X0.6722Y2.2494
X0.6722Y1.9494
X0.7904Y2.2494
X0.7904Y1.9494
X2.1683Y2.9679
X2.1683Y2.6679
X2.2864Y2.9679
X2.2864Y2.6679
X3.6742Y2.7415
X3.6742Y2.4415
X3.7923Y2.7415
X3.7923Y2.4415
X0.6722Y1.5014
X0.6722Y1.2014
X0.7904Y1.5014
X0.7904Y1.2014
X2.1683Y2.21
X2.1683Y1.91
X2.2963Y2.21
X2.2963Y1.91
X3.6742Y1.9935
X3.6742Y1.6935
X3.7923Y1.9935
X3.7923Y1.6935
X0.6722Y0.7533
X0.6722Y0.4533
X0.7904Y0.7533
X0.7904Y0.4533
X2.1683Y1.462
X2.1683Y1.162
X2.2864Y1.462
X2.2864Y1.162
X3.6742Y1.2356
X3.6742Y0.9356
X4.8167Y1.9081
X4.8167Y1.3081
X4.8667Y1.8559
X4.8667Y1.2566
X4.9167Y1.9081
X4.9167Y1.3081
X4.9667Y1.8559
X4.9667Y1.2566
X5.0167Y1.9081
X5.0167Y1.3081
X5.0667Y1.8559
X5.0667Y1.2566
X5.1167Y1.9081
X5.1167Y1.3081
X5.1667Y1.8559
X5.1667Y1.2566
X5.2167Y1.9081
X5.2167Y1.3081
X5.2667Y1.8559
X5.2667Y1.2566
X5.3167Y1.9081
X5.3167Y1.3081
X5.3667Y1.8559
X5.3667Y1.2566
X5.4167Y1.9081
X5.4167Y1.3081
X5.4667Y1.8559
X5.4667Y1.2566
X5.5167Y1.9081
X5.5167Y1.3081
X5.5667Y1.8559
X5.5667Y1.2566
X5.6167Y1.9081
X5.6167Y1.3081
X5.6667Y1.8559
X5.6667Y1.2566
X5.7167Y1.9081
X5.7167Y1.3081
X5.7667Y1.8559
X5.7667Y1.2566
X5.8167Y1.9081
X5.8167Y1.3081
X5.8667Y1.8559
X5.8667Y1.2566
X5.9167Y1.9081
X5.9167Y1.3081
X5.9667Y1.8559
X5.9667Y1.2566
X6.0167Y1.9081
X6.0167Y1.9081
X6.0167Y1.3081
X6.0167Y1.3081
X6.0667Y1.8559
X6.0667Y1.8559
X6.0667Y1.2566
X6.0667Y1.2566
X4.8167Y3.1089
X4.8167Y2.5089
X4.8667Y3.0566
X4.8667Y2.4574
X4.9167Y3.1089
X4.9167Y2.5089
X4.9667Y3.0566
X4.9667Y2.4574
X5.0167Y3.1089
X5.0167Y2.5089
X5.0667Y3.0566
X5.0667Y2.4574
X5.1167Y3.1089
X5.1167Y2.5089
X5.1667Y3.0566
X5.1667Y2.4574
X5.2167Y3.1089
X5.2167Y2.5089
X5.2667Y3.0566
X5.2667Y2.4574
X5.3167Y3.1089
X5.3167Y2.5089
X5.3667Y3.0566
X5.3667Y2.4574
X5.4167Y3.1089
X5.4167Y2.5089
X5.4667Y3.0566
X5.4667Y2.4574
X5.5167Y3.1089
X5.5167Y2.5089
X5.5667Y3.0566
X5.5667Y2.4574
X5.6167Y3.1089
X5.6167Y2.5089
X5.6667Y3.0566
X5.6667Y2.4574
X5.7167Y3.1089
X5.7167Y2.5089
X5.7667Y3.0566
X5.7667Y2.4574
X5.8167Y3.1089
X5.8167Y2.5089
X5.8667Y3.0566
X5.8667Y2.4574
X5.9167Y3.1089
X5.9167Y2.5089
X5.9667Y3.0566
X5.9667Y2.4574
X6.0167Y3.1089
X6.0167Y3.1089
X6.0167Y2.5089
X6.0167Y2.5089
X6.0667Y3.0566
X6.0667Y3.0566
X6.0667Y2.4574
X6.0667Y2.4574
X5.2719Y2.2087
X5.3719Y2.2087
X5.4719Y2.2087
X5.5719Y2.2087
X4.6683Y2.3356
X4.6683Y2.2356
X4.6683Y2.1356
X4.6683Y2.0356
X5.2723Y2.0685
X5.3723Y2.0685
X5.4723Y2.0685
X5.5723Y2.0685
X4.6683Y2.936
X4.6683Y2.836
X4.6683Y2.736
X4.6683Y2.636
X0.6722Y3.0073
X0.6722Y2.7073
X3.7923Y1.2356
X3.7923Y0.9356
X3.4872Y0.399
X3.4872Y0.099
X3.6053Y0.399
X3.6053Y0.099
X4.655Y-0.0347
X4.9149Y-0.1847
X4.7057Y0.0681
X4.9655Y-0.0819
X5.6506Y0.2354
X5.9104Y0.0854
X4.6683Y1.7447
X4.6683Y1.6447
X4.6683Y1.5447
X4.6683Y1.4447
X5.6173Y1.0085
X6.0223Y0.9985
X5.2868Y0.6329
X5.4868Y0.6329
X5.2868Y0.7313
X5.4868Y0.7313
T4
X0.1565Y2.69
X0.3573Y2.6112
X0.5581Y2.69
X0.9065Y2.69
X1.1073Y2.6112
X1.3081Y2.69
X1.6565Y3.2525
X1.8573Y3.1737
X2.0581Y3.2525
X2.4065Y3.44
X2.6073Y3.3612
X2.8081Y3.44
X3.1565Y3.2525
X3.3573Y3.1737
X3.5581Y3.2525
X3.9065Y3.065
X4.1073Y2.9862
X4.3081Y3.065
X0.1565Y1.94
X0.3573Y1.8612
X0.5581Y1.94
X0.9065Y1.94
X1.1073Y1.8612
X1.3081Y1.94
X1.6565Y2.5025
X1.8573Y2.4237
X2.0581Y2.5025
X2.4065Y2.69
X2.6073Y2.6112
X2.8081Y2.69
X3.1565Y2.5025
X3.3573Y2.4237
X3.5581Y2.5025
X3.9065Y2.315
X4.1073Y2.2362
X4.3081Y2.315
X0.9065Y1.19
X1.1073Y1.1112
X1.3081Y1.19
X1.6565Y1.7525
X1.8573Y1.6737
X2.0581Y1.7525
X2.4065Y1.94
X2.6073Y1.8612
X2.8081Y1.94
X3.1565Y1.7525
X3.3573Y1.6737
X3.5581Y1.7525
X3.9065Y1.565
X4.1073Y1.4862
X4.3081Y1.565
X0.1565Y0.44
X0.3573Y0.3612
X0.5581Y0.44
X0.9065Y0.44
X1.1073Y0.3612
X1.3081Y0.44
X1.6565Y1.0025
X1.8573Y0.9237
X2.0581Y1.0025
X2.4065Y1.19
X2.6073Y1.1112
X2.8081Y1.19
X3.1565Y1.0025
X3.3573Y0.9237
X3.5581Y1.0025
X5.4883Y-0.6808
X5.6569Y-0.5463
X5.6891Y-0.333
X0.1565Y1.19
X0.3573Y1.1112
X0.5581Y1.19
X3.9065Y0.815
X4.1073Y0.7362
X4.3081Y0.815
X2.969Y0.2525
X3.1698Y0.1737
X3.3706Y0.2525
X3.719Y0.065
X3.9198Y-0.0138
X4.1206Y0.065
X4.6517Y-0.6316
X4.8203Y-0.497
X4.8525Y-0.2838
X5.0257Y0.018
X5.1943Y0.1526
X5.2265Y0.3658
T5
X5.7904Y0.4754
X6.0463Y0.4754
T6
X0.2073Y2.7435
X0.2573Y2.686
X0.2573Y2.6663
X0.2573Y2.6435
X0.4573Y2.686
X0.4573Y2.6663
X0.4573Y2.6435
X0.5073Y2.7435
X0.9573Y2.7435
X1.0073Y2.686
X1.0073Y2.6663
X1.0073Y2.6435
X1.2073Y2.686
X1.2073Y2.6663
X1.2073Y2.6435
X1.2573Y2.7435
X1.7073Y3.306
X1.7573Y3.2485
X1.7573Y3.2288
X1.7573Y3.206
X1.9573Y3.2485
X1.9573Y3.2288
X1.9573Y3.206
X2.0073Y3.306
X2.4573Y3.4935
X2.5073Y3.436
X2.5073Y3.4163
X2.5073Y3.3935
X2.7073Y3.436
X2.7073Y3.4163
X2.7073Y3.3935
X2.7573Y3.4935
X3.2073Y3.306
X3.2573Y3.2485
X3.2573Y3.2288
X3.2573Y3.206
X3.4573Y3.2485
X3.4573Y3.2288
X3.4573Y3.206
X3.5073Y3.306
X3.9573Y3.1185
X4.0073Y3.061
X4.0073Y3.0413
X4.0073Y3.0185
X4.2073Y3.061
X4.2073Y3.0413
X4.2073Y3.0185
X4.2573Y3.1185
X0.2073Y1.9935
X0.2573Y1.936
X0.2573Y1.9163
X0.2573Y1.8935
X0.4573Y1.936
X0.4573Y1.9163
X0.4573Y1.8935
X0.5073Y1.9935
X0.9573Y1.9935
X1.0073Y1.936
X1.0073Y1.9163
X1.0073Y1.8935
X1.2073Y1.936
X1.2073Y1.9163
X1.2073Y1.8935
X1.2573Y1.9935
X1.7073Y2.556
X1.7573Y2.4985
X1.7573Y2.4788
X1.7573Y2.456
X1.9573Y2.4985
X1.9573Y2.4788
X1.9573Y2.456
X2.0073Y2.556
X2.4573Y2.7435
X2.5073Y2.686
X2.5073Y2.6663
X2.5073Y2.6435
X2.7073Y2.686
X2.7073Y2.6663
X2.7073Y2.6435
X2.7573Y2.7435
X3.2073Y2.556
X3.2573Y2.4985
X3.2573Y2.4788
X3.2573Y2.456
X3.4573Y2.4985
X3.4573Y2.4788
X3.4573Y2.456
X3.5073Y2.556
X3.9573Y2.3685
X4.0073Y2.311
X4.0073Y2.2913
X4.0073Y2.2685
X4.2073Y2.311
X4.2073Y2.2913
X4.2073Y2.2685
X4.2573Y2.3685
X0.9573Y1.2435
X1.0073Y1.186
X1.0073Y1.1663
X1.0073Y1.1435
X1.2073Y1.186
X1.2073Y1.1663
X1.2073Y1.1435
X1.2573Y1.2435
X1.7073Y1.806
X1.7573Y1.7485
X1.7573Y1.7288
X1.7573Y1.706
X1.9573Y1.7485
X1.9573Y1.7288
X1.9573Y1.706
X2.0073Y1.806
X2.4573Y1.9935
X2.5073Y1.936
X2.5073Y1.9163
X2.5073Y1.8935
X2.7073Y1.936
X2.7073Y1.9163
X2.7073Y1.8935
X2.7573Y1.9935
X3.2073Y1.806
X3.2573Y1.7485
X3.2573Y1.7288
X3.2573Y1.706
X3.4573Y1.7485
X3.4573Y1.7288
X3.4573Y1.706
X3.5073Y1.806
X3.9573Y1.6185
X4.0073Y1.561
X4.0073Y1.5413
X4.0073Y1.5185
X4.2073Y1.561
X4.2073Y1.5413
X4.2073Y1.5185
X4.2573Y1.6185
X0.2073Y0.4935
X0.2573Y0.436
X0.2573Y0.4163
X0.2573Y0.3935
X0.4573Y0.436
X0.4573Y0.4163
X0.4573Y0.3935
X0.5073Y0.4935
X0.9573Y0.4935
X1.0073Y0.436
X1.0073Y0.4163
X1.0073Y0.3935
X1.2073Y0.436
X1.2073Y0.4163
X1.2073Y0.3935
X1.2573Y0.4935
X1.7073Y1.056
X1.7573Y0.9985
X1.7573Y0.9788
X1.7573Y0.956
X1.9573Y0.9985
X1.9573Y0.9788
X1.9573Y0.956
X2.0073Y1.056
X2.4573Y1.2435
X2.5073Y1.186
X2.5073Y1.1663
X2.5073Y1.1435
X2.7073Y1.186
X2.7073Y1.1663
X2.7073Y1.1435
X2.7573Y1.2435
X3.2073Y1.056
X3.2573Y0.9985
X3.2573Y0.9788
X3.2573Y0.956
X3.4573Y0.9985
X3.4573Y0.9788
X3.4573Y0.956
X3.5073Y1.056
X5.4673Y-0.61
X5.5421Y-0.5955
X5.5591Y-0.6053
X5.5789Y-0.6167
X5.6173Y-0.3502
X5.6421Y-0.4223
X5.6591Y-0.4321
X5.6789Y-0.4435
X0.2073Y1.2435
X0.2573Y1.186
X0.2573Y1.1663
X0.2573Y1.1435
X0.4573Y1.186
X0.4573Y1.1663
X0.4573Y1.1435
X0.5073Y1.2435
X3.9573Y0.8685
X4.0073Y0.811
X4.0073Y0.7913
X4.0073Y0.7685
X4.2073Y0.811
X4.2073Y0.7913
X4.2073Y0.7685
X4.2573Y0.8685
X3.0198Y0.306
X3.0698Y0.2485
X3.0698Y0.2288
X3.0698Y0.206
X3.2698Y0.2485
X3.2698Y0.2288
X3.2698Y0.206
X3.3198Y0.306
X3.7698Y0.1185
X3.8198Y0.061
X3.8198Y0.0413
X3.8198Y0.0185
X4.0198Y0.061
X4.0198Y0.0413
X4.0198Y0.0185
X4.0698Y0.1185
X4.6307Y-0.5608
X4.7055Y-0.5462
X4.7225Y-0.5561
X4.7423Y-0.5675
X4.7807Y-0.301
X4.8055Y-0.373
X4.8225Y-0.3829
X4.8423Y-0.3943
X5.0047Y0.0888
X5.0795Y0.1034
X5.0965Y0.0935
X5.1163Y0.0821
X5.1547Y0.3486
X5.1795Y0.2766
X5.1965Y0.2667
X5.2163Y0.2553
T3
X5.6211Y0.7943G85X5.6014Y0.7943
G05
X5.6211Y0.6978G85X5.6014Y0.6978
G05
X5.6801Y0.8632G85X5.6604Y0.8632
G05
X5.6801Y0.6289G85X5.6604Y0.6289
G05
X5.8376Y0.8632G85X5.8179Y0.8632
G05
X5.8376Y0.6289G85X5.8179Y0.6289
G05
X5.9557Y0.8632G85X5.936Y0.8632
G05
X5.9557Y0.6289G85X5.936Y0.6289
G05
T0
M30
